<svg width="24" height="25" viewBox="0 0 24 25" fill="none" xmlns="http://www.w3.org/2000/svg">
<g clip-path="url(#clip0_2260_1533)">
<path d="M5.22979 13.9591H5.37983V15.2241C5.37983 15.6199 5.70062 15.9407 6.09644 15.9407H8.94733C9.34315 15.9407 9.66394 15.6199 9.66394 15.2241V13.9591H9.81398C10.2098 13.9591 10.5306 13.6383 10.5306 13.2425V11.6954C9.08186 11.5557 7.95133 10.3373 7.95133 8.85231C7.95133 7.36736 9.08444 6.14887 10.5306 6.00917V4.69497C10.5306 4.29915 10.2098 3.97836 9.81398 3.97836H9.66394V2.2166C9.66394 1.82079 9.34315 1.5 8.94733 1.5H6.09644C5.70062 1.5 5.37983 1.82079 5.37983 2.2166V3.97836H5.22979C4.83397 3.97836 4.51318 4.29915 4.51318 4.69497V13.2425C4.51318 13.6383 4.83397 13.9591 5.22979 13.9591ZM6.81563 2.93321H8.23073V3.97836H6.81563V2.93321ZM6.81563 13.9591H8.23073V14.5075H6.81563V13.9591Z" fill="#555555"/>
<path d="M20.6046 22.1928L18.9722 20.8631C18.8454 20.7596 18.685 20.7027 18.5195 20.7027H16.3541C16.6594 20.4751 16.9543 20.2241 17.2311 19.9473C20.3123 16.8662 20.3123 11.85 17.2311 8.76881C15.891 7.42874 14.181 6.67333 12.427 6.5C12.9988 6.89323 13.4204 7.49341 13.586 8.19191C14.5484 8.49459 15.4564 9.02234 16.217 9.78551C18.7393 12.3079 18.7393 16.4135 16.217 18.9358C15.2727 19.8801 14.1112 20.4699 12.8901 20.7053H10.3936C9.45972 20.5242 8.55943 20.1336 7.76522 19.5386H11.2396C11.6354 19.5386 11.9562 19.2178 11.9562 18.822V17.901C11.9562 17.5052 11.6354 17.1844 11.2396 17.1844H3.80449C3.40868 17.1844 3.08789 17.5052 3.08789 17.901V18.822C3.08789 19.2178 3.40868 19.5386 3.80449 19.5386H5.85083C5.87152 19.6886 5.9362 19.8335 6.05261 19.9499C6.32942 20.2267 6.62434 20.4777 6.92961 20.7053H6.68385C6.28803 20.7053 5.96724 21.0261 5.96724 21.4219V22.7853C5.96724 23.1811 6.28803 23.5019 6.68385 23.5019H20.1933C20.5891 23.5019 20.9099 23.1811 20.9099 22.7853C20.9099 22.5421 20.7883 22.3248 20.602 22.1954L20.6046 22.1928Z" fill="#555555"/>
<path d="M11.2071 10.8606C12.3171 10.641 13.039 9.56308 12.8194 8.45301C12.5998 7.34293 11.5219 6.62106 10.4118 6.84066C9.30175 7.06026 8.57988 8.13817 8.79947 9.24825C9.01907 10.3583 10.097 11.0802 11.2071 10.8606Z" fill="#555555"/>
</g>
<defs>
<clipPath id="clip0_2260_1533">
<rect width="17.8246" height="22" fill="white" transform="translate(3.08789 1.5)"/>
</clipPath>
</defs>
</svg>
