<svg width="40" height="40" viewBox="0 0 40 40" fill="none" xmlns="http://www.w3.org/2000/svg">
<g clip-path="url(#clip0_2230_980)">
<path d="M29.6291 17.6044L27.8413 10.8868C27.7486 10.5359 27.4274 10.2875 27.0632 10.2875H23.1135C22.6623 10.2875 22.544 10.2871 21.8421 10.2871H18.9353C18.2334 10.2871 18.4151 10.2874 17.6639 10.2874L13.7142 10.2875C13.35 10.2875 13.0288 10.5325 12.9361 10.8868L11.1483 17.6044C9.90677 17.9884 9.00293 19.1439 9.00293 20.5112V26.4077C9.00293 26.7719 9.29759 27.0666 9.66178 27.0666H31.1189C31.4831 27.0666 31.7778 26.7719 31.7778 26.4077V20.5112C31.7778 19.1472 30.874 17.9884 29.6324 17.6044H29.6291ZM14.33 11.9032H26.4441L27.9274 17.4719H12.8501L14.3333 11.9032H14.33ZM12.6117 22.4646C11.8072 22.4646 11.1549 21.8124 11.1549 21.0079C11.1549 20.2033 11.8072 19.5511 12.6117 19.5511C13.4162 19.5511 14.0684 20.2033 14.0684 21.0079C14.0684 21.8124 13.4162 22.4646 12.6117 22.4646ZM28.1624 22.4646C27.3579 22.4646 26.7057 21.8124 26.7057 21.0079C26.7057 20.2033 27.3579 19.5511 28.1624 19.5511C28.9669 19.5511 29.6192 20.2033 29.6192 21.0079C29.6192 21.8124 28.9669 22.4646 28.1624 22.4646Z" fill="white"/>
<path d="M10.5029 30.3416C10.5029 30.8382 10.9068 31.2421 11.4035 31.2421H12.4199C12.9165 31.2421 13.3204 30.8382 13.3204 30.3416V27.4844H10.5029V30.3416Z" fill="white"/>
<path d="M27.4541 30.3416C27.4541 30.8382 27.858 31.2421 28.3546 31.2421H29.371C29.8677 31.2421 30.2716 30.8382 30.2716 30.3416V27.4844H27.4574V30.3416H27.4541Z" fill="white"/>
</g>
<defs>
<clipPath id="clip0_2230_980">
<rect width="22.7749" height="23" fill="white" transform="translate(9 8.24219)"/>
</clipPath>
</defs>
</svg>
