<svg width="24" height="24" viewBox="0 0 24 24" fill="none" xmlns="http://www.w3.org/2000/svg">
<mask id="mask0_1909_972" style="mask-type:alpha" maskUnits="userSpaceOnUse" x="0" y="0" width="24" height="24">
<rect width="24" height="24" fill="#D9D9D9"/>
</mask>
<g mask="url(#mask0_1909_972)">
<path d="M9.38701 16.325C7.48551 16.325 5.87259 15.6628 4.54826 14.3385C3.22409 13.0143 2.56201 11.4015 2.56201 9.5C2.56201 7.5985 3.22409 5.98567 4.54826 4.6615C5.87259 3.33717 7.48551 2.675 9.38701 2.675C11.2885 2.675 12.9013 3.33717 14.2255 4.6615C15.5498 5.98567 16.212 7.5985 16.212 9.5C16.212 10.2522 16.1048 10.9462 15.8903 11.582C15.6758 12.2178 15.3873 12.7763 15.025 13.2575L20.512 18.7588C20.7613 19.0174 20.886 19.3284 20.886 19.6918C20.886 20.0553 20.7566 20.3617 20.4978 20.611C20.2486 20.8602 19.9399 20.9848 19.5718 20.9848C19.2036 20.9848 18.8949 20.8602 18.6458 20.611L13.1728 15.138C12.6823 15.5003 12.1143 15.7888 11.469 16.0033C10.8237 16.2178 10.1297 16.325 9.38701 16.325ZM9.38701 13.675C10.5522 13.675 11.5393 13.2705 12.3483 12.4615C13.1574 11.6523 13.562 10.6652 13.562 9.5C13.562 8.33484 13.1574 7.34767 12.3483 6.5385C11.5393 5.7295 10.5522 5.325 9.38701 5.325C8.22185 5.325 7.23468 5.7295 6.42551 6.5385C5.61651 7.34767 5.21201 8.33484 5.21201 9.5C5.21201 10.6652 5.61651 11.6523 6.42551 12.4615C7.23468 13.2705 8.22185 13.675 9.38701 13.675Z" fill="white"/>
</g>
</svg>
