<svg width="36" height="36" viewBox="0 0 36 36" fill="none" xmlns="http://www.w3.org/2000/svg">
<path d="M9 25.8333V23.5H11.3333V15.3333C11.3333 13.7194 11.8194 12.2854 12.7917 11.0313C13.7639 9.77708 15.0278 8.95556 16.5833 8.56667V7.75C16.5833 7.26389 16.7535 6.85069 17.0937 6.51042C17.434 6.17014 17.8472 6 18.3333 6C18.8194 6 19.2326 6.17014 19.5729 6.51042C19.9132 6.85069 20.0833 7.26389 20.0833 7.75V8.56667C21.6389 8.95556 22.9028 9.77708 23.875 11.0313C24.8472 12.2854 25.3333 13.7194 25.3333 15.3333V23.5H27.6667V25.8333H9ZM18.3333 29.3333C17.6917 29.3333 17.1424 29.1049 16.6854 28.6479C16.2285 28.191 16 27.6417 16 27H20.6667C20.6667 27.6417 20.4382 28.191 19.9813 28.6479C19.5243 29.1049 18.975 29.3333 18.3333 29.3333ZM13.6667 23.5H23V15.3333C23 14.05 22.5431 12.9514 21.6292 12.0375C20.7153 11.1236 19.6167 10.6667 18.3333 10.6667C17.05 10.6667 15.9514 11.1236 15.0375 12.0375C14.1236 12.9514 13.6667 14.05 13.6667 15.3333V23.5Z" fill="white"/>
</svg>
