<svg width="24" height="24" viewBox="0 0 24 24" fill="none" xmlns="http://www.w3.org/2000/svg">
<mask id="mask0_1909_1446" style="mask-type:alpha" maskUnits="userSpaceOnUse" x="0" y="0" width="24" height="24">
<rect width="24" height="24" fill="#D9D9D9"/>
</mask>
<g mask="url(#mask0_1909_1446)">
<path d="M12 13.5912L7.19573 18.3957C6.98439 18.6069 6.71914 18.7125 6.39998 18.7125C6.08081 18.7125 5.81556 18.6069 5.60423 18.3957C5.39306 18.1844 5.28748 17.9191 5.28748 17.6C5.28748 17.2808 5.39306 17.0156 5.60423 16.8042L10.4087 12L5.60423 7.19573C5.39306 6.98439 5.28748 6.71914 5.28748 6.39998C5.28748 6.08081 5.39306 5.81556 5.60423 5.60423C5.81556 5.39306 6.08081 5.28748 6.39998 5.28748C6.71914 5.28748 6.98439 5.39306 7.19573 5.60423L12 10.4087L16.8042 5.60423C17.0156 5.39306 17.2808 5.28748 17.6 5.28748C17.9191 5.28748 18.1844 5.39306 18.3957 5.60423C18.6069 5.81556 18.7125 6.08081 18.7125 6.39998C18.7125 6.71914 18.6069 6.98439 18.3957 7.19573L13.5912 12L18.3957 16.8042C18.6069 17.0156 18.7125 17.2808 18.7125 17.6C18.7125 17.9191 18.6069 18.1844 18.3957 18.3957C18.1844 18.6069 17.9191 18.7125 17.6 18.7125C17.2808 18.7125 17.0156 18.6069 16.8042 18.3957L12 13.5912Z" fill="#04819B"/>
</g>
</svg>
