<svg width="25" height="25" viewBox="0 0 25 25" fill="none" xmlns="http://www.w3.org/2000/svg">
<g clip-path="url(#clip0_2260_1470)">
<path d="M2.38073 20.2517H22.6162C23.1678 20.2517 23.6122 19.8047 23.6122 19.2557C23.6122 18.7068 23.1652 18.2598 22.6162 18.2598H2.38073C1.82916 18.2598 1.38477 18.7068 1.38477 19.2557C1.38477 19.8047 1.83177 20.2517 2.38073 20.2517Z" fill="white"/>
<path d="M22.6162 21.5078H2.38073C1.82916 21.5078 1.38477 21.9548 1.38477 22.5064C1.38477 23.058 1.83177 23.5023 2.38073 23.5023H22.6162C23.1678 23.5023 23.6122 23.0553 23.6122 22.5064C23.6122 21.9574 23.1652 21.5078 22.6162 21.5078Z" fill="white"/>
<path d="M2.59225 10.0996H3.06801V17.0191H5.29258V10.0996H6.77737V17.0191H9.00194V10.0996H15.9972V17.0191H18.2218V10.0996H19.7065V17.0191H21.9311V10.0996H22.4069C22.846 10.0996 23.2329 9.81208 23.361 9.39122C23.4891 8.97035 23.3244 8.51551 22.9611 8.2724L13.0511 1.66665C12.7165 1.44445 12.28 1.44445 11.9454 1.66665L2.03806 8.2724C1.67209 8.51551 1.51002 8.97035 1.63811 9.39122C1.7662 9.81208 2.15308 10.0996 2.59225 10.0996ZM12.4996 4.69112C13.357 4.69112 14.0549 5.38647 14.0549 6.24649C14.0549 7.10652 13.3596 7.80187 12.4996 7.80187C11.6395 7.80187 10.9442 7.10652 10.9442 6.24649C10.9442 5.38647 11.6395 4.69112 12.4996 4.69112Z" fill="white"/>
</g>
<defs>
<clipPath id="clip0_2260_1470">
<rect width="22.23" height="22" fill="white" transform="translate(1.38477 1.5)"/>
</clipPath>
</defs>
</svg>
