<svg width="36" height="36" viewBox="0 0 36 36" fill="none" xmlns="http://www.w3.org/2000/svg">
<mask id="mask0_416_77" style="mask-type:alpha" maskUnits="userSpaceOnUse" x="0" y="0" width="36" height="36">
<rect width="36" height="36" fill="#D9D9D9"/>
</mask>
<g mask="url(#mask0_416_77)">
<path d="M8 26.75V24.25H10.5V15.5C10.5 13.7708 11.0208 12.2344 12.0625 10.8906C13.1042 9.54688 14.4583 8.66667 16.125 8.25V7.375C16.125 6.85417 16.3073 6.41146 16.6719 6.04688C17.0365 5.68229 17.4792 5.5 18 5.5C18.5208 5.5 18.9635 5.68229 19.3281 6.04688C19.6927 6.41146 19.875 6.85417 19.875 7.375V8.25C21.5417 8.66667 22.8958 9.54688 23.9375 10.8906C24.9792 12.2344 25.5 13.7708 25.5 15.5V24.25H28V26.75H8ZM18 30.5C17.3125 30.5 16.724 30.2552 16.2344 29.7656C15.7448 29.276 15.5 28.6875 15.5 28H20.5C20.5 28.6875 20.2552 29.276 19.7656 29.7656C19.276 30.2552 18.6875 30.5 18 30.5ZM13 24.25H23V15.5C23 14.125 22.5104 12.9479 21.5312 11.9688C20.5521 10.9896 19.375 10.5 18 10.5C16.625 10.5 15.4479 10.9896 14.4688 11.9688C13.4896 12.9479 13 14.125 13 15.5V24.25Z" fill="#111111"/>
</g>
</svg>
