<svg width="24" height="24" viewBox="0 0 24 24" fill="none" xmlns="http://www.w3.org/2000/svg">
<mask id="mask0_1909_968" style="mask-type:alpha" maskUnits="userSpaceOnUse" x="0" y="0" width="24" height="24">
<rect width="24" height="24" fill="#D9D9D9"/>
</mask>
<g mask="url(#mask0_1909_968)">
<path d="M9.40103 21.0815C7.66553 20.5228 6.25145 19.5111 5.15878 18.0463C4.06595 16.5814 3.51953 14.9088 3.51953 13.0283C3.51953 12.1348 3.65903 11.2753 3.93803 10.45C4.21703 9.62467 4.60578 8.85834 5.10428 8.151C5.32528 7.82867 5.63511 7.65859 6.03378 7.64075C6.43228 7.62309 6.78695 7.76967 7.09778 8.0805C7.30945 8.292 7.42412 8.557 7.44178 8.8755C7.45961 9.194 7.37212 9.49817 7.17928 9.788C6.85478 10.2577 6.60536 10.7678 6.43103 11.3185C6.2567 11.8692 6.16953 12.4391 6.16953 13.0283C6.16953 14.2934 6.5277 15.4246 7.24403 16.4218C7.96036 17.4189 8.8917 18.1186 10.038 18.5208C10.3207 18.6251 10.5517 18.7972 10.731 19.037C10.9104 19.2768 11 19.5333 11 19.8065C11 20.2717 10.8386 20.6354 10.5158 20.8978C10.1929 21.1601 9.82136 21.2213 9.40103 21.0815ZM14.599 21.0815C14.1787 21.2213 13.8071 21.1583 13.4843 20.8925C13.1614 20.6265 13 20.2609 13 19.7958C13 19.5391 13.0897 19.2885 13.269 19.044C13.4484 18.7995 13.6794 18.6251 13.962 18.5208C15.099 18.1019 16.028 17.3958 16.749 16.4023C17.47 15.4088 17.8305 14.2841 17.8305 13.0283C17.8305 11.4653 17.2966 10.1239 16.2288 9.00425C15.1611 7.88475 13.8504 7.28734 12.2968 7.212H12.1653L12.5793 7.626C12.7909 7.83767 12.8968 8.09692 12.8968 8.40375C12.8968 8.71075 12.7909 8.97 12.5793 9.1815C12.3678 9.39317 12.1086 9.499 11.8018 9.499C11.4948 9.499 11.2355 9.39317 11.024 9.1815L8.55653 6.71425C8.4282 6.58592 8.33378 6.44225 8.27328 6.28325C8.21278 6.12409 8.18253 5.959 8.18253 5.788C8.18253 5.617 8.21278 5.452 8.27328 5.293C8.33378 5.13384 8.4282 4.99017 8.55653 4.862L11.024 2.3805C11.2355 2.16884 11.4948 2.063 11.8018 2.063C12.1086 2.063 12.3678 2.16884 12.5793 2.3805C12.7909 2.592 12.8968 2.85117 12.8968 3.158C12.8968 3.465 12.7909 3.72425 12.5793 3.93575L11.9675 4.54775H12.113C14.45 4.54775 16.4289 5.37459 18.0495 7.02825C19.6702 8.68192 20.4805 10.6819 20.4805 13.0283C20.4805 14.9014 19.9341 16.5699 18.8413 18.0338C17.7486 19.4974 16.3345 20.5133 14.599 21.0815Z" fill="white"/>
</g>
</svg>
