<svg width="20" height="20" viewBox="0 0 20 20" fill="none" xmlns="http://www.w3.org/2000/svg">
<mask id="mask0_1909_382" style="mask-type:alpha" maskUnits="userSpaceOnUse" x="0" y="0" width="20" height="20">
<rect width="20" height="20" fill="#D9D9D9"/>
</mask>
<g mask="url(#mask0_1909_382)">
<path d="M3.33341 16.6666C2.87508 16.6666 2.48272 16.5035 2.15633 16.1771C1.82994 15.8507 1.66675 15.4583 1.66675 15V4.99998C1.66675 4.54165 1.82994 4.14929 2.15633 3.8229C2.48272 3.49651 2.87508 3.33331 3.33341 3.33331H8.33341L10.0001 4.99998H16.6667C17.1251 4.99998 17.5174 5.16317 17.8438 5.48956C18.1702 5.81595 18.3334 6.20831 18.3334 6.66665V15C18.3334 15.4583 18.1702 15.8507 17.8438 16.1771C17.5174 16.5035 17.1251 16.6666 16.6667 16.6666H3.33341ZM3.33341 15H16.6667V6.66665H9.31258L7.64591 4.99998H3.33341V15Z" fill="#333333"/>
</g>
</svg>
