<svg width="24" height="24" viewBox="0 0 24 24" fill="none" xmlns="http://www.w3.org/2000/svg">
<mask id="mask0_2192_51959" style="mask-type:alpha" maskUnits="userSpaceOnUse" x="0" y="0" width="24" height="24">
<rect x="24" y="24" width="24" height="24" transform="rotate(-180 24 24)" fill="#D9D9D9"/>
</mask>
<g mask="url(#mask0_2192_51959)">
<path d="M12 11.325L14.375 13.7C14.5583 13.8833 14.7875 13.975 15.0625 13.975C15.3375 13.975 15.575 13.8833 15.775 13.7C15.975 13.5 16.075 13.2625 16.075 12.9875C16.075 12.7125 15.975 12.475 15.775 12.275L12.7 9.2C12.5 9 12.2667 8.9 12 8.9C11.7333 8.9 11.5 9 11.3 9.2L8.2 12.3C8 12.5 7.90417 12.7333 7.9125 13C7.92083 13.2667 8.025 13.5 8.225 13.7C8.425 13.8833 8.65833 13.9792 8.925 13.9875C9.19167 13.9958 9.425 13.9 9.625 13.7L12 11.325ZM12 2C13.3833 2 14.6833 2.2625 15.9 2.7875C17.1167 3.3125 18.175 4.025 19.075 4.925C19.975 5.825 20.6875 6.88333 21.2125 8.1C21.7375 9.31667 22 10.6167 22 12C22 13.3833 21.7375 14.6833 21.2125 15.9C20.6875 17.1167 19.975 18.175 19.075 19.075C18.175 19.975 17.1167 20.6875 15.9 21.2125C14.6833 21.7375 13.3833 22 12 22C10.6167 22 9.31667 21.7375 8.1 21.2125C6.88333 20.6875 5.825 19.975 4.925 19.075C4.025 18.175 3.3125 17.1167 2.7875 15.9C2.2625 14.6833 2 13.3833 2 12C2 10.6167 2.2625 9.31666 2.7875 8.1C3.3125 6.88333 4.025 5.825 4.925 4.925C5.825 4.025 6.88333 3.3125 8.1 2.7875C9.31667 2.2625 10.6167 2 12 2ZM12 4C9.76667 4 7.875 4.775 6.325 6.325C4.775 7.875 4 9.76666 4 12C4 14.2333 4.775 16.125 6.325 17.675C7.875 19.225 9.76667 20 12 20C14.2333 20 16.125 19.225 17.675 17.675C19.225 16.125 20 14.2333 20 12C20 9.76667 19.225 7.875 17.675 6.325C16.125 4.775 14.2333 4 12 4Z" fill="#111111"/>
</g>
</svg>
