<svg width="24" height="25" viewBox="0 0 24 25" fill="none" xmlns="http://www.w3.org/2000/svg">
<g clip-path="url(#clip0_2260_1540)">
<path d="M18.2955 5.85654C17.3176 3.26435 14.8082 1.5 11.9987 1.5C9.18916 1.5 6.67976 3.26435 5.70186 5.85654C3.07345 6.22648 1.0918 8.45908 1.0918 11.178C1.0918 13.897 2.95186 15.9873 5.4561 16.4581V22.6696C5.4561 23.1275 5.82863 23.5 6.28653 23.5H17.716C18.1739 23.5 18.5464 23.1275 18.5464 22.6696V16.4581C21.0481 15.9847 22.9107 13.8013 22.9107 11.178C22.9107 8.5548 20.9291 6.22648 18.3006 5.85654H18.2955ZM17.6823 14.893C17.2374 14.9111 16.8855 15.2759 16.8855 15.7208V21.8391H7.11437V15.7208C7.11437 15.2759 6.76254 14.9111 6.31757 14.893C4.31781 14.8128 2.75008 13.183 2.75008 11.178C2.75008 9.17309 4.32816 7.52775 6.34603 7.46308C6.70821 7.45273 7.02124 7.20696 7.11696 6.85771C7.7275 4.67944 9.73502 3.15828 11.9987 3.15828C14.2623 3.15828 16.2698 4.67944 16.8804 6.85771C16.9787 7.20696 17.2917 7.45273 17.6513 7.46308C19.6666 7.52775 21.2473 9.16016 21.2473 11.178C21.2473 13.1959 19.6795 14.8128 17.6798 14.893H17.6823Z" fill="#04359B"/>
<path d="M10.1566 16.125C9.6987 16.125 9.32617 16.4975 9.32617 16.9554V19.783C9.32617 20.2409 9.6987 20.6135 10.1566 20.6135C10.6145 20.6135 10.987 20.2409 10.987 19.783V16.9554C10.987 16.4975 10.6145 16.125 10.1566 16.125Z" fill="#04359B"/>
<path d="M13.8431 16.125C13.3852 16.125 13.0127 16.4975 13.0127 16.9554V19.783C13.0127 20.2409 13.3852 20.6135 13.8431 20.6135C14.301 20.6135 14.6736 20.2409 14.6736 19.783V16.9554C14.6736 16.4975 14.301 16.125 13.8431 16.125Z" fill="#04359B"/>
</g>
<defs>
<clipPath id="clip0_2260_1540">
<rect width="21.8163" height="22" fill="white" transform="translate(1.0918 1.5)"/>
</clipPath>
</defs>
</svg>
