<svg width="24" height="24" viewBox="0 0 24 24" fill="none" xmlns="http://www.w3.org/2000/svg">
<mask id="mask0_1459_12951" style="mask-type:alpha" maskUnits="userSpaceOnUse" x="0" y="0" width="24" height="24">
<rect width="24" height="24" fill="#D9D9D9"/>
</mask>
<g mask="url(#mask0_1459_12951)">
<path d="M12 13.5913L7.19573 18.3958C6.98439 18.607 6.71914 18.7126 6.39998 18.7126C6.08081 18.7126 5.81556 18.607 5.60423 18.3958C5.39306 18.1845 5.28748 17.9193 5.28748 17.6001C5.28748 17.2809 5.39306 17.0157 5.60423 16.8043L10.4087 12.0001L5.60423 7.19585C5.39306 6.98451 5.28748 6.71926 5.28748 6.4001C5.28748 6.08093 5.39306 5.81568 5.60423 5.60435C5.81556 5.39318 6.08081 5.2876 6.39998 5.2876C6.71914 5.2876 6.98439 5.39318 7.19573 5.60435L12 10.4088L16.8042 5.60435C17.0156 5.39318 17.2808 5.2876 17.6 5.2876C17.9191 5.2876 18.1844 5.39318 18.3957 5.60435C18.6069 5.81568 18.7125 6.08093 18.7125 6.4001C18.7125 6.71926 18.6069 6.98451 18.3957 7.19585L13.5912 12.0001L18.3957 16.8043C18.6069 17.0157 18.7125 17.2809 18.7125 17.6001C18.7125 17.9193 18.6069 18.1845 18.3957 18.3958C18.1844 18.607 17.9191 18.7126 17.6 18.7126C17.2808 18.7126 17.0156 18.607 16.8042 18.3958L12 13.5913Z" fill="#333333"/>
</g>
</svg>
