<svg width="25" height="25" viewBox="0 0 25 25" fill="none" xmlns="http://www.w3.org/2000/svg">
<g clip-path="url(#clip0_2260_1521)">
<path d="M16.5027 21.8105H13.3439V17.2807L21.2136 8.37873C21.4335 8.13037 21.4879 7.77595 21.3507 7.47327C21.2136 7.17059 20.9135 6.97656 20.5798 6.97656H4.41613C4.08499 6.97656 3.78231 7.17059 3.6452 7.47327C3.50809 7.77595 3.56241 8.13037 3.78231 8.37873L11.652 17.2807V21.8105H8.49327C8.02761 21.8105 7.6499 22.1882 7.6499 22.6565C7.6499 23.1247 8.02761 23.4998 8.49327 23.4998H16.5027C16.9683 23.4998 17.3486 23.1221 17.3486 22.6565C17.3486 22.1908 16.9709 21.8105 16.5027 21.8105ZM6.29172 8.6633H18.7068L12.498 15.6845L6.29172 8.6633Z" fill="white"/>
<path d="M9.28418 10.5723L12.4998 14.207L15.7129 10.5723H9.28418Z" fill="white"/>
<path d="M12.453 1.5C9.84785 1.5 7.67992 3.37559 7.22461 5.84878H13.8293C14.6028 5.84878 15.309 6.30409 15.6272 7.01035C15.9454 7.7166 15.8187 8.54704 15.3065 9.12653L12.647 12.1326C15.4927 12.0292 17.7719 9.6905 17.7719 6.81891C17.7719 3.94732 15.3892 1.5 12.453 1.5Z" fill="white"/>
</g>
<defs>
<clipPath id="clip0_2260_1521">
<rect width="20.9523" height="22" fill="white" transform="translate(2.02344 1.5)"/>
</clipPath>
</defs>
</svg>
