<svg width="18" height="18" viewBox="0 0 18 18" fill="none" xmlns="http://www.w3.org/2000/svg">
<mask id="mask0_1909_441" style="mask-type:alpha" maskUnits="userSpaceOnUse" x="0" y="0" width="18" height="18">
<rect width="18" height="18" fill="#D9D9D9"/>
</mask>
<g mask="url(#mask0_1909_441)">
<path d="M7.49816 9.85036L11.7537 5.59486C11.9477 5.40086 12.1792 5.30386 12.4482 5.30386C12.7172 5.30386 12.9487 5.40086 13.1427 5.59486C13.3368 5.78886 13.4338 6.02218 13.4338 6.2948C13.4338 6.5673 13.3368 6.80055 13.1427 6.99455L8.20335 11.9446C8.00385 12.1441 7.76878 12.2438 7.49816 12.2438C7.22753 12.2438 6.99247 12.1441 6.79297 11.9446L4.84297 9.99455C4.64897 9.80055 4.55372 9.5673 4.55722 9.2948C4.56072 9.02218 4.65953 8.78886 4.85366 8.59486C5.04766 8.40086 5.28091 8.30386 5.55341 8.30386C5.82603 8.30386 6.05935 8.40086 6.25335 8.59486L7.49816 9.85036Z" fill="white"/>
</g>
</svg>
