<svg width="33" height="30" viewBox="0 0 33 30" fill="none" xmlns="http://www.w3.org/2000/svg">
<path d="M16.4999 0.481689C7.7715 0.481689 0.696289 6.07382 0.696289 12.976C0.696289 17.467 3.69229 21.403 8.19225 23.6052C7.86102 24.8376 6.99565 28.0753 6.82257 28.7676C6.60772 29.627 7.1359 29.6151 7.48503 29.3853C7.75658 29.2033 11.8149 26.443 13.5665 25.2524C14.5185 25.3926 15.4972 25.4672 16.4999 25.4672C25.2283 25.4672 32.3035 19.8751 32.3035 12.976C32.3035 6.07681 25.2283 0.481689 16.4999 0.481689Z" fill="#371D1E"/>
<path d="M5.47401 10.6752H7.10032C7.10032 10.6752 7.10928 15.1423 7.10032 16.1837C7.10032 16.9447 8.79229 16.9536 8.7893 16.1957L8.79527 10.7348C8.79527 10.7348 9.34135 10.7378 10.4126 10.7378C11.4242 10.7378 11.4242 9.14733 10.4126 9.14733C9.27272 9.14733 5.46506 9.1145 5.46506 9.1145C4.51016 9.1145 4.51314 10.6752 5.46506 10.6752" fill="#FAE100"/>
<mask id="mask0_1963_589" style="mask-type:luminance" maskUnits="userSpaceOnUse" x="4" y="9" width="8" height="8">
<path d="M5.47401 10.6752H7.10032C7.10032 10.6752 7.10928 15.1423 7.10032 16.1837C7.10032 16.9447 8.79229 16.9536 8.7893 16.1957L8.79527 10.7348C8.79527 10.7348 9.34135 10.7378 10.4126 10.7378C11.4242 10.7378 11.4242 9.14733 10.4126 9.14733C9.27272 9.14733 5.46506 9.1145 5.46506 9.1145C4.51016 9.1145 4.51314 10.6752 5.46506 10.6752" fill="white"/>
</mask>
<g mask="url(#mask0_1963_589)">
<path d="M11.4301 9.1145H4.51904V16.9536H11.4301V9.1145Z" fill="#FAE100"/>
</g>
<path d="M13.2594 10.9616L14.1636 13.7964H12.2777L13.2594 10.9616ZM12.2449 9.63367C11.845 10.514 10.3977 14.6767 9.92028 15.7808C9.57413 16.5776 11.0691 17.2281 11.4153 16.4314L11.7406 15.2944H14.7157C14.7157 15.2944 14.6142 15.3422 15.0081 16.3836C15.3274 17.2281 16.8731 16.6432 16.5539 15.7987C16.0973 14.5932 14.5157 10.2484 14.2263 9.63367C14.095 9.35019 13.6175 9.14429 13.155 9.14429C12.773 9.14429 12.4 9.28454 12.2419 9.63367" fill="#FAE100"/>
<mask id="mask1_1963_589" style="mask-type:luminance" maskUnits="userSpaceOnUse" x="9" y="9" width="8" height="8">
<path d="M13.2594 10.9616L14.1636 13.7964H12.2777L13.2594 10.9616ZM12.2449 9.63367C11.845 10.514 10.3977 14.6767 9.92028 15.7808C9.57413 16.5776 11.0691 17.2281 11.4153 16.4314L11.7406 15.2944H14.7157C14.7157 15.2944 14.6142 15.3422 15.0081 16.3836C15.3274 17.2281 16.8731 16.6432 16.5539 15.7987C16.0973 14.5932 14.5157 10.2484 14.2263 9.63367C14.095 9.35019 13.6175 9.14429 13.155 9.14429C12.773 9.14429 12.4 9.28454 12.2419 9.63367" fill="white"/>
</mask>
<g mask="url(#mask1_1963_589)">
<path d="M16.8763 9.14722H9.57129V17.234H16.8763V9.14722Z" fill="#FAE100"/>
</g>
<path d="M17.127 9.89329C17.127 11.3077 17.1359 15.8674 17.1359 15.8674C17.1359 15.8674 17.0046 16.7745 17.7835 16.7745C18.5623 16.7745 20.2841 16.7656 21.048 16.7656C21.8119 16.7656 21.809 15.1393 21.045 15.1393C20.2811 15.1393 18.8846 15.1303 18.8846 15.1303C18.8846 15.1303 18.8905 10.9138 18.8876 9.88732C18.8876 9.39196 18.4459 9.14429 18.0073 9.14429C17.5686 9.14429 17.124 9.39495 17.127 9.8903" fill="#FAE100"/>
<mask id="mask2_1963_589" style="mask-type:luminance" maskUnits="userSpaceOnUse" x="17" y="9" width="5" height="8">
<path d="M17.127 9.89329C17.127 11.3077 17.1359 15.8674 17.1359 15.8674C17.1359 15.8674 17.0046 16.7745 17.7835 16.7745C18.5623 16.7745 20.2841 16.7656 21.048 16.7656C21.8119 16.7656 21.809 15.1393 21.045 15.1393C20.2811 15.1393 18.8846 15.1303 18.8846 15.1303C18.8846 15.1303 18.8905 10.9138 18.8876 9.88732C18.8876 9.39196 18.4459 9.14429 18.0073 9.14429C17.5686 9.14429 17.124 9.39495 17.127 9.8903" fill="white"/>
</mask>
<g mask="url(#mask2_1963_589)">
<path d="M21.8117 9.14722H17.0044V16.7745H21.8117V9.14722Z" fill="#FAE100"/>
</g>
<path d="M22.0145 9.66962C22.0324 10.2903 21.9937 15.9003 21.9937 16.3151C21.9937 16.9716 23.6647 16.9686 23.6647 16.3151C23.6647 15.5542 23.6647 14.1069 23.6647 14.1069L24.1541 13.713L26.2997 16.6374C26.7323 17.2103 28.0961 16.1749 27.6634 15.6049L25.3865 12.6059C25.3865 12.6059 26.9323 10.9349 27.541 10.3291C27.8961 9.97698 26.795 8.86691 26.4399 9.22201C26.0967 9.56219 23.6737 11.9882 23.6737 11.9882C23.6737 11.9882 23.6946 10.4664 23.6737 9.62486C23.6647 9.30556 23.2738 9.15039 22.871 9.15039C22.4413 9.15039 22.0026 9.32645 22.0116 9.66962" fill="#FAE100"/>
<mask id="mask3_1963_589" style="mask-type:luminance" maskUnits="userSpaceOnUse" x="21" y="9" width="7" height="8">
<path d="M22.0145 9.66962C22.0324 10.2903 21.9937 15.9003 21.9937 16.3151C21.9937 16.9716 23.6647 16.9686 23.6647 16.3151C23.6647 15.5542 23.6647 14.1069 23.6647 14.1069L24.1541 13.713L26.2997 16.6374C26.7323 17.2103 28.0961 16.1749 27.6634 15.6049L25.3865 12.6059C25.3865 12.6059 26.9323 10.9349 27.541 10.3291C27.8961 9.97698 26.795 8.86691 26.4399 9.22201C26.0967 9.56219 23.6737 11.9882 23.6737 11.9882C23.6737 11.9882 23.6946 10.4664 23.6737 9.62486C23.6647 9.30556 23.2738 9.15039 22.871 9.15039C22.4413 9.15039 22.0026 9.32645 22.0116 9.66962" fill="white"/>
</mask>
<g mask="url(#mask3_1963_589)">
<path d="M28.0961 8.86987H21.9937V17.2133H28.0961V8.86987Z" fill="#FAE100"/>
</g>
</svg>
