<svg width="24" height="24" viewBox="0 0 24 24" fill="none" xmlns="http://www.w3.org/2000/svg">
<mask id="mask0_1909_1122" style="mask-type:alpha" maskUnits="userSpaceOnUse" x="0" y="0" width="24" height="24">
<rect width="24" height="24" fill="#D9D9D9"/>
</mask>
<g mask="url(#mask0_1909_1122)">
<path d="M7.59426 12L11.652 16.073C11.7903 16.2115 11.8637 16.383 11.872 16.5875C11.8803 16.792 11.807 16.9718 11.652 17.127C11.507 17.2718 11.3313 17.3442 11.125 17.3442C10.9187 17.3442 10.743 17.2718 10.598 17.127L6.10401 12.6327C6.01034 12.5391 5.94426 12.4403 5.90576 12.3365C5.86726 12.2326 5.84801 12.1205 5.84801 12C5.84801 11.8795 5.86726 11.7673 5.90576 11.6635C5.94426 11.5596 6.01034 11.4609 6.10401 11.3672L10.598 6.87298C10.7365 6.73465 10.908 6.66131 11.1125 6.65298C11.317 6.64465 11.4968 6.71798 11.652 6.87298C11.7968 7.01798 11.8693 7.19365 11.8693 7.39998C11.8693 7.60632 11.7968 7.78198 11.652 7.92698L7.59426 12ZM13.9443 12L18.002 16.073C18.1403 16.2115 18.2137 16.383 18.222 16.5875C18.2303 16.792 18.157 16.9718 18.002 17.127C17.857 17.2718 17.6813 17.3442 17.475 17.3442C17.2687 17.3442 17.093 17.2718 16.948 17.127L12.4538 12.6327C12.3603 12.5391 12.2943 12.4403 12.2558 12.3365C12.2173 12.2326 12.198 12.1205 12.198 12C12.198 11.8795 12.2173 11.7673 12.2558 11.6635C12.2943 11.5596 12.3603 11.4609 12.4538 11.3672L16.948 6.87298C17.0865 6.73465 17.258 6.66131 17.4625 6.65298C17.667 6.64465 17.8468 6.71798 18.002 6.87298C18.1468 7.01798 18.2193 7.19365 18.2193 7.39998C18.2193 7.60632 18.1468 7.78198 18.002 7.92698L13.9443 12Z" fill="#04819B"/>
</g>
</svg>
