<svg width="25" height="25" viewBox="0 0 25 25" fill="none" xmlns="http://www.w3.org/2000/svg">
<g clip-path="url(#clip0_2260_1464)">
<g clip-path="url(#clip1_2260_1464)">
<path d="M23.6386 5.00315H18.388L16.6459 1.98647C16.472 1.68481 16.1513 1.5 15.8034 1.5H10.3109C9.963 1.5 9.64231 1.68481 9.46838 1.98647L7.72631 5.00315H2.47295C1.93484 5.00315 1.5 5.43799 1.5 5.9761V11.3735C1.5 11.8083 1.78808 12.1888 2.20661 12.3084L12.7894 15.3387C12.8764 15.3631 12.9661 15.3767 13.0585 15.3767C13.1509 15.3767 13.2379 15.3631 13.3275 15.3387L23.9104 12.3084C24.3289 12.1888 24.617 11.8083 24.617 11.3735V5.9761C24.617 5.43799 24.1822 5.00315 23.644 5.00315H23.6386ZM9.97116 5.00315L10.8707 3.44589H15.2408L16.1404 5.00315H9.97387H9.97116Z" fill="white"/>
<path d="M14.3494 16.0777V17.3442C14.3494 18.059 13.7705 18.6378 13.0558 18.6378C12.341 18.6378 11.7621 18.059 11.7621 17.3442V16.0777L1.93212 13.2622C1.77993 13.2187 1.63317 13.1562 1.5 13.0801V22.5269C1.5 23.065 1.93484 23.4998 2.47295 23.4998H23.6359C24.174 23.4998 24.6088 23.065 24.6088 22.5269V13.0801C24.4729 13.1562 24.3289 13.2187 24.1767 13.2622L14.3494 16.075V16.0777Z" fill="white"/>
</g>
</g>
<defs>
<clipPath id="clip0_2260_1464">
<rect width="24" height="24" fill="white" transform="translate(0.5 0.5)"/>
</clipPath>
<clipPath id="clip1_2260_1464">
<rect width="23.1116" height="22" fill="white" transform="translate(1.5 1.5)"/>
</clipPath>
</defs>
</svg>
