<svg width="25" height="25" viewBox="0 0 25 25" fill="none" xmlns="http://www.w3.org/2000/svg">
<g clip-path="url(#clip0_2260_1496)">
<path d="M21.7085 6.6818L12.9334 1.61642C12.6643 1.46119 12.3332 1.46119 12.0641 1.61642L3.29155 6.6818C3.0225 6.83702 2.85693 7.12418 2.85693 7.43462V17.5654C2.85693 17.8758 3.0225 18.163 3.29155 18.3182L12.0641 23.3836C12.1987 23.4612 12.3487 23.5 12.4987 23.5C12.6488 23.5 12.7988 23.4612 12.9334 23.3836L21.7059 18.3182C21.975 18.163 22.1406 17.8758 22.1406 17.5654V7.43462C22.1406 7.12418 21.975 6.83702 21.7059 6.6818H21.7085ZM12.4987 3.373L15.0961 4.87088L9.96865 8.02187C9.5599 8.27281 9.43055 8.80833 9.68407 9.21707C9.84706 9.48354 10.1342 9.631 10.4265 9.631C10.5818 9.631 10.7396 9.5896 10.8819 9.50165L16.8113 5.85654L19.7217 7.5381L12.5013 11.7058L5.28097 7.54069L12.4987 3.373ZM12.4987 21.627L4.59541 17.0635V9.15499L11.6295 13.2166V19.7126C11.6295 20.1938 12.0176 20.5818 12.4987 20.5818C12.9799 20.5818 13.368 20.1938 13.368 19.7126V13.2166L20.4021 9.15499V17.0635L12.4987 21.627Z" fill="#04359B"/>
</g>
<defs>
<clipPath id="clip0_2260_1496">
<rect width="19.2862" height="22" fill="white" transform="translate(2.85693 1.5)"/>
</clipPath>
</defs>
</svg>
