<svg width="40" height="40" viewBox="0 0 40 40" fill="none" xmlns="http://www.w3.org/2000/svg">
<g clip-path="url(#clip0_2230_946)">
<path d="M12.1543 34.0948C12.1543 34.5943 12.5606 35.0006 13.0602 35.0006H14.0826C14.5821 35.0006 14.9884 34.5943 14.9884 34.0948V31.2207H12.1576V34.0948H12.1543Z" fill="white"/>
<path d="M25.6055 34.0948C25.6055 34.5943 26.0118 35.0006 26.5113 35.0006H27.5337C28.0333 35.0006 28.4396 34.5943 28.4396 34.0948V31.2207H25.6088V34.0948H25.6055Z" fill="white"/>
<path d="M32.9926 13.416C32.1833 13.416 31.5273 14.0721 31.5273 14.8814V17.7122C31.5273 17.7688 31.5306 17.8221 31.5373 17.8754L30.3117 19.0976V10.6985C30.3117 9.75932 29.5524 9 28.6132 9H11.9848C11.0456 9 10.2863 9.75932 10.2863 10.6985V19.1009L9.06076 17.8787C9.06742 17.8254 9.07075 17.7721 9.07075 17.7155V14.8847C9.07075 14.0754 8.41467 13.4194 7.6054 13.4194C6.79613 13.4194 6.13672 14.0754 6.13672 14.8847V17.7155C6.13672 18.5248 6.7928 19.1809 7.60207 19.1809C7.84186 19.1809 8.06832 19.1209 8.27147 19.0177L10.2863 21.0325V28.8422C10.2863 29.7814 11.0456 30.5407 11.9848 30.5407H28.6099C29.549 30.5407 30.3084 29.778 30.3084 28.8422V21.0325L32.3232 19.0177C32.523 19.1209 32.7495 19.1809 32.9926 19.1809C33.8019 19.1809 34.458 18.5248 34.458 17.7155V14.8847C34.458 14.0754 33.8019 13.4194 32.9926 13.4194V13.416ZM28.7331 23.9466C28.7331 24.566 28.2302 25.0722 27.6075 25.0722C26.9847 25.0722 26.4818 24.5694 26.4818 23.9466C26.4818 23.3238 26.9847 22.8209 27.6075 22.8209C28.2302 22.8209 28.7331 23.3238 28.7331 23.9466ZM20.8901 12.7833H28.127V18.9944H20.8901V12.7833ZM12.4677 12.7833H19.7045V18.9944H12.4677V12.7833ZM12.9839 22.8209C13.6067 22.8209 14.1096 23.3238 14.1096 23.9466C14.1096 24.5694 13.6067 25.0722 12.9839 25.0722C12.3611 25.0722 11.8583 24.5694 11.8583 23.9466C11.8583 23.3238 12.3611 22.8209 12.9839 22.8209ZM28.4867 27.9963H12.108C11.8849 27.9963 11.7017 27.8164 11.7017 27.59C11.7017 27.3635 11.8816 27.1837 12.108 27.1837H28.49C28.7131 27.1837 28.8963 27.3635 28.8963 27.59C28.8963 27.8164 28.7165 27.9963 28.49 27.9963H28.4867Z" fill="white"/>
</g>
<defs>
<clipPath id="clip0_2230_946">
<rect width="28.3213" height="26" fill="white" transform="translate(6.13672 9)"/>
</clipPath>
</defs>
</svg>
