<svg width="25" height="25" viewBox="0 0 25 25" fill="none" xmlns="http://www.w3.org/2000/svg">
<g clip-path="url(#clip0_2260_1491)">
<path d="M22.7068 15.1744C23.1236 14.7372 23.3716 14.1466 23.3716 13.5176C23.3716 12.8886 23.1236 12.298 22.7068 11.8608C22.8756 11.5284 22.9651 11.1602 22.9651 10.7818C22.9651 9.45483 21.8861 8.3733 20.5565 8.3733H15.604C16.3531 7.11278 16.8389 5.71676 16.2764 4.6608C15.7369 3.65085 14.9418 3.5 14.5148 3.5C13.5636 3.5 12.7761 4.20824 12.6892 4.29006C12.6815 4.29773 12.6739 4.30284 12.6688 4.31051L7.79546 9.18381H7.1537V9.00739C7.1537 8.5446 6.78041 8.17131 6.31762 8.17131H2.4645C2.00171 8.17131 1.62842 8.5446 1.62842 9.00739V20.6639C1.62842 21.1267 2.00171 21.5 2.4645 21.5H6.31762C6.78041 21.5 7.1537 21.1267 7.1537 20.6639V20.1832H7.87473C8.29149 20.9222 9.07899 21.4003 9.96876 21.4003H20.3597C21.6867 21.4003 22.7656 20.3213 22.7656 18.9943C22.7656 18.5545 22.648 18.1352 22.4307 17.7696C22.7708 17.3477 22.9676 16.8159 22.9676 16.2585C22.9676 15.8801 22.8756 15.5094 22.7094 15.1795L22.7068 15.1744ZM4.30541 12.0986C3.79149 12.0986 3.37472 11.6818 3.37472 11.1679C3.37472 10.654 3.79149 10.2372 4.30541 10.2372C4.81933 10.2372 5.23609 10.654 5.23609 11.1679C5.23609 11.6818 4.81933 12.0986 4.30541 12.0986ZM21.2111 14.208C20.9222 14.3128 20.7125 14.5685 20.6665 14.8727C20.6205 15.177 20.7483 15.4812 20.9938 15.6653C21.183 15.806 21.2929 16.0207 21.2929 16.2534C21.2929 16.5372 21.1242 16.798 20.8659 16.9182C20.5898 17.046 20.4057 17.3119 20.3852 17.6162C20.3622 17.9179 20.5054 18.2094 20.7585 18.3756C20.9656 18.5136 21.0909 18.7412 21.0909 18.9892C21.0909 19.3932 20.7611 19.723 20.3571 19.723H9.9662C9.62359 19.723 9.32956 19.4903 9.25285 19.1554C9.16592 18.777 8.82842 18.5085 8.43723 18.5085H7.1537V10.856H8.14319C8.36563 10.856 8.57785 10.769 8.73382 10.6105L13.8398 5.5071C13.9574 5.40227 14.2949 5.17472 14.5173 5.17472C14.5557 5.17472 14.6554 5.17472 14.8037 5.45085C15.0108 5.83949 14.6503 7.02585 13.3617 8.70312C13.1673 8.95625 13.1341 9.29631 13.2747 9.58267C13.4154 9.86903 13.7068 10.048 14.0264 10.048H20.5617C20.9656 10.048 21.2955 10.3778 21.2955 10.7844C21.2955 11.017 21.1881 11.2318 20.9963 11.3724C20.7483 11.5565 20.623 11.8608 20.669 12.1651C20.7151 12.4693 20.9247 12.725 21.2136 12.8298C21.5051 12.9347 21.702 13.2108 21.702 13.5202C21.702 13.8295 21.5051 14.1057 21.2136 14.2105L21.2111 14.208Z" fill="#555555"/>
</g>
<defs>
<clipPath id="clip0_2260_1491">
<rect width="21.7432" height="18" fill="white" transform="translate(1.62842 3.5)"/>
</clipPath>
</defs>
</svg>
