<svg width="44" height="44" viewBox="0 0 44 44" fill="none" xmlns="http://www.w3.org/2000/svg">
<rect width="44" height="44" fill="white"/>
<g clip-path="url(#clip0_1963_441)">
<path fill-rule="evenodd" clip-rule="evenodd" d="M35 22.2951C35 21.373 34.9183 20.4875 34.7681 19.6364H22.7554V24.6649H29.6203C29.3247 26.2901 28.4259 27.6666 27.0752 28.5888V31.8501H31.1981C33.6097 29.5869 35.0012 26.2545 35.0012 22.2951H35Z" fill="#4285F4"/>
<path fill-rule="evenodd" clip-rule="evenodd" d="M22.7551 35C26.199 35 29.0866 33.8354 31.1966 31.8501L27.0738 28.5888C25.9311 29.3689 24.4711 29.8294 22.7539 29.8294C19.4314 29.8294 16.6196 27.5429 15.6162 24.4702H11.3564V27.8381C13.4557 32.0865 17.7684 35 22.7551 35Z" fill="#34A853"/>
<path fill-rule="evenodd" clip-rule="evenodd" d="M15.6176 24.4702C15.3629 23.6901 15.2175 22.8573 15.2175 22C15.2175 21.1428 15.3629 20.31 15.6176 19.5299V16.162H11.3566C10.4927 17.917 10 19.9022 10 22C10 24.0979 10.4927 26.0831 11.3566 27.8381L15.6176 24.4702Z" fill="#FBBC05"/>
<path fill-rule="evenodd" clip-rule="evenodd" d="M22.7551 14.1706C24.6273 14.1706 26.3096 14.827 27.6314 16.1142L31.2904 12.385C29.0806 10.2884 26.193 9 22.7551 9C17.7684 9 13.4557 11.9135 11.3564 16.1619L15.6174 19.5298C16.6208 16.4571 19.4326 14.1706 22.7551 14.1706Z" fill="#EA4335"/>
</g>
<defs>
<clipPath id="clip0_1963_441">
<rect width="25" height="26" fill="white" transform="translate(10 9)"/>
</clipPath>
</defs>
</svg>
