<svg width="24" height="25" viewBox="0 0 24 25" fill="none" xmlns="http://www.w3.org/2000/svg">
<mask id="mask0_2192_50976" style="mask-type:alpha" maskUnits="userSpaceOnUse" x="0" y="0" width="24" height="25">
<rect y="0.5" width="24" height="24" fill="#D9D9D9"/>
</mask>
<g mask="url(#mask0_2192_50976)">
<path d="M18 16.25C18 17.9833 17.3917 19.4583 16.175 20.675C14.9583 21.8917 13.4833 22.5 11.75 22.5C10.0167 22.5 8.54167 21.8917 7.325 20.675C6.10833 19.4583 5.5 17.9833 5.5 16.25V7C5.5 5.75 5.9375 4.6875 6.8125 3.8125C7.6875 2.9375 8.75 2.5 10 2.5C11.25 2.5 12.3125 2.9375 13.1875 3.8125C14.0625 4.6875 14.5 5.75 14.5 7V15.75C14.5 16.5167 14.2333 17.1667 13.7 17.7C13.1667 18.2333 12.5167 18.5 11.75 18.5C10.9833 18.5 10.3333 18.2333 9.8 17.7C9.26667 17.1667 9 16.5167 9 15.75V6.5H11V15.75C11 15.9667 11.0708 16.1458 11.2125 16.2875C11.3542 16.4292 11.5333 16.5 11.75 16.5C11.9667 16.5 12.1458 16.4292 12.2875 16.2875C12.4292 16.1458 12.5 15.9667 12.5 15.75V7C12.4833 6.3 12.2375 5.70833 11.7625 5.225C11.2875 4.74167 10.7 4.5 10 4.5C9.3 4.5 8.70833 4.74167 8.225 5.225C7.74167 5.70833 7.5 6.3 7.5 7V16.25C7.48333 17.4333 7.89167 18.4375 8.725 19.2625C9.55833 20.0875 10.5667 20.5 11.75 20.5C12.9167 20.5 13.9083 20.0875 14.725 19.2625C15.5417 18.4375 15.9667 17.4333 16 16.25V6.5H18V16.25Z" fill="#04359B"/>
</g>
</svg>
