<svg width="24" height="25" viewBox="0 0 24 25" fill="none" xmlns="http://www.w3.org/2000/svg">
<g clip-path="url(#clip0_2260_1528)">
<path d="M21.2525 10.1169C21.6121 8.52593 21.475 5.58966 18.6629 4.15904C17.0848 3.35707 15.5222 3.1915 14.1434 3.04662C12.5627 2.88105 11.1967 2.73618 10.1128 1.70396C9.92135 1.52028 9.64454 1.45561 9.39101 1.53063C8.34068 1.84366 6.14172 2.84225 6.07187 4.87306C6.07187 4.90669 6.0848 4.93773 6.0848 4.97395C6.08997 5.08778 6.25554 7.43679 9.73508 8.54145C10.1257 8.66563 10.3404 9.08214 10.2163 9.47278C10.1154 9.78839 9.82563 9.99018 9.51001 9.99018C9.43499 9.99018 9.35997 9.97983 9.28494 9.95655C6.52201 9.07955 5.39148 7.49371 4.92582 6.35542C4.0333 7.03581 3.18475 8.11977 3.0554 9.68232C2.2586 10.9448 1.43076 13.6094 3.38395 15.798C3.42535 15.8446 3.47191 15.8808 3.51848 15.9145L6.06928 23.0106C6.17535 23.3056 6.45474 23.4996 6.76777 23.4996H17.2271C17.5401 23.4996 17.8195 23.303 17.9256 23.0106L20.6031 15.5549C20.629 15.4824 20.642 15.4074 20.6445 15.3324C21.4672 14.4605 22.4787 12.7272 21.2551 10.1195L21.2525 10.1169ZM7.28518 22.0172L5.15865 16.0981H8.2165L9.06246 22.0172H7.28518ZM13.4319 22.0172H10.5603L9.71439 16.0981H14.2753L13.4293 22.0172H13.4319ZM16.7045 22.0172H14.9272L15.7732 16.0981H18.831L16.7045 22.0172Z" fill="#04359B"/>
</g>
<defs>
<clipPath id="clip0_2260_1528">
<rect width="19.6432" height="22" fill="white" transform="translate(2.17822 1.5)"/>
</clipPath>
</defs>
</svg>
