<svg width="24" height="25" viewBox="0 0 24 25" fill="none" xmlns="http://www.w3.org/2000/svg">
<g clip-path="url(#clip0_2260_1547)">
<path d="M22.0296 17.7879L18.3949 14.2023H19.691C20.1307 14.2023 20.4852 13.8452 20.4852 13.408C20.4852 13.1752 20.3843 12.9631 20.2239 12.8182L16.9642 9.34384H17.8697C17.8697 9.34384 17.8697 9.34384 17.8723 9.34384C18.3121 9.34384 18.6665 8.98683 18.6665 8.54962C18.6665 8.31679 18.5656 8.10466 18.4052 7.95978L12.5792 1.75094C12.4292 1.59055 12.2196 1.5 11.9997 1.5C11.7799 1.5 11.5703 1.59055 11.4203 1.75094L5.55031 8.00118C5.333 8.23142 5.2735 8.57032 5.40027 8.86007C5.52703 9.1524 5.81419 9.33866 6.1298 9.33866H7.03267L3.72905 12.8596C3.51174 13.0898 3.45224 13.4287 3.57901 13.7211C3.70577 14.0108 3.99293 14.1997 4.30854 14.1997H5.60205L1.96988 17.7879C1.73964 18.0155 1.66979 18.357 1.79138 18.6571C1.91297 18.9546 2.2053 19.1486 2.52609 19.1486H9.69989V22.7058C9.69989 23.1456 10.0569 23.5 10.4941 23.5H13.4976C13.9374 23.5 14.2918 23.143 14.2918 22.7058V19.1486H21.4682C21.7916 19.1486 22.0814 18.9546 22.2029 18.6571C22.3245 18.357 22.2547 18.0155 22.0244 17.7879H22.0296ZM9.44895 9.09031C9.66626 8.86007 9.72576 8.52117 9.599 8.22883C9.47223 7.9365 9.18507 7.75023 8.86946 7.75023H7.96659L11.9997 3.45579L16.0329 7.75023H15.13C14.8144 7.75023 14.5273 7.93909 14.4005 8.22883C14.2737 8.51858 14.3332 8.85748 14.5505 9.09031L15.6604 10.2726C14.7886 12.4198 12.8017 11.6075 12.8017 11.6075C11.591 14.1117 9.07383 14.1893 7.97952 14.0936L8.1037 13.972C8.33394 13.7444 8.40379 13.4029 8.27962 13.1054C8.15803 12.8079 7.86569 12.6112 7.5449 12.6112H6.14791L9.45154 9.09031H9.44895Z" fill="#04359B"/>
</g>
<defs>
<clipPath id="clip0_2260_1547">
<rect width="20.5357" height="22" fill="white" transform="translate(1.73193 1.5)"/>
</clipPath>
</defs>
</svg>
