<svg width="24" height="24" viewBox="0 0 24 24" fill="none" xmlns="http://www.w3.org/2000/svg">
<mask id="mask0_2128_217" style="mask-type:alpha" maskUnits="userSpaceOnUse" x="0" y="0" width="24" height="24">
<rect width="24" height="24" rx="3" fill="white"/>
</mask>
<g mask="url(#mask0_2128_217)">
<path d="M7 17.3333C7 18.2538 7.74619 19 8.66667 19V19C9.58714 19 10.3333 18.2538 10.3333 17.3333V6.66667C10.3333 5.74619 9.58714 5 8.66667 5V5C7.74619 5 7 5.74619 7 6.66667V17.3333ZM13.6667 17.3333C13.6667 18.2538 14.4129 19 15.3333 19V19C16.2538 19 17 18.2538 17 17.3333V6.66667C17 5.74619 16.2538 5 15.3333 5V5C14.4129 5 13.6667 5.74619 13.6667 6.66667V17.3333Z" fill="white"/>
</g>
</svg>
