<svg width="23" height="22" viewBox="0 0 23 22" fill="none" xmlns="http://www.w3.org/2000/svg">
<mask id="mask0_2094_140" style="mask-type:alpha" maskUnits="userSpaceOnUse" x="0" y="0" width="23" height="22">
<rect x="0.5" width="22" height="22" fill="#D9D9D9"/>
</mask>
<g mask="url(#mask0_2094_140)">
<path d="M9.2542 11.0001L15.9917 17.7376C16.2209 17.9668 16.3316 18.2341 16.324 18.5397C16.3164 18.8452 16.198 19.1126 15.9688 19.3418C15.7396 19.5709 15.4723 19.6855 15.1667 19.6855C14.8611 19.6855 14.5938 19.5709 14.3646 19.3418L7.30629 12.3064C7.12295 12.123 6.98545 11.9168 6.89379 11.6876C6.80212 11.4584 6.75629 11.2293 6.75629 11.0001C6.75629 10.7709 6.80212 10.5418 6.89379 10.3126C6.98545 10.0834 7.12295 9.87719 7.30629 9.69385L14.3646 2.63552C14.5938 2.40635 14.865 2.29559 15.1782 2.30323C15.4914 2.31086 15.7625 2.42927 15.9917 2.65843C16.2209 2.8876 16.3355 3.15496 16.3355 3.46052C16.3355 3.76607 16.2209 4.03343 15.9917 4.2626L9.2542 11.0001Z" fill="#111111"/>
</g>
</svg>
