<svg width="25" height="24" viewBox="0 0 25 24" fill="none" xmlns="http://www.w3.org/2000/svg">
<mask id="mask0_2260_1606" style="mask-type:alpha" maskUnits="userSpaceOnUse" x="0" y="0" width="25" height="24">
<rect x="0.5" width="24" height="24" fill="#D9D9D9"/>
</mask>
<g mask="url(#mask0_2260_1606)">
<path d="M5.5 20C4.95 20 4.47917 19.8042 4.0875 19.4125C3.69583 19.0208 3.5 18.55 3.5 18V11C3.5 9.76667 3.7375 8.60417 4.2125 7.5125C4.6875 6.42083 5.33333 5.46667 6.15 4.65C6.96667 3.83333 7.92083 3.1875 9.0125 2.7125C10.1042 2.2375 11.2667 2 12.5 2C13.7333 2 14.8958 2.2375 15.9875 2.7125C17.0792 3.1875 18.0333 3.83333 18.85 4.65C19.6667 5.46667 20.3125 6.42083 20.7875 7.5125C21.2625 8.60417 21.5 9.76667 21.5 11V21C21.5 21.55 21.3042 22.0208 20.9125 22.4125C20.5208 22.8042 20.05 23 19.5 23H13.5C13.2167 23 12.9792 22.9042 12.7875 22.7125C12.5958 22.5208 12.5 22.2833 12.5 22C12.5 21.7167 12.5958 21.4792 12.7875 21.2875C12.9792 21.0958 13.2167 21 13.5 21H19.5V20H17.5C16.95 20 16.4792 19.8042 16.0875 19.4125C15.6958 19.0208 15.5 18.55 15.5 18V14C15.5 13.45 15.6958 12.9792 16.0875 12.5875C16.4792 12.1958 16.95 12 17.5 12H19.5V11C19.5 9.06667 18.8167 7.41667 17.45 6.05C16.0833 4.68333 14.4333 4 12.5 4C10.5667 4 8.91667 4.68333 7.55 6.05C6.18333 7.41667 5.5 9.06667 5.5 11V12H7.5C8.05 12 8.52083 12.1958 8.9125 12.5875C9.30417 12.9792 9.5 13.45 9.5 14V18C9.5 18.55 9.30417 19.0208 8.9125 19.4125C8.52083 19.8042 8.05 20 7.5 20H5.5ZM5.5 18H7.5V14H5.5V18ZM17.5 18H19.5V14H17.5V18Z" fill="white"/>
</g>
</svg>
