<svg width="54" height="54" viewBox="0 0 54 54" fill="none" xmlns="http://www.w3.org/2000/svg">
<path d="M35.8667 37.5L28.5167 30.15C27.9333 30.6167 27.2625 30.9861 26.5042 31.2583C25.7458 31.5306 24.9389 31.6667 24.0833 31.6667C21.9639 31.6667 20.1701 30.9326 18.7021 29.4646C17.234 27.9965 16.5 26.2028 16.5 24.0833C16.5 21.9639 17.234 20.1701 18.7021 18.7021C20.1701 17.234 21.9639 16.5 24.0833 16.5C26.2028 16.5 27.9965 17.234 29.4646 18.7021C30.9326 20.1701 31.6667 21.9639 31.6667 24.0833C31.6667 24.9389 31.5306 25.7458 31.2583 26.5042C30.9861 27.2625 30.6167 27.9333 30.15 28.5167L37.5 35.8667L35.8667 37.5ZM24.0833 29.3333C25.5417 29.3333 26.7812 28.8229 27.8021 27.8021C28.8229 26.7812 29.3333 25.5417 29.3333 24.0833C29.3333 22.625 28.8229 21.3854 27.8021 20.3646C26.7812 19.3438 25.5417 18.8333 24.0833 18.8333C22.625 18.8333 21.3854 19.3438 20.3646 20.3646C19.3438 21.3854 18.8333 22.625 18.8333 24.0833C18.8333 25.5417 19.3438 26.7812 20.3646 27.8021C21.3854 28.8229 22.625 29.3333 24.0833 29.3333Z" fill="white"/>
</svg>
