<svg width="18" height="18" viewBox="0 0 18 18" fill="none" xmlns="http://www.w3.org/2000/svg">
<mask id="mask0_1909_984" style="mask-type:alpha" maskUnits="userSpaceOnUse" x="0" y="0" width="18" height="18">
<rect width="18" height="18" fill="#D9D9D9"/>
</mask>
<g mask="url(#mask0_1909_984)">
<path d="M4.5 15C4.0875 15 3.73438 14.8532 3.44063 14.5594C3.14688 14.2657 3 13.9125 3 13.5V12C3 11.7875 3.07187 11.6094 3.21562 11.4657C3.35938 11.3219 3.5375 11.25 3.75 11.25C3.9625 11.25 4.14062 11.3219 4.28437 11.4657C4.42813 11.6094 4.5 11.7875 4.5 12V13.5H13.5V12C13.5 11.7875 13.5719 11.6094 13.7156 11.4657C13.8594 11.3219 14.0375 11.25 14.25 11.25C14.4625 11.25 14.6406 11.3219 14.7844 11.4657C14.9281 11.6094 15 11.7875 15 12V13.5C15 13.9125 14.8531 14.2657 14.5594 14.5594C14.2656 14.8532 13.9125 15 13.5 15H4.5ZM8.25 5.88754L6.84375 7.29379C6.69375 7.44379 6.51562 7.51566 6.30937 7.50941C6.10312 7.50316 5.925 7.42504 5.775 7.27504C5.6375 7.12504 5.56563 6.95004 5.55938 6.75004C5.55313 6.55004 5.625 6.37504 5.775 6.22504L8.475 3.52504C8.55 3.45004 8.63125 3.39691 8.71875 3.36566C8.80625 3.33441 8.9 3.31879 9 3.31879C9.1 3.31879 9.19375 3.33441 9.28125 3.36566C9.36875 3.39691 9.45 3.45004 9.525 3.52504L12.225 6.22504C12.375 6.37504 12.4469 6.55004 12.4406 6.75004C12.4344 6.95004 12.3625 7.12504 12.225 7.27504C12.075 7.42504 11.8969 7.50316 11.6906 7.50941C11.4844 7.51566 11.3062 7.44379 11.1562 7.29379L9.75 5.88754V11.25C9.75 11.4625 9.67813 11.6407 9.53438 11.7844C9.39063 11.9282 9.2125 12 9 12C8.7875 12 8.60938 11.9282 8.46562 11.7844C8.32188 11.6407 8.25 11.4625 8.25 11.25V5.88754Z" fill="white"/>
</g>
</svg>
