<svg width="26" height="26" viewBox="0 0 26 26" fill="none" xmlns="http://www.w3.org/2000/svg">
<g clip-path="url(#clip0_1963_582)">
<path fill-rule="evenodd" clip-rule="evenodd" d="M25.5 13.2953C25.5 12.3731 25.4183 11.4876 25.2681 10.6365H13.2554V15.665H20.1203C19.8247 17.2902 18.9259 18.6667 17.5752 19.5889V22.8502H21.6981C24.1097 20.587 25.5012 17.2547 25.5012 13.2953H25.5Z" fill="#4285F4"/>
<path fill-rule="evenodd" clip-rule="evenodd" d="M13.2551 26C16.699 26 19.5866 24.8354 21.6966 22.8501L17.5738 19.5888C16.4311 20.3689 14.9711 20.8294 13.2539 20.8294C9.93143 20.8294 7.1196 18.5429 6.11624 15.4702H1.85645V18.8381C3.9557 23.0865 8.26836 26 13.2551 26Z" fill="#34A853"/>
<path fill-rule="evenodd" clip-rule="evenodd" d="M6.11764 15.4701C5.86289 14.69 5.7175 13.8572 5.7175 12.9999C5.7175 12.1426 5.86289 11.3099 6.11764 10.5297V7.16187H1.85665C0.99267 8.91683 0.5 10.902 0.5 12.9999C0.5 15.0978 0.99267 17.083 1.85665 18.838L6.11764 15.4701Z" fill="#FBBC05"/>
<path fill-rule="evenodd" clip-rule="evenodd" d="M13.2551 5.17061C15.1273 5.17061 16.8096 5.82704 18.1314 7.11418L21.7904 3.38502C19.5806 1.28837 16.693 0 13.2551 0C8.26837 0 3.9557 2.91352 1.85645 7.16194L6.11744 10.5298C7.1208 7.45709 9.93263 5.17061 13.2551 5.17061Z" fill="#EA4335"/>
</g>
<defs>
<clipPath id="clip0_1963_582">
<rect width="25" height="26" fill="white" transform="translate(0.5)"/>
</clipPath>
</defs>
</svg>
