<svg width="16" height="16" viewBox="0 0 16 16" fill="none" xmlns="http://www.w3.org/2000/svg">
<mask id="mask0_1974_898" style="mask-type:alpha" maskUnits="userSpaceOnUse" x="0" y="0" width="16" height="16">
<rect width="16" height="16" fill="#D9D9D9"/>
</mask>
<g mask="url(#mask0_1974_898)">
<path d="M3.33333 10.6668V7.3335C3.33333 7.14461 3.39722 6.98627 3.525 6.8585C3.65278 6.73072 3.81111 6.66683 4 6.66683C4.18889 6.66683 4.34722 6.73072 4.475 6.8585C4.60278 6.98627 4.66667 7.14461 4.66667 7.3335V10.6668C4.66667 10.8557 4.60278 11.0141 4.475 11.1418C4.34722 11.2696 4.18889 11.3335 4 11.3335C3.81111 11.3335 3.65278 11.2696 3.525 11.1418C3.39722 11.0141 3.33333 10.8557 3.33333 10.6668ZM7.33333 10.6668V7.3335C7.33333 7.14461 7.39722 6.98627 7.525 6.8585C7.65278 6.73072 7.81111 6.66683 8 6.66683C8.18889 6.66683 8.34722 6.73072 8.475 6.8585C8.60278 6.98627 8.66667 7.14461 8.66667 7.3335V10.6668C8.66667 10.8557 8.60278 11.0141 8.475 11.1418C8.34722 11.2696 8.18889 11.3335 8 11.3335C7.81111 11.3335 7.65278 11.2696 7.525 11.1418C7.39722 11.0141 7.33333 10.8557 7.33333 10.6668ZM2 14.0002C1.81111 14.0002 1.65278 13.9363 1.525 13.8085C1.39722 13.6807 1.33333 13.5224 1.33333 13.3335C1.33333 13.1446 1.39722 12.9863 1.525 12.8585C1.65278 12.7307 1.81111 12.6668 2 12.6668H14C14.1889 12.6668 14.3472 12.7307 14.475 12.8585C14.6028 12.9863 14.6667 13.1446 14.6667 13.3335C14.6667 13.5224 14.6028 13.6807 14.475 13.8085C14.3472 13.9363 14.1889 14.0002 14 14.0002H2ZM11.3333 10.6668V7.3335C11.3333 7.14461 11.3972 6.98627 11.525 6.8585C11.6528 6.73072 11.8111 6.66683 12 6.66683C12.1889 6.66683 12.3472 6.73072 12.475 6.8585C12.6028 6.98627 12.6667 7.14461 12.6667 7.3335V10.6668C12.6667 10.8557 12.6028 11.0141 12.475 11.1418C12.3472 11.2696 12.1889 11.3335 12 11.3335C11.8111 11.3335 11.6528 11.2696 11.525 11.1418C11.3972 11.0141 11.3333 10.8557 11.3333 10.6668ZM14 5.3335H1.93333C1.76667 5.3335 1.625 5.27516 1.50833 5.1585C1.39167 5.04183 1.33333 4.90016 1.33333 4.7335V4.36683C1.33333 4.24461 1.36389 4.13905 1.425 4.05016C1.48611 3.96127 1.56667 3.88905 1.66667 3.8335L7.4 0.966829C7.58889 0.877941 7.78889 0.833496 8 0.833496C8.21111 0.833496 8.41111 0.877941 8.6 0.966829L14.3 3.81683C14.4222 3.87239 14.5139 3.95572 14.575 4.06683C14.6361 4.17794 14.6667 4.29461 14.6667 4.41683V4.66683C14.6667 4.85572 14.6028 5.01405 14.475 5.14183C14.3472 5.26961 14.1889 5.3335 14 5.3335ZM4.3 4.00016H11.7L8 2.16683L4.3 4.00016Z" fill="#F6F6F6"/>
</g>
</svg>
