<svg width="58" height="58" viewBox="0 0 58 58" fill="none" xmlns="http://www.w3.org/2000/svg">
<path d="M37.9746 11.7997H20.0278C15.0697 11.7997 11.0361 15.8332 11.0361 20.7914V37.2101C11.0361 42.1682 15.0697 46.2018 20.0278 46.2018H37.9746C42.9328 46.2018 46.9663 42.1682 46.9663 37.2101V20.7914C46.9663 15.8332 42.9328 11.7997 37.9746 11.7997ZM14.2081 20.7914C14.2081 17.5828 16.8193 14.9717 20.0278 14.9717H37.9746C41.1832 14.9717 43.7944 17.5828 43.7944 20.7914V37.2101C43.7944 40.4187 41.1832 43.0298 37.9746 43.0298H20.0278C16.8193 43.0298 14.2081 40.4187 14.2081 37.2101V20.7914Z" fill="white"/>
<path d="M29.0015 37.3632C33.6122 37.3632 37.3653 33.6121 37.3653 28.9994C37.3653 24.3867 33.6142 20.6356 29.0015 20.6356C24.3888 20.6356 20.6377 24.3867 20.6377 28.9994C20.6377 33.6121 24.3888 37.3632 29.0015 37.3632ZM29.0015 23.8096C31.8646 23.8096 34.1933 26.1383 34.1933 29.0015C34.1933 31.8646 31.8646 34.1933 29.0015 34.1933C26.1384 34.1933 23.8097 31.8646 23.8097 29.0015C23.8097 26.1383 26.1384 23.8096 29.0015 23.8096Z" fill="white"/>
<path d="M38.1397 21.9849C39.3813 21.9849 40.3933 20.975 40.3933 19.7314C40.3933 18.4878 39.3833 17.4779 38.1397 17.4779C36.8961 17.4779 35.8862 18.4878 35.8862 19.7314C35.8862 20.975 36.8961 21.9849 38.1397 21.9849Z" fill="white"/>
</svg>
