<svg width="20" height="20" viewBox="0 0 20 20" fill="none" xmlns="http://www.w3.org/2000/svg">
<mask id="mask0_1909_312" style="mask-type:alpha" maskUnits="userSpaceOnUse" x="0" y="0" width="20" height="20">
<rect width="20" height="20" fill="#D9D9D9"/>
</mask>
<g mask="url(#mask0_1909_312)">
<path d="M3.33341 16.6667C2.87508 16.6667 2.48272 16.5035 2.15633 16.1771C1.82994 15.8507 1.66675 15.4583 1.66675 15V4.99999C1.66675 4.54166 1.82994 4.1493 2.15633 3.82291C2.48272 3.49652 2.87508 3.33333 3.33341 3.33333H8.33341L10.0001 4.99999H16.6667C17.1251 4.99999 17.5174 5.16319 17.8438 5.48958C18.1702 5.81597 18.3334 6.20833 18.3334 6.66666H9.31258L7.64591 4.99999H3.33341V15L5.33341 8.33333H19.5834L17.4376 15.4792C17.3265 15.8403 17.1216 16.1285 16.823 16.3437C16.5244 16.559 16.1945 16.6667 15.8334 16.6667H3.33341ZM5.08341 15H15.8334L17.3334 9.99999H6.58341L5.08341 15Z" fill="#333333"/>
</g>
</svg>
