<svg width="25" height="25" viewBox="0 0 25 25" fill="none" xmlns="http://www.w3.org/2000/svg">
<g clip-path="url(#clip0_2260_1508)">
<g clip-path="url(#clip1_2260_1508)">
<path d="M15.2492 6.36133H4.8881C2.66922 6.36133 0.866211 8.16434 0.866211 10.3832C0.866211 11.7512 1.56389 13.0125 2.68564 13.7485V22.5638C2.68564 23.0809 3.10424 23.5022 3.62408 23.5022H16.516C17.0331 23.5022 17.4544 23.0836 17.4544 22.5638V13.7485C18.5762 13.0125 19.2739 11.7512 19.2739 10.3832C19.2739 8.16434 17.4709 6.36133 15.252 6.36133H15.2492ZM16.1302 12.3394C15.7937 12.4927 15.5776 12.8264 15.5776 13.1931V21.6226H4.55978V13.1931C4.55978 12.8237 4.34364 12.4899 4.00711 12.3394C3.2383 11.992 2.74036 11.2232 2.74036 10.3805C2.74036 9.1958 3.70342 8.23274 4.8881 8.23274H15.2492C16.4339 8.23274 17.397 9.1958 17.397 10.3805C17.397 11.2232 16.899 11.992 16.1302 12.3394Z" fill="white"/>
<path d="M20.1114 1.5H9.7502C7.59972 1.5 5.84596 3.19631 5.73926 5.31943H15.2495C18.043 5.31943 20.3138 7.59029 20.3138 10.3837C20.3138 11.8995 19.6435 13.314 18.4944 14.2715V18.6409H21.3754C21.8925 18.6409 22.3138 18.2196 22.3138 17.7025V8.88714C23.4356 8.15116 24.1332 6.88988 24.1332 5.52189C24.1332 3.30301 22.3302 1.5 20.1114 1.5Z" fill="white"/>
<path d="M6.80644 10.0547C6.43982 10.0547 6.1416 10.3529 6.1416 10.7195C6.1416 11.0862 6.43982 11.3844 6.80644 11.3844C7.17306 11.3844 7.47129 11.0862 7.47129 10.7195C7.47129 10.3529 7.17306 10.0547 6.80644 10.0547Z" fill="white"/>
<path d="M10.5028 11.8281C10.2566 11.8281 10.0596 12.0279 10.0596 12.2714C10.0596 12.5149 10.2593 12.7146 10.5028 12.7146C10.7463 12.7146 10.946 12.5149 10.946 12.2714C10.946 12.0279 10.7463 11.8281 10.5028 11.8281Z" fill="white"/>
<path d="M12.4257 17.3747C12.6719 17.3747 12.8689 17.175 12.8689 16.9315C12.8689 16.688 12.6692 16.4883 12.4257 16.4883C12.1821 16.4883 11.9824 16.688 11.9824 16.9315C11.9824 17.175 12.1821 17.3747 12.4257 17.3747Z" fill="white"/>
<path d="M7.84069 18.9277C7.59719 18.9277 7.39746 19.1275 7.39746 19.371C7.39746 19.6145 7.59719 19.8142 7.84069 19.8142C8.08419 19.8142 8.28392 19.6145 8.28392 19.371C8.28392 19.1275 8.08419 18.9277 7.84069 18.9277Z" fill="white"/>
<path d="M12.7215 18.5391C12.3849 18.5391 12.1113 18.8127 12.1113 19.1492C12.1113 19.4857 12.3849 19.7593 12.7215 19.7593C13.058 19.7593 13.3316 19.4857 13.3316 19.1492C13.3316 18.8127 13.058 18.5391 12.7215 18.5391Z" fill="white"/>
<path d="M8.72916 14.2695C8.11631 14.2695 7.62109 14.7647 7.62109 15.3776C7.62109 15.9905 8.11631 16.4857 8.72916 16.4857C9.34202 16.4857 9.83724 15.9905 9.83724 15.3776C9.83724 14.7647 9.34202 14.2695 8.72916 14.2695Z" fill="white"/>
<path d="M13.312 11.2383C12.9043 11.2383 12.5732 11.5693 12.5732 11.977C12.5732 12.3847 12.9043 12.7157 13.312 12.7157C13.7196 12.7157 14.0507 12.3847 14.0507 11.977C14.0507 11.5693 13.7196 11.2383 13.312 11.2383Z" fill="white"/>
</g>
</g>
<defs>
<clipPath id="clip0_2260_1508">
<rect width="24" height="24" fill="white" transform="translate(0.5 0.5)"/>
</clipPath>
<clipPath id="clip1_2260_1508">
<rect width="23.2668" height="22" fill="white" transform="translate(0.866211 1.5)"/>
</clipPath>
</defs>
</svg>
