<svg width="25" height="25" viewBox="0 0 25 25" fill="none" xmlns="http://www.w3.org/2000/svg">
<g clip-path="url(#clip0_2260_1501)">
<path d="M9.57766 9.17837L1.9382 14.0704C1.79074 14.1661 1.7002 14.3291 1.7002 14.505V16.6807C1.7002 16.854 1.78557 17.0144 1.93044 17.1102C2.01581 17.1671 2.11671 17.1955 2.2176 17.1955C2.28486 17.1955 2.35212 17.1826 2.4168 17.1567L9.58025 14.1687V9.17578L9.57766 9.17837Z" fill="#555555"/>
<path d="M23.0613 14.0704L15.4219 9.17578V14.1687L22.5853 17.1567C22.65 17.1826 22.7173 17.1955 22.7845 17.1955C22.8854 17.1955 22.9837 17.1671 23.0717 17.1102C23.2166 17.0144 23.3019 16.854 23.3019 16.6807V14.505C23.3019 14.3291 23.2114 14.1661 23.0639 14.0704H23.0613Z" fill="#555555"/>
<path d="M16.0248 20.9725L14.0846 19.4591C14.4856 19.0555 14.7339 18.4993 14.7339 17.8862V3.73518C14.7339 2.50376 13.7328 1.5 12.4987 1.5C11.2647 1.5 10.2636 2.50376 10.2636 3.73518V17.8862C10.2636 18.4993 10.5119 19.0555 10.9129 19.4591L8.97264 20.9725C8.84846 21.0708 8.77344 21.2208 8.77344 21.3786V22.9826C8.77344 23.1508 8.85622 23.3086 8.99333 23.4043C9.08129 23.4664 9.18477 23.4974 9.29084 23.4974C9.35034 23.4974 9.40726 23.4871 9.46417 23.4664L12.4987 22.3798L15.5333 23.4664C15.5902 23.4871 15.6497 23.4974 15.7066 23.4974C15.8127 23.4974 15.9162 23.4664 16.0042 23.4043C16.1413 23.3086 16.224 23.1508 16.224 22.9826V21.3786C16.224 21.2208 16.1516 21.0708 16.0248 20.9725ZM13.0446 4.25H11.9555C11.5752 4.25 11.2673 3.94214 11.2673 3.56185C11.2673 3.18156 11.5752 2.87371 11.9555 2.87371H13.0446C13.4249 2.87371 13.7328 3.18156 13.7328 3.56185C13.7328 3.94214 13.4249 4.25 13.0446 4.25Z" fill="#555555"/>
</g>
<defs>
<clipPath id="clip0_2260_1501">
<rect width="21.599" height="22" fill="white" transform="translate(1.7002 1.5)"/>
</clipPath>
</defs>
</svg>
