<svg width="24" height="24" viewBox="0 0 24 24" fill="none" xmlns="http://www.w3.org/2000/svg">
<mask id="mask0_1459_13691" style="mask-type:alpha" maskUnits="userSpaceOnUse" x="0" y="0" width="24" height="24">
<rect width="24" height="24" fill="#D9D9D9"/>
</mask>
<g mask="url(#mask0_1459_13691)">
<path d="M11.3059 14.7575L7.35591 10.8075C7.28708 10.7387 7.23541 10.6657 7.20091 10.5885C7.16658 10.5114 7.14941 10.43 7.14941 10.3445C7.14941 10.1735 7.21166 10.0192 7.33616 9.88155C7.46083 9.74388 7.62175 9.67505 7.81891 9.67505H16.1819C16.3791 9.67505 16.54 9.74388 16.6647 9.88155C16.7892 10.0192 16.8514 10.1735 16.8514 10.3445C16.8514 10.3967 16.7826 10.551 16.6449 10.8075L12.6949 14.7575C12.5927 14.8599 12.4835 14.9324 12.3672 14.975C12.251 15.0179 12.1287 15.0393 12.0004 15.0393C11.8721 15.0393 11.7498 15.0179 11.6337 14.975C11.5173 14.9324 11.4081 14.8599 11.3059 14.7575Z" fill="white"/>
</g>
</svg>
