<svg width="44" height="44" viewBox="0 0 44 44" fill="none" xmlns="http://www.w3.org/2000/svg">
<g clip-path="url(#clip0_1963_409)">
<path d="M44 0H0V44H44V0Z" fill="#FAE100"/>
<path d="M21.9569 8.06885C13.2285 8.06885 6.15332 13.661 6.15332 20.5631C6.15332 25.0541 9.14932 28.9901 13.6493 31.1923C13.3181 32.4248 12.4527 35.6625 12.2796 36.3548C12.0647 37.2142 12.5929 37.2022 12.9421 36.9725C13.2136 36.7904 17.2719 34.0302 19.0236 32.8396C19.9755 32.9798 20.9543 33.0544 21.9569 33.0544C30.6853 33.0544 37.7605 27.4623 37.7605 20.5631C37.7605 13.664 30.6853 8.06885 21.9569 8.06885Z" fill="#371D1E"/>
<path d="M10.9306 18.2624H12.5569C12.5569 18.2624 12.5658 22.7296 12.5569 23.771C12.5569 24.532 14.2488 24.5409 14.2458 23.783L14.2518 18.3221C14.2518 18.3221 14.7979 18.3251 15.8692 18.3251C16.8808 18.3251 16.8808 16.7346 15.8692 16.7346C14.7293 16.7346 10.9216 16.7018 10.9216 16.7018C9.9667 16.7018 9.96968 18.2624 10.9216 18.2624" fill="#FAE100"/>
<mask id="mask0_1963_409" style="mask-type:luminance" maskUnits="userSpaceOnUse" x="10" y="16" width="7" height="9">
<path d="M10.9306 18.2624H12.5569C12.5569 18.2624 12.5658 22.7296 12.5569 23.771C12.5569 24.532 14.2488 24.5409 14.2458 23.783L14.2518 18.3221C14.2518 18.3221 14.7979 18.3251 15.8692 18.3251C16.8808 18.3251 16.8808 16.7346 15.8692 16.7346C14.7293 16.7346 10.9216 16.7018 10.9216 16.7018C9.9667 16.7018 9.96968 18.2624 10.9216 18.2624" fill="white"/>
</mask>
<g mask="url(#mask0_1963_409)">
<path d="M16.8867 16.7018H9.97559V24.5409H16.8867V16.7018Z" fill="#FAE100"/>
</g>
<path d="M18.716 18.5489L19.6202 21.3837H17.7342L18.716 18.5489ZM17.7014 17.221C17.3015 18.1013 15.8543 22.264 15.3768 23.3681C15.0307 24.1649 16.5257 24.8154 16.8718 24.0186L17.1971 22.8817H20.1722C20.1722 22.8817 20.0708 22.9295 20.4647 23.9709C20.7839 24.8154 22.3297 24.2305 22.0104 23.386C21.5538 22.1805 19.9723 17.8357 19.6828 17.221C19.5515 16.9375 19.0741 16.7316 18.6115 16.7316C18.2296 16.7316 17.8566 16.8718 17.6984 17.221" fill="#FAE100"/>
<mask id="mask1_1963_409" style="mask-type:luminance" maskUnits="userSpaceOnUse" x="15" y="16" width="8" height="9">
<path d="M18.716 18.5489L19.6202 21.3837H17.7342L18.716 18.5489ZM17.7014 17.221C17.3015 18.1013 15.8543 22.264 15.3768 23.3681C15.0307 24.1649 16.5257 24.8154 16.8718 24.0186L17.1971 22.8817H20.1722C20.1722 22.8817 20.0708 22.9295 20.4647 23.9709C20.7839 24.8154 22.3297 24.2305 22.0104 23.386C21.5538 22.1805 19.9723 17.8357 19.6828 17.221C19.5515 16.9375 19.0741 16.7316 18.6115 16.7316C18.2296 16.7316 17.8566 16.8718 17.6984 17.221" fill="white"/>
</mask>
<g mask="url(#mask1_1963_409)">
<path d="M22.3328 16.7345H15.0278V24.8213H22.3328V16.7345Z" fill="#FAE100"/>
</g>
<path d="M22.5835 17.4806C22.5835 18.895 22.5925 23.4547 22.5925 23.4547C22.5925 23.4547 22.4612 24.3618 23.24 24.3618C24.0188 24.3618 25.7406 24.3529 26.5046 24.3529C27.2685 24.3529 27.2655 22.7265 26.5016 22.7265C25.7377 22.7265 24.3411 22.7176 24.3411 22.7176C24.3411 22.7176 24.3471 18.5011 24.3441 17.4746C24.3441 16.9792 23.9025 16.7316 23.4638 16.7316C23.0252 16.7316 22.5805 16.9822 22.5835 17.4776" fill="#FAE100"/>
<mask id="mask2_1963_409" style="mask-type:luminance" maskUnits="userSpaceOnUse" x="22" y="16" width="6" height="9">
<path d="M22.5835 17.4806C22.5835 18.895 22.5925 23.4547 22.5925 23.4547C22.5925 23.4547 22.4612 24.3618 23.24 24.3618C24.0188 24.3618 25.7406 24.3529 26.5046 24.3529C27.2685 24.3529 27.2655 22.7265 26.5016 22.7265C25.7377 22.7265 24.3411 22.7176 24.3411 22.7176C24.3411 22.7176 24.3471 18.5011 24.3441 17.4746C24.3441 16.9792 23.9025 16.7316 23.4638 16.7316C23.0252 16.7316 22.5805 16.9822 22.5835 17.4776" fill="white"/>
</mask>
<g mask="url(#mask2_1963_409)">
<path d="M27.2683 16.7345H22.4609V24.3618H27.2683V16.7345Z" fill="#FAE100"/>
</g>
<path d="M27.4711 17.2568C27.489 17.8775 27.4502 23.4875 27.4502 23.9023C27.4502 24.5588 29.1213 24.5558 29.1213 23.9023C29.1213 23.1413 29.1213 21.6941 29.1213 21.6941L29.6107 21.3002L31.7562 24.2246C32.1889 24.7975 33.5526 23.762 33.1199 23.1921L30.8431 20.1931C30.8431 20.1931 32.3888 18.522 32.9976 17.9163C33.3527 17.5641 32.2516 16.4541 31.8964 16.8092C31.5533 17.1493 29.1302 19.5754 29.1302 19.5754C29.1302 19.5754 29.1511 18.0535 29.1302 17.212C29.1213 16.8927 28.7304 16.7375 28.3275 16.7375C27.8978 16.7375 27.4591 16.9136 27.4681 17.2568" fill="#FAE100"/>
<mask id="mask3_1963_409" style="mask-type:luminance" maskUnits="userSpaceOnUse" x="27" y="16" width="7" height="9">
<path d="M27.4711 17.2568C27.489 17.8775 27.4502 23.4875 27.4502 23.9023C27.4502 24.5588 29.1213 24.5558 29.1213 23.9023C29.1213 23.1413 29.1213 21.6941 29.1213 21.6941L29.6107 21.3002L31.7562 24.2246C32.1889 24.7975 33.5526 23.762 33.1199 23.1921L30.8431 20.1931C30.8431 20.1931 32.3888 18.522 32.9976 17.9163C33.3527 17.5641 32.2516 16.4541 31.8964 16.8092C31.5533 17.1493 29.1302 19.5754 29.1302 19.5754C29.1302 19.5754 29.1511 18.0535 29.1302 17.212C29.1213 16.8927 28.7304 16.7375 28.3275 16.7375C27.8978 16.7375 27.4591 16.9136 27.4681 17.2568" fill="white"/>
</mask>
<g mask="url(#mask3_1963_409)">
<path d="M33.5526 16.457H27.4502V24.8005H33.5526V16.457Z" fill="#FAE100"/>
</g>
</g>
<defs>
<clipPath id="clip0_1963_409">
<rect width="44" height="44" fill="white"/>
</clipPath>
</defs>
</svg>
