<svg width="37" height="37" viewBox="0 0 37 37" fill="none" xmlns="http://www.w3.org/2000/svg">
<path d="M25.3571 19.6429H19.6429V25.3571C19.6429 25.9857 19.1286 26.5 18.5 26.5C17.8714 26.5 17.3571 25.9857 17.3571 25.3571V19.6429H11.6429C11.0143 19.6429 10.5 19.1286 10.5 18.5C10.5 17.8714 11.0143 17.3571 11.6429 17.3571H17.3571V11.6429C17.3571 11.0143 17.8714 10.5 18.5 10.5C19.1286 10.5 19.6429 11.0143 19.6429 11.6429V17.3571H25.3571C25.9857 17.3571 26.5 17.8714 26.5 18.5C26.5 19.1286 25.9857 19.6429 25.3571 19.6429Z" fill="white"/>
</svg>
