<svg width="25" height="25" viewBox="0 0 25 25" fill="none" xmlns="http://www.w3.org/2000/svg">
<g clip-path="url(#clip0_2260_1477)">
<path d="M12.5001 6.38672C10.9007 6.38672 9.60693 7.68304 9.60693 9.27988C9.60693 10.8767 10.9033 12.173 12.5001 12.173C14.0969 12.173 15.3933 10.8767 15.3933 9.27988C15.3933 7.68304 14.0969 6.38672 12.5001 6.38672Z" fill="#555555"/>
<path d="M22.3509 2.5H2.64887C2.10895 2.5 1.6709 2.93805 1.6709 3.47797V14.9233C1.6709 15.4632 2.10895 15.9012 2.64887 15.9012H22.3509C22.8908 15.9012 23.3289 15.4632 23.3289 14.9233V3.47797C23.3289 2.93805 22.8908 2.5 22.3509 2.5ZM17.8405 13.9453H7.15925C7.01663 12.0632 5.51147 10.5632 3.62684 10.4307V7.97307C5.51147 7.84063 7.01663 6.34057 7.15925 4.45849H17.838C17.9806 6.34057 19.4857 7.84063 21.3704 7.97307V10.4307C19.4857 10.5632 17.9806 12.0632 17.838 13.9453H17.8405Z" fill="#555555"/>
<path d="M22.3509 17.2832H2.64887C2.10895 17.2832 1.6709 17.7213 1.6709 18.2612C1.6709 18.8011 2.10895 19.2391 2.64887 19.2391H22.3509C22.8908 19.2391 23.3289 18.8011 23.3289 18.2612C23.3289 17.7213 22.8908 17.2832 22.3509 17.2832Z" fill="#555555"/>
<path d="M22.3509 20.5449H2.64887C2.10895 20.5449 1.6709 20.983 1.6709 21.5229C1.6709 22.0628 2.10895 22.5009 2.64887 22.5009H22.3509C22.8908 22.5009 23.3289 22.0628 23.3289 21.5229C23.3289 20.983 22.8908 20.5449 22.3509 20.5449Z" fill="#555555"/>
</g>
<defs>
<clipPath id="clip0_2260_1477">
<rect width="21.658" height="20" fill="white" transform="translate(1.6709 2.5)"/>
</clipPath>
</defs>
</svg>
