<svg width="16" height="16" viewBox="0 0 16 16" fill="none" xmlns="http://www.w3.org/2000/svg">
<mask id="mask0_1974_903" style="mask-type:alpha" maskUnits="userSpaceOnUse" x="0" y="0" width="16" height="16">
<rect width="16" height="16" fill="#D9D9D9"/>
</mask>
<g mask="url(#mask0_1974_903)">
<path d="M2 15.3332C1.81111 15.3332 1.65278 15.2693 1.525 15.1415C1.39722 15.0137 1.33333 14.8554 1.33333 14.6665C1.33333 14.4776 1.39722 14.3193 1.525 14.1915C1.65278 14.0637 1.81111 13.9998 2 13.9998H14C14.1889 13.9998 14.3472 14.0637 14.475 14.1915C14.6028 14.3193 14.6667 14.4776 14.6667 14.6665C14.6667 14.8554 14.6028 15.0137 14.475 15.1415C14.3472 15.2693 14.1889 15.3332 14 15.3332H2ZM3.33333 13.3332C3.14444 13.3332 2.98611 13.2693 2.85833 13.1415C2.73056 13.0137 2.66667 12.8554 2.66667 12.6665V9.33317C2.3 8.73317 2.01667 8.09706 1.81667 7.42484C1.61667 6.75262 1.51667 6.0665 1.51667 5.3665C1.51667 4.68873 1.60278 4.02206 1.775 3.3665C1.94722 2.71095 2.15 2.0665 2.38333 1.43317C2.47222 1.19984 2.61667 1.01373 2.81667 0.874837C3.01667 0.735948 3.23889 0.666504 3.48333 0.666504C3.82778 0.666504 4.12222 0.783171 4.36667 1.0165C4.61111 1.24984 4.71111 1.52762 4.66667 1.84984L4.48333 3.3665C4.41667 3.89984 4.46389 4.40539 4.625 4.88317C4.78611 5.36095 5.02778 5.78039 5.35 6.1415C5.67222 6.50262 6.06111 6.7915 6.51667 7.00817C6.97222 7.22484 7.46667 7.33317 8 7.33317C8.66667 7.33317 9.33611 7.40262 10.0083 7.5415C10.6806 7.68039 11.2667 7.87762 11.7667 8.13317C12.2667 8.38873 12.6528 8.71373 12.925 9.10817C13.1972 9.50262 13.3333 9.98873 13.3333 10.5665V12.6665C13.3333 12.8554 13.2694 13.0137 13.1417 13.1415C13.0139 13.2693 12.8556 13.3332 12.6667 13.3332H3.33333ZM4 11.9998H12V10.5665C12 10.2998 11.9333 10.0637 11.8 9.85817C11.6667 9.65262 11.4778 9.48873 11.2333 9.3665C10.7778 9.14428 10.25 8.97206 9.65 8.84984C9.05 8.72762 8.5 8.6665 8 8.6665C7.26667 8.6665 6.58611 8.5165 5.95833 8.2165C5.33056 7.9165 4.79722 7.51373 4.35833 7.00817C3.91944 6.50262 3.58889 5.91928 3.36667 5.25817C3.14444 4.59706 3.07778 3.91095 3.16667 3.19984C3.05556 3.53317 2.975 3.88873 2.925 4.2665C2.875 4.64428 2.85 5.01095 2.85 5.3665C2.85 6.01095 2.96389 6.63039 3.19167 7.22484C3.41945 7.81928 3.68889 8.39984 4 8.9665V11.9998ZM8 6.6665C7.26667 6.6665 6.63889 6.40539 6.11667 5.88317C5.59444 5.36095 5.33333 4.73317 5.33333 3.99984C5.33333 3.2665 5.59444 2.63873 6.11667 2.1165C6.63889 1.59428 7.26667 1.33317 8 1.33317C8.73333 1.33317 9.36111 1.59428 9.88333 2.1165C10.4056 2.63873 10.6667 3.2665 10.6667 3.99984C10.6667 4.73317 10.4056 5.36095 9.88333 5.88317C9.36111 6.40539 8.73333 6.6665 8 6.6665ZM8 5.33317C8.36667 5.33317 8.68056 5.20262 8.94167 4.9415C9.20278 4.68039 9.33333 4.3665 9.33333 3.99984C9.33333 3.63317 9.20278 3.31928 8.94167 3.05817C8.68056 2.79706 8.36667 2.6665 8 2.6665C7.63333 2.6665 7.31945 2.79706 7.05833 3.05817C6.79722 3.31928 6.66667 3.63317 6.66667 3.99984C6.66667 4.3665 6.79722 4.68039 7.05833 4.9415C7.31945 5.20262 7.63333 5.33317 8 5.33317ZM5.33333 13.3332V12.7165C5.33333 11.9721 5.59167 11.3332 6.10833 10.7998C6.625 10.2665 7.25556 9.99984 8 9.99984H10C10.1889 9.99984 10.3472 10.0637 10.475 10.1915C10.6028 10.3193 10.6667 10.4776 10.6667 10.6665C10.6667 10.8554 10.6028 11.0137 10.475 11.1415C10.3472 11.2693 10.1889 11.3332 10 11.3332H8C7.62222 11.3332 7.30556 11.4693 7.05 11.7415C6.79444 12.0137 6.66667 12.3387 6.66667 12.7165V13.3332H5.33333Z" fill="#BBBBBB"/>
</g>
</svg>
