<svg width="20" height="20" viewBox="0 0 20 20" fill="none" xmlns="http://www.w3.org/2000/svg">
<mask id="mask0_1909_318" style="mask-type:alpha" maskUnits="userSpaceOnUse" x="0" y="0" width="20" height="20">
<rect width="20" height="20" fill="#D9D9D9"/>
</mask>
<g mask="url(#mask0_1909_318)">
<path d="M4.99992 18.3333C4.54159 18.3333 4.14922 18.1701 3.82284 17.8438C3.49645 17.5174 3.33325 17.125 3.33325 16.6667V3.33334C3.33325 2.87501 3.49645 2.48264 3.82284 2.15626C4.14922 1.82987 4.54159 1.66667 4.99992 1.66667H11.6666L16.6666 6.66667V16.6667C16.6666 17.125 16.5034 17.5174 16.177 17.8438C15.8506 18.1701 15.4583 18.3333 14.9999 18.3333H4.99992ZM10.8333 7.5V3.33334H4.99992V16.6667H14.9999V7.5H10.8333Z" fill="#333333" fill-opacity="0.8"/>
</g>
</svg>
