<svg width="40" height="40" viewBox="0 0 40 40" fill="none" xmlns="http://www.w3.org/2000/svg">
<rect x="1" y="1" width="38" height="38" rx="19" stroke="white" stroke-width="2"/>
<path d="M19.0101 20.9915L12.0804 20.9915C11.8211 20.9915 11.5913 20.8914 11.391 20.691C11.1906 20.4907 11.0905 20.2609 11.0905 20.0016C11.0905 19.7423 11.1906 19.5125 11.391 19.3122C11.5913 19.1118 11.8211 19.0116 12.0804 19.0116L19.0101 19.0116L19.0101 12.082C19.0101 11.8227 19.1102 11.5929 19.3106 11.3926C19.5109 11.1922 19.7407 11.092 20 11.092C20.2593 11.092 20.4891 11.1922 20.6894 11.3926C20.8898 11.5929 20.9899 11.8227 20.9899 12.082L20.9899 19.0116L27.9196 19.0116C28.1789 19.0116 28.4087 19.1118 28.609 19.3122C28.8094 19.5125 28.9095 19.7423 28.9095 20.0016C28.9095 20.2609 28.8094 20.4907 28.609 20.691C28.4087 20.8914 28.1789 20.9915 27.9196 20.9915L20.9899 20.9915V27.9212C20.9899 28.1804 20.8898 28.4103 20.6894 28.6106C20.4891 28.811 20.2593 28.9111 20 28.9111C19.7407 28.9111 19.5109 28.811 19.3106 28.6106C19.1102 28.4103 19.0101 28.1804 19.0101 27.9212V20.9915Z" fill="white"/>
</svg>
