<svg width="58" height="58" viewBox="0 0 58 58" fill="none" xmlns="http://www.w3.org/2000/svg">
<path d="M47.261 22.9909C47.0328 20.7881 46.5417 18.3529 44.7342 17.0732C43.3342 16.0807 41.4941 16.0441 39.7762 16.0461C36.1448 16.0461 32.5114 16.0522 28.8801 16.0542C25.3873 16.0583 21.8944 16.0604 18.4016 16.0644C16.9426 16.0644 15.5243 15.9524 14.1691 16.5841C13.0055 17.1261 12.0946 18.1573 11.5465 19.3045C10.7864 20.9002 10.6274 22.7077 10.5357 24.4724C10.3666 27.686 10.3849 30.9078 10.5867 34.1194C10.7354 36.4629 11.1124 39.0529 12.924 40.5466C14.5298 41.8692 16.7958 41.9344 18.8785 41.9364C25.4891 41.9425 32.1018 41.9486 38.7145 41.9527C39.5622 41.9547 40.4466 41.9384 41.3107 41.8447C43.0102 41.6613 44.6302 41.1743 45.7225 39.9149C46.8249 38.6453 47.1082 36.8786 47.2753 35.2055C47.6829 31.1462 47.6788 27.0482 47.261 22.9909ZM25.0571 34.69V23.3088L34.912 28.9984L25.0571 34.69Z" fill="white"/>
</svg>
