<svg width="24" height="24" viewBox="0 0 24 24" fill="none" xmlns="http://www.w3.org/2000/svg">
<mask id="mask0_1943_42788" style="mask-type:alpha" maskUnits="userSpaceOnUse" x="0" y="0" width="24" height="24">
<rect width="24" height="24" fill="#D9D9D9"/>
</mask>
<g mask="url(#mask0_1943_42788)">
<path d="M11.3049 14.7583L7.35494 10.8083C7.2861 10.7394 7.23444 10.6664 7.19994 10.5893C7.1656 10.5121 7.14844 10.4308 7.14844 10.3453C7.14844 10.1743 7.21069 10.0199 7.33519 9.88228C7.45985 9.74461 7.62077 9.67578 7.81794 9.67578H16.1809C16.3781 9.67578 16.539 9.74461 16.6637 9.88228C16.7882 10.0199 16.8504 10.1743 16.8504 10.3453C16.8504 10.3974 16.7816 10.5518 16.6439 10.8083L12.6939 14.7583C12.5918 14.8606 12.4825 14.9331 12.3662 14.9758C12.25 15.0186 12.1278 15.04 11.9994 15.04C11.8711 15.04 11.7489 15.0186 11.6327 14.9758C11.5164 14.9331 11.4071 14.8606 11.3049 14.7583Z" fill="white"/>
</g>
</svg>
