<svg width="40" height="40" viewBox="0 0 40 40" fill="none" xmlns="http://www.w3.org/2000/svg">
<g clip-path="url(#clip0_2230_933)">
<path d="M27.0413 27.8547C28.2327 27.171 29.0363 25.8876 29.0363 24.4163V11.6263C29.0363 9.43932 27.2572 7.66016 25.0702 7.66016H14.927C12.74 7.66016 10.9608 9.43932 10.9608 11.6263V24.4163C10.9608 25.8876 11.7645 27.167 12.9559 27.8547L8.54198 32.2686C8.14616 32.6644 8.14616 33.3041 8.54198 33.7039C8.93779 34.0997 9.58149 34.0997 9.9773 33.7039L11.3167 32.3645H28.6805L30.0199 33.7039C30.4157 34.0997 31.0594 34.0997 31.4552 33.7039C31.851 33.3081 31.851 32.6644 31.4552 32.2686L27.0413 27.8547ZM12.764 18.3951V11.6223C12.764 10.4309 13.7355 9.45931 14.927 9.45931H25.0702C26.2616 9.45931 27.2332 10.4309 27.2332 11.6223V18.3951H12.764ZM26.6455 24.3643C26.6455 25.2479 25.9298 25.9595 25.0502 25.9595C24.1706 25.9595 23.455 25.2439 23.455 24.3643C23.455 23.4847 24.1706 22.769 25.0502 22.769C25.9298 22.769 26.6455 23.4847 26.6455 24.3643ZM16.5462 24.3643C16.5462 25.2479 15.8305 25.9595 14.951 25.9595C14.0714 25.9595 13.3557 25.2439 13.3557 24.3643C13.3557 23.4847 14.0714 22.769 14.951 22.769C15.8305 22.769 16.5462 23.4847 16.5462 24.3643ZM12.9719 30.7093L15.2988 28.3824H24.7064L27.0333 30.7093H12.9719Z" fill="white"/>
</g>
<defs>
<clipPath id="clip0_2230_933">
<rect width="30.0339" height="34" fill="white" transform="translate(4.9834)"/>
</clipPath>
</defs>
</svg>
