<svg width="25" height="24" viewBox="0 0 25 24" fill="none" xmlns="http://www.w3.org/2000/svg">
<mask id="mask0_2260_2710" style="mask-type:alpha" maskUnits="userSpaceOnUse" x="0" y="0" width="25" height="24">
<rect x="0.5" width="24" height="24" fill="#D9D9D9"/>
</mask>
<g mask="url(#mask0_2260_2710)">
<path d="M6.5 20C5.95 20 5.47917 19.8042 5.0875 19.4125C4.69583 19.0208 4.5 18.55 4.5 18V16C4.5 15.7167 4.59583 15.4792 4.7875 15.2875C4.97917 15.0958 5.21667 15 5.5 15C5.78333 15 6.02083 15.0958 6.2125 15.2875C6.40417 15.4792 6.5 15.7167 6.5 16V18H18.5V16C18.5 15.7167 18.5958 15.4792 18.7875 15.2875C18.9792 15.0958 19.2167 15 19.5 15C19.7833 15 20.0208 15.0958 20.2125 15.2875C20.4042 15.4792 20.5 15.7167 20.5 16V18C20.5 18.55 20.3042 19.0208 19.9125 19.4125C19.5208 19.8042 19.05 20 18.5 20H6.5Z" fill="#04359B"/>
<path d="M12.8749 4.06172C12.7582 4.02005 12.6332 3.99922 12.4999 3.99922C12.3666 3.99922 12.2416 4.02005 12.1249 4.06172C12.0082 4.10339 11.8999 4.17422 11.7999 4.27422L8.19989 7.87422C7.99989 8.07422 7.90406 8.30755 7.91239 8.57422C7.92072 8.84088 8.01656 9.07422 8.19989 9.27422C8.39989 9.47422 8.63739 9.57838 8.91239 9.58672C9.18739 9.59505 9.42489 9.49922 9.62489 9.29922L11.4999 7.42422L11.4999 14.5742C11.4999 14.8576 11.5957 15.0951 11.7874 15.2867C11.9791 15.4784 12.2166 15.5742 12.4999 15.5742C12.7832 15.5742 13.0207 15.4784 13.2124 15.2867C13.4041 15.0951 13.4999 14.8576 13.4999 14.5742L13.4999 7.42422L15.3749 9.29922C15.5749 9.49922 15.8124 9.59505 16.0874 9.58672C16.3624 9.57839 16.5999 9.47422 16.7999 9.27422C16.9832 9.07422 17.0791 8.84089 17.0874 8.57422C17.0957 8.30755 16.9999 8.07422 16.7999 7.87422L13.1999 4.27422C13.0999 4.17422 12.9916 4.10339 12.8749 4.06172Z" fill="#04359B"/>
</g>
</svg>
