<svg width="25" height="25" viewBox="0 0 25 25" fill="none" xmlns="http://www.w3.org/2000/svg">
<g clip-path="url(#clip0_2260_1485)">
<path d="M18.0103 1.5C17.1385 1.5 16.4271 2.21143 16.4271 3.08325V4.11289L10.6736 7.12676C10.4174 7.26129 10.257 7.52516 10.257 7.81491V8.31938C10.195 8.30386 10.1329 8.29351 10.0656 8.29351H2.81419C2.38475 8.29351 2.03809 8.64017 2.03809 9.06961V13.1002C2.03809 13.5296 2.38733 13.8763 2.81419 13.8763H3.4506L5.56678 22.8998C5.64956 23.2516 5.96259 23.5 6.32219 23.5H10.2363C10.4692 23.5 10.6891 23.3965 10.8365 23.218C10.984 23.0395 11.0435 22.8041 10.9995 22.5738L10.3709 19.3556H11.3307C11.6489 19.3556 11.936 19.1616 12.0524 18.8666C12.1714 18.5717 12.0964 18.2328 11.8662 18.0155L9.71118 15.9744L9.30243 13.8789H10.0682C10.1329 13.8789 10.1975 13.8685 10.2596 13.853V14.3575C10.2596 14.6472 10.42 14.9111 10.6761 15.0456L16.4297 18.0621V19.0917C16.4297 19.9635 17.1411 20.675 18.0129 20.675C18.8847 20.675 19.5962 19.9635 19.5962 19.0917V3.08325C19.5962 2.21143 18.8847 1.5 18.0129 1.5H18.0103ZM9.29726 21.9452H6.94307L5.04937 13.8763H7.71918L9.29467 21.9452H9.29726ZM11.8144 13.8815V8.28316L16.4297 5.8643V16.3003L11.8144 13.8815Z" fill="#04359B"/>
<path d="M20.543 8.66602V13.5012C21.8779 13.5012 22.9618 12.4198 22.9618 11.0849C22.9618 9.74998 21.8805 8.6686 20.543 8.6686V8.66602Z" fill="#04359B"/>
</g>
<defs>
<clipPath id="clip0_2260_1485">
<rect width="20.9238" height="22" fill="white" transform="translate(2.03809 1.5)"/>
</clipPath>
</defs>
</svg>
