<svg width="25" height="24" viewBox="0 0 25 24" fill="none" xmlns="http://www.w3.org/2000/svg">
<rect x="1.5" y="1" width="22" height="22" rx="11" stroke="#04359B" stroke-width="2"/>
<path d="M11.5078 12.9804L6.4993 12.9789C6.24011 12.9788 6.01034 12.8786 5.80999 12.6782C5.60964 12.4779 5.50943 12.2481 5.50935 11.9889C5.50928 11.7297 5.60935 11.5 5.80958 11.2998C6.0098 11.0996 6.23951 10.9995 6.49871 10.9996L11.5073 11.0011L11.5101 6.93917C11.51 6.67997 11.6103 6.44997 11.8106 6.24974C12.0108 6.04951 12.2408 5.94914 12.5 5.94922C12.7592 5.9493 12.9891 6.04939 13.1894 6.24974C13.3898 6.45009 13.4899 6.67997 13.4899 6.93917L13.4866 11.0017L18.5051 11.0032C18.7643 11.0033 18.9941 11.1035 19.1945 11.3038C19.3948 11.5042 19.495 11.7339 19.4951 11.9931C19.4952 12.2523 19.3951 12.482 19.1949 12.6823C18.9946 12.8825 18.7649 12.9826 18.5057 12.9825L13.4871 12.981L13.4892 18.0106C13.4893 18.2698 13.3892 18.4996 13.189 18.6998C12.9888 18.9 12.7591 19.0001 12.4999 19C12.2407 18.9999 12.0109 18.8997 11.8106 18.6994C11.6102 18.499 11.51 18.2692 11.5099 18.0101L11.5078 12.9804Z" fill="#04359B"/>
</svg>
