<svg width="128" height="56" viewBox="0 0 128 56" fill="none" xmlns="http://www.w3.org/2000/svg">
<path d="M111.485 11.9072L102.711 16.938C101.116 17.8527 100.131 19.5432 100.131 21.3807V31.4504C100.131 33.2798 101.116 34.9784 102.711 35.8935L111.485 40.9236C113.08 41.8387 115.051 41.8387 116.646 40.9236L125.42 35.8935C127.014 34.9784 128 33.288 128 31.4504V21.3807C128 19.5514 127.014 17.8527 125.42 16.938L116.646 11.9072C115.051 10.9925 113.08 10.9925 111.485 11.9072ZM115.364 33.9413C110.106 34.7985 105.628 30.348 106.49 25.1212C107.016 21.9606 109.579 19.4044 112.759 18.8898C118.017 18.0323 122.495 22.4833 121.633 27.71C121.106 30.8706 118.544 33.4269 115.364 33.9413Z" fill="#04819B"/>
<path d="M78.987 25.7009C82.027 24.8598 83.777 21.8462 83.777 18.8817C83.777 14.6758 79.2992 12.046 75.0679 12.046H65.2989C64.3787 12.046 63.631 12.7892 63.631 13.7039V39.1272C63.631 40.0497 64.3869 40.8015 65.3153 40.8015H68.043H77.5656C81.5587 40.8015 85.6831 37.9101 85.7078 32.8715C85.7243 28.6002 82.7418 25.9705 78.987 25.7091V25.7009ZM70.4422 17.1095H74.0655C75.643 17.1095 76.9165 18.3836 76.9165 19.9433C76.9165 21.5114 75.6348 22.7773 74.0655 22.7773H70.4422V17.1013V17.1095ZM75.8402 35.452H70.434V30.0294H75.8402C77.3438 30.0294 78.568 31.2462 78.568 32.7408C78.568 34.2357 77.3438 35.452 75.8402 35.452Z" fill="#04819B"/>
<path d="M95.912 14.9535C95.912 13.0862 94.3907 11.5724 92.5146 11.5724C90.6382 11.5724 89.1172 13.0862 89.1172 14.9535V19.1839C89.1172 21.0512 90.6382 22.5649 92.5146 22.5649C94.3907 22.5649 95.912 21.0512 95.912 19.1839V14.9535Z" fill="#04819B"/>
<path d="M95.912 25.0392C95.912 23.1718 94.3907 21.6581 92.5146 21.6581C90.6382 21.6581 89.1172 23.1718 89.1172 25.0392V37.8778C89.1172 39.7448 90.6382 41.2584 92.5146 41.2584C94.3907 41.2584 95.912 39.7448 95.912 37.8778V25.0392Z" fill="#04819B"/>
<path d="M67.6619 55.5429V46.2326C67.6619 45.3992 68.1959 45.1055 68.9929 45.1055C69.5927 45.1055 70.0939 45.301 70.2172 45.3505V53.1664H75.0647V55.5429H67.6537H67.6619Z" fill="#04819B"/>
<path d="M83.5492 55.5016C83.3027 55.575 81.758 55.7632 79.9258 55.7632C76.8202 55.7632 75.9492 54.5947 75.9492 53.2068C75.9492 51.3361 77.0995 50.6018 79.7122 50.6018C80.3695 50.6018 80.7803 50.6174 81.0761 50.6587C81.0761 49.94 80.542 49.515 79.1946 49.515C77.9211 49.515 77.2967 49.8501 77.1323 49.9731C77.0584 49.8996 76.5819 49.4581 76.5819 48.8945C76.5819 48.0124 77.4857 47.5718 79.3097 47.5718C81.7005 47.5718 83.5656 48.3475 83.5656 50.9038V55.5016H83.5492ZM81.0843 52.3164C80.9035 52.2678 80.5913 52.243 79.8765 52.243C78.6523 52.243 78.3894 52.6845 78.3894 53.1738C78.3894 53.5418 78.5455 54.0237 79.9012 54.0237C80.4352 54.0237 80.9447 53.9907 81.0761 53.9503V52.3247L81.0843 52.3164Z" fill="#04819B"/>
<path d="M85.0127 45.6526C85.0127 44.8604 85.5139 44.575 86.2944 44.575C86.8449 44.575 87.3379 44.7539 87.4611 44.8035V48.6495C87.8309 48.2823 88.5621 47.817 89.7124 47.817C91.7913 47.817 93.4919 49.4417 93.4919 51.908C93.4919 54.3744 91.6679 56 89.2687 56C87.798 56 86.5574 55.4695 85.7769 54.4479C85.2839 53.7952 85.0127 52.848 85.0127 51.5574V45.6526ZM90.9612 51.9163C90.9612 50.8222 90.23 50.0465 89.2029 50.0465C88.1759 50.0465 87.4447 50.8708 87.4447 51.9163C87.4447 53.06 88.1759 53.7457 89.2029 53.7457C90.23 53.7457 90.9612 53.0187 90.9612 51.9163Z" fill="#04819B"/>
<path d="M95.1399 55.5429V46.2326C95.1399 45.3992 95.6738 45.1055 96.4711 45.1055C97.0709 45.1055 97.5719 45.301 97.6953 45.3505V48.9276H101.762V46.2326C101.762 45.3992 102.296 45.1055 103.093 45.1055C103.693 45.1055 104.194 45.301 104.317 45.3505V55.5429H101.762V51.3288H97.6953V55.5429H95.1399Z" fill="#04819B"/>
<path d="M108.699 51.9245C108.699 52.9783 109.175 53.5088 110.136 53.5088C111.098 53.5088 111.575 52.9783 111.575 51.9245V48.8698C111.575 48.0776 112.076 47.7922 112.856 47.7922C113.407 47.7922 113.916 47.9721 114.031 48.0207V52.3899C114.031 54.6443 112.347 55.7715 110.128 55.7715C107.91 55.7715 106.226 54.6443 106.226 52.3899V48.878C106.226 48.0859 106.727 47.8004 107.508 47.8004C108.058 47.8004 108.567 47.9803 108.683 48.029V51.9411L108.699 51.9245Z" fill="#04819B"/>
<path d="M115.499 45.6526C115.499 44.8604 116 44.575 116.78 44.575C117.331 44.575 117.824 44.7539 117.947 44.8035V48.6495C118.316 48.2823 119.048 47.817 120.198 47.817C122.276 47.817 123.978 49.4417 123.978 51.908C123.978 54.3744 122.154 56 119.755 56C118.284 56 117.043 55.4695 116.262 54.4479C115.769 53.7952 115.499 52.848 115.499 51.5574V45.6526ZM121.455 51.9163C121.455 50.8222 120.724 50.0465 119.697 50.0465C118.669 50.0465 117.939 50.8708 117.939 51.9163C117.939 53.06 118.669 53.7457 119.697 53.7457C120.724 53.7457 121.455 53.0187 121.455 51.9163Z" fill="#04819B"/>
<path d="M27.9678 42.2391L0.303998 29.164L0 14.0309L27.2119 12.6833L55.3112 25.9952V40.8917L27.9678 42.2391ZM3.18788 27.3101L28.5594 39.2991L52.3945 38.1233V27.8082L26.6121 15.607L2.96604 16.7831L3.17966 27.3101H3.18788Z" fill="url(#paint0_linear_1943_43560)"/>
<path d="M17.0498 5.56163L26.3012 0L29.0289 37.8201L18.6191 32.8225L17.0498 5.56163Z" fill="url(#paint1_linear_1943_43560)"/>
<path d="M26.9587 23.6103C26.9587 23.6103 34.4602 21.046 34.9942 5.40649L44.8372 10.1351C44.8372 10.1351 42.9475 25.5867 26.9587 23.6103Z" fill="url(#paint2_linear_1943_43560)"/>
<path d="M26.9626 23.6102C26.9626 23.6102 46.9854 24.3206 50.5512 50.1684L36.6905 43.5945C36.6905 43.5945 38.0626 29.2779 26.9543 23.6102H26.9626Z" fill="url(#paint3_linear_1943_43560)"/>
<defs>
<linearGradient id="paint0_linear_1943_43560" x1="18.4535" y1="47.0737" x2="35.033" y2="11.3001" gradientUnits="userSpaceOnUse">
<stop stop-color="#04819B"/>
<stop offset="0.75" stop-color="#90D2CC"/>
<stop offset="1" stop-color="white"/>
</linearGradient>
<linearGradient id="paint1_linear_1943_43560" x1="23.0394" y1="37.1097" x2="23.0394" y2="1.78852" gradientUnits="userSpaceOnUse">
<stop stop-color="#50CDEB"/>
<stop offset="0.09" stop-color="#42BFDD"/>
<stop offset="0.32" stop-color="#27A4C0"/>
<stop offset="0.55" stop-color="#1390AB"/>
<stop offset="0.78" stop-color="#07849F"/>
<stop offset="1" stop-color="#04819B"/>
</linearGradient>
<linearGradient id="paint2_linear_1943_43560" x1="30.5575" y1="28.584" x2="43.4517" y2="0.757228" gradientUnits="userSpaceOnUse">
<stop stop-color="#FF284E"/>
<stop offset="0.15" stop-color="#FF304D"/>
<stop offset="0.4" stop-color="#FF494A"/>
<stop offset="0.72" stop-color="#FF7046"/>
<stop offset="1" stop-color="#FF9A43"/>
</linearGradient>
<linearGradient id="paint3_linear_1943_43560" x1="38.761" y1="49.2542" x2="38.761" y2="17.6075" gradientUnits="userSpaceOnUse">
<stop stop-color="#50CDEB"/>
<stop offset="0.09" stop-color="#42BFDD"/>
<stop offset="0.32" stop-color="#27A4C0"/>
<stop offset="0.55" stop-color="#1390AB"/>
<stop offset="0.78" stop-color="#07849F"/>
<stop offset="1" stop-color="#04819B"/>
</linearGradient>
</defs>
</svg>
