<svg width="141" height="28" viewBox="0 0 141 28" fill="none" xmlns="http://www.w3.org/2000/svg">
<path d="M55.7426 5.95385L51.3554 8.46926C50.5582 8.9266 50.0654 9.77184 50.0654 10.6906V15.7255C50.0654 16.6402 50.5582 17.4894 51.3554 17.947L55.7426 20.4621C56.5399 20.9196 57.5255 20.9196 58.3227 20.4621L62.7099 17.947C63.5072 17.4894 64 16.6442 64 15.7255V10.6906C64 9.77593 63.5072 8.9266 62.7099 8.46926L58.3227 5.95385C57.5255 5.4965 56.5399 5.4965 55.7426 5.95385ZM57.6818 16.9709C55.0528 17.3995 52.8137 15.1742 53.2448 12.5608C53.5081 10.9805 54.7895 9.70245 56.3794 9.44517C59.0085 9.01641 61.2475 11.2419 60.8165 13.8553C60.5531 15.4356 59.2718 16.7137 57.6818 16.9709Z" fill="#04819B"/>
<path d="M39.4936 12.8504C41.0136 12.4298 41.8886 10.9231 41.8886 9.44079C41.8886 7.33784 39.6497 6.02295 37.5341 6.02295H32.6495C32.1894 6.02295 31.8156 6.39456 31.8156 6.85191V19.5636C31.8156 20.0248 32.1935 20.4007 32.6577 20.4007H34.0216H38.7829C40.7795 20.4007 42.8417 18.955 42.854 16.4357C42.8622 14.3001 41.371 12.9852 39.4936 12.8545V12.8504ZM35.2212 8.5547H37.0329C37.8216 8.5547 38.4584 9.19172 38.4584 9.97161C38.4584 10.7556 37.8175 11.3886 37.0329 11.3886H35.2212V8.55061V8.5547ZM37.9202 17.7259H35.2171V15.0146H37.9202C38.672 15.0146 39.2841 15.6231 39.2841 16.3703C39.2841 17.1178 38.672 17.7259 37.9202 17.7259Z" fill="#04819B"/>
<path d="M47.9561 7.47667C47.9561 6.54303 47.1954 5.78613 46.2573 5.78613C45.3191 5.78613 44.5586 6.54303 44.5586 7.47667V9.59188C44.5586 10.5256 45.3191 11.2824 46.2573 11.2824C47.1954 11.2824 47.9561 10.5256 47.9561 9.59188V7.47667Z" fill="#04819B"/>
<path d="M47.9561 12.5196C47.9561 11.586 47.1954 10.8291 46.2573 10.8291C45.3191 10.8291 44.5586 11.586 44.5586 12.5196V18.9389C44.5586 19.8724 45.3191 20.6292 46.2573 20.6292C47.1954 20.6292 47.9561 19.8724 47.9561 18.9389V12.5196Z" fill="#04819B"/>
<path d="M33.831 27.7714V23.1163C33.831 22.6996 34.0981 22.5527 34.4965 22.5527C34.7964 22.5527 35.047 22.6505 35.1087 22.6753V26.5832H37.5324V27.7714H33.8269H33.831Z" fill="#04819B"/>
<path d="M41.7746 27.751C41.6514 27.7877 40.879 27.8818 39.9629 27.8818C38.4101 27.8818 37.9746 27.2976 37.9746 26.6036C37.9746 25.6683 38.5497 25.3011 39.8561 25.3011C40.1847 25.3011 40.3901 25.3089 40.538 25.3296C40.538 24.9702 40.271 24.7577 39.5973 24.7577C38.9605 24.7577 38.6483 24.9252 38.5661 24.9867C38.5292 24.95 38.2909 24.7293 38.2909 24.4475C38.2909 24.0064 38.7428 23.7861 39.6548 23.7861C40.8503 23.7861 41.7828 24.1739 41.7828 25.4521V27.751H41.7746ZM40.5421 26.1584C40.4518 26.1341 40.2957 26.1217 39.9383 26.1217C39.3261 26.1217 39.1947 26.3425 39.1947 26.5871C39.1947 26.7711 39.2728 27.0121 39.9506 27.0121C40.2176 27.0121 40.4723 26.9956 40.538 26.9754V26.1626L40.5421 26.1584Z" fill="#04819B"/>
<path d="M42.5064 22.8264C42.5064 22.4303 42.757 22.2876 43.1472 22.2876C43.4225 22.2876 43.669 22.3771 43.7306 22.4019V24.3249C43.9155 24.1413 44.2811 23.9086 44.8562 23.9086C45.8957 23.9086 46.746 24.7209 46.746 25.9541C46.746 27.1873 45.834 28.0001 44.6344 28.0001C43.899 28.0001 43.2787 27.7349 42.8885 27.2241C42.642 26.8977 42.5064 26.4241 42.5064 25.7788V22.8264ZM45.4806 25.9583C45.4806 25.4112 45.115 25.0234 44.6015 25.0234C44.088 25.0234 43.7224 25.4355 43.7224 25.9583C43.7224 26.5301 44.088 26.873 44.6015 26.873C45.115 26.873 45.4806 26.5095 45.4806 25.9583Z" fill="#04819B"/>
<path d="M47.57 27.7714V23.1163C47.57 22.6996 47.8369 22.5527 48.2356 22.5527C48.5354 22.5527 48.786 22.6505 48.8477 22.6753V24.4638H50.881V23.1163C50.881 22.6996 51.148 22.5527 51.5466 22.5527C51.8465 22.5527 52.097 22.6505 52.1588 22.6753V27.7714H50.881V25.6644H48.8477V27.7714H47.57Z" fill="#04819B"/>
<path d="M54.3497 25.9622C54.3497 26.4891 54.5878 26.7543 55.0683 26.7543C55.5492 26.7543 55.7874 26.4891 55.7874 25.9622V24.4348C55.7874 24.0387 56.0379 23.896 56.4283 23.896C56.7035 23.896 56.9581 23.986 57.0157 24.0103V26.1949C57.0157 27.322 56.1737 27.8856 55.0642 27.8856C53.9551 27.8856 53.1131 27.322 53.1131 26.1949V24.4389C53.1131 24.0429 53.3636 23.9001 53.754 23.9001C54.0292 23.9001 54.2838 23.9901 54.3414 24.0144V25.9704L54.3497 25.9622Z" fill="#04819B"/>
<path d="M57.7494 22.8264C57.7494 22.4303 57.9999 22.2876 58.3903 22.2876C58.6655 22.2876 58.9119 22.3771 58.9736 22.4019V24.3249C59.1583 24.1413 59.524 23.9086 60.0991 23.9086C61.1382 23.9086 61.9889 24.7209 61.9889 25.9541C61.9889 27.1873 61.0769 28.0001 59.8774 28.0001C59.1418 28.0001 58.5215 27.7349 58.1311 27.2241C57.8847 26.8977 57.7494 26.4241 57.7494 25.7788V22.8264ZM60.7277 25.9583C60.7277 25.4112 60.362 25.0234 59.8486 25.0234C59.3348 25.0234 58.9695 25.4355 58.9695 25.9583C58.9695 26.5301 59.3348 26.873 59.8486 26.873C60.362 26.873 60.7277 26.5095 60.7277 25.9583Z" fill="#04819B"/>
<path d="M13.9839 21.1197L0.151999 14.5821L0 7.01558L13.606 6.3418L27.6556 12.9978V20.446L13.9839 21.1197ZM1.59394 13.6552L14.2797 19.6497L26.1973 19.0618V13.9043L13.3061 7.80364L1.48302 8.39169L1.58983 13.6552H1.59394Z" fill="url(#paint0_linear_1974_1154)"/>
<path d="M8.52491 2.78082L13.1506 0L14.5145 18.9101L9.30955 16.4112L8.52491 2.78082Z" fill="url(#paint1_linear_1974_1154)"/>
<path d="M13.4794 11.805C13.4794 11.805 17.2301 10.5229 17.4971 2.70312L22.4186 5.06745C22.4186 5.06745 21.4738 12.7933 13.4794 11.805Z" fill="url(#paint2_linear_1974_1154)"/>
<path d="M13.4812 11.8052C13.4812 11.8052 23.4927 12.1604 25.2756 25.0843L18.3452 21.7973C18.3452 21.7973 19.0313 14.639 13.4771 11.8052H13.4812Z" fill="url(#paint3_linear_1974_1154)"/>
<path d="M85.3906 16.1094H72.3906V14.5469H77.8906V13.6719H74.0156V7.5625H83.875V9.09375H76.0156V9.89062H83.5469V11.3281H76.0156V12.1406H84V13.6719H79.8906V14.5469H85.3906V16.1094ZM78.8906 16.7656C79.9323 16.7604 80.8229 16.849 81.5625 17.0312C82.3021 17.2083 82.8646 17.4714 83.25 17.8203C83.6406 18.1693 83.8385 18.5938 83.8438 19.0938C83.8385 19.8542 83.4062 20.4349 82.5469 20.8359C81.6875 21.237 80.4688 21.4375 78.8906 21.4375C77.2865 21.4375 76.0547 21.237 75.1953 20.8359C74.3359 20.4349 73.9062 19.8542 73.9062 19.0938C73.9062 18.5938 74.099 18.1693 74.4844 17.8203C74.875 17.4714 75.4427 17.2083 76.1875 17.0312C76.9323 16.849 77.8333 16.7604 78.8906 16.7656ZM78.8906 18.2344C77.8646 18.2344 77.1094 18.3047 76.625 18.4453C76.1406 18.5807 75.901 18.7969 75.9062 19.0938C75.901 19.3958 76.138 19.6172 76.6172 19.7578C77.1016 19.8984 77.8594 19.9688 78.8906 19.9688C79.8958 19.9688 80.638 19.8984 81.1172 19.7578C81.5964 19.6172 81.8385 19.3958 81.8438 19.0938C81.8385 18.7969 81.5964 18.5807 81.1172 18.4453C80.638 18.3047 79.8958 18.2344 78.8906 18.2344ZM96.7312 10.6406H98.6531V12.2969H96.7312V15.5469H94.7312V7.21875H96.7312V10.6406ZM89.4031 17.1719H94.7312V16.0938H96.7312V21.2812H87.4187V16.0938H89.4031V17.1719ZM94.7312 19.7188V18.7031H89.4031V19.7188H94.7312ZM93.8875 10.0312H85.45V8.46875H88.6844V7.125H90.6687V8.46875H93.8875V10.0312ZM89.6687 10.4375C90.351 10.4375 90.9578 10.5417 91.4891 10.75C92.0203 10.9583 92.4318 11.2526 92.7234 11.6328C93.0203 12.013 93.1687 12.4531 93.1687 12.9531C93.1687 13.4531 93.0203 13.8932 92.7234 14.2734C92.4318 14.6536 92.0203 14.9479 91.4891 15.1562C90.9578 15.3646 90.351 15.4688 89.6687 15.4688C88.976 15.4688 88.3615 15.3646 87.825 15.1562C87.2937 14.9479 86.8797 14.6536 86.5828 14.2734C86.2859 13.8932 86.1375 13.4531 86.1375 12.9531C86.1375 12.4531 86.2859 12.013 86.5828 11.6328C86.8797 11.2526 87.2937 10.9583 87.825 10.75C88.3615 10.5417 88.976 10.4375 89.6687 10.4375ZM89.6687 11.9062C89.1844 11.8958 88.799 11.9844 88.5125 12.1719C88.226 12.3594 88.0854 12.6198 88.0906 12.9531C88.0854 13.2917 88.226 13.5547 88.5125 13.7422C88.799 13.9245 89.1844 14.0156 89.6687 14.0156C90.1583 14.0156 90.549 13.9245 90.8406 13.7422C91.1323 13.5547 91.2781 13.2917 91.2781 12.9531C91.2781 12.6198 91.1297 12.3594 90.8328 12.1719C90.5411 11.9844 90.1531 11.8958 89.6687 11.9062ZM109.334 9.14062C109.334 9.86979 109.316 10.5547 109.28 11.1953C109.243 11.8307 109.152 12.5365 109.006 13.3125L107.053 13.125C107.251 12.0365 107.36 10.9531 107.381 9.875H102.022V8.25H109.334V9.14062ZM105.803 14.2578C107.418 14.1849 108.819 14.0625 110.006 13.8906L110.116 15.3281C108.808 15.5677 107.446 15.7266 106.03 15.8047C104.613 15.8828 103.053 15.9271 101.35 15.9375L101.178 14.3438C102.308 14.3438 103.189 14.3359 103.819 14.3203V11.5312H105.803V14.2578ZM112.819 11.5469H114.538V13.2188H112.819V17.8594H110.772V7.21875H112.819V11.5469ZM113.256 21.1875H103.272V16.9062H105.272V19.5938H113.256V21.1875ZM126.316 21.4688H124.331V7.21875H126.316V21.4688ZM121.909 13.8906H117.222V16.5C118.336 16.4948 119.376 16.4557 120.339 16.3828C121.308 16.3099 122.3 16.1927 123.316 16.0312L123.487 17.6406C122.383 17.8333 121.284 17.9661 120.191 18.0391C119.097 18.1068 117.847 18.1406 116.441 18.1406H115.159V12.3125H119.878V10.0156H115.144V8.40625H121.909V13.8906ZM132.672 11.0938C132.667 11.8385 132.794 12.5859 133.055 13.3359C133.32 14.0859 133.716 14.7734 134.242 15.3984C134.768 16.0182 135.406 16.5 136.156 16.8438L135.047 18.4062C134.276 18.0521 133.607 17.5391 133.039 16.8672C132.471 16.1901 132.023 15.4089 131.695 14.5234C131.367 15.4974 130.909 16.3542 130.32 17.0938C129.737 17.8333 129.047 18.3906 128.25 18.7656L127.094 17.1875C127.854 16.8333 128.503 16.3307 129.039 15.6797C129.576 15.0234 129.979 14.2969 130.25 13.5C130.526 12.7031 130.667 11.901 130.672 11.0938V10.2188H127.656V8.59375H135.531V10.2188H132.672V11.0938ZM138.641 12.6406H140.734V14.3125H138.641V21.4375H136.641V7.21875H138.641V12.6406Z" fill="#04819B"/>
<defs>
<linearGradient id="paint0_linear_1974_1154" x1="9.22677" y1="23.537" x2="17.5165" y2="5.65022" gradientUnits="userSpaceOnUse">
<stop stop-color="#04819B"/>
<stop offset="0.75" stop-color="#90D2CC"/>
<stop offset="1" stop-color="white"/>
</linearGradient>
<linearGradient id="paint1_linear_1974_1154" x1="11.5197" y1="18.5549" x2="11.5197" y2="0.894263" gradientUnits="userSpaceOnUse">
<stop stop-color="#50CDEB"/>
<stop offset="0.09" stop-color="#42BFDD"/>
<stop offset="0.32" stop-color="#27A4C0"/>
<stop offset="0.55" stop-color="#1390AB"/>
<stop offset="0.78" stop-color="#07849F"/>
<stop offset="1" stop-color="#04819B"/>
</linearGradient>
<linearGradient id="paint2_linear_1974_1154" x1="15.2788" y1="14.2919" x2="21.7259" y2="0.37849" gradientUnits="userSpaceOnUse">
<stop stop-color="#FF284E"/>
<stop offset="0.15" stop-color="#FF304D"/>
<stop offset="0.4" stop-color="#FF494A"/>
<stop offset="0.72" stop-color="#FF7046"/>
<stop offset="1" stop-color="#FF9A43"/>
</linearGradient>
<linearGradient id="paint3_linear_1974_1154" x1="19.3805" y1="24.6272" x2="19.3805" y2="8.80383" gradientUnits="userSpaceOnUse">
<stop stop-color="#50CDEB"/>
<stop offset="0.09" stop-color="#42BFDD"/>
<stop offset="0.32" stop-color="#27A4C0"/>
<stop offset="0.55" stop-color="#1390AB"/>
<stop offset="0.78" stop-color="#07849F"/>
<stop offset="1" stop-color="#04819B"/>
</linearGradient>
</defs>
</svg>
