<svg width="140" height="61" viewBox="0 0 140 61" fill="none" xmlns="http://www.w3.org/2000/svg">
<mask id="mask0_1943_42844" style="mask-type:luminance" maskUnits="userSpaceOnUse" x="0" y="0" width="140" height="61">
<path d="M140 0H0V61H140V0Z" fill="white"/>
</mask>
<g mask="url(#mask0_1943_42844)">
<path d="M121.946 12.9722L112.349 18.453C110.605 19.4495 109.527 21.2912 109.527 23.2931V34.2635C109.527 36.2565 110.605 38.1071 112.349 39.1036L121.946 44.5844C123.69 45.5809 125.846 45.5809 127.59 44.5844L137.187 39.1036C138.931 38.1071 140.009 36.2654 140.009 34.2635V23.2931C140.009 21.3001 138.931 19.4495 137.187 18.453L127.59 12.9722C125.846 11.9757 123.69 11.9757 121.946 12.9722ZM126.188 36.9772C120.437 37.9114 115.539 33.0624 116.482 27.3681C117.058 23.9248 119.861 21.14 123.339 20.5794C129.09 19.6452 133.988 24.4943 133.045 30.1885C132.469 33.6318 129.666 36.4167 126.188 36.9772Z" fill="white"/>
<path d="M86.3958 27.9998C89.7208 27.0834 91.6349 23.8003 91.6349 20.5706C91.6349 15.9885 86.7373 13.1235 82.1093 13.1235H71.4244C70.4179 13.1235 69.6001 13.9332 69.6001 14.9297V42.627C69.6001 43.6324 70.4269 44.451 71.4423 44.451H74.4258H84.8411C89.2086 44.451 93.7197 41.3013 93.7467 35.8117C93.7647 31.1584 90.5026 28.2935 86.3958 28.0087V27.9998ZM77.0499 18.6399H81.0129C82.7383 18.6399 84.1312 20.0279 84.1312 21.7272C84.1312 23.4355 82.7293 24.8146 81.0129 24.8146H77.0499V18.631V18.6399ZM82.954 38.6232H77.0409V32.7154H82.954C84.5985 32.7154 85.9375 34.0411 85.9375 35.6693C85.9375 37.2975 84.5985 38.6232 82.954 38.6232Z" fill="white"/>
<path d="M104.908 16.2909C104.908 14.2566 103.244 12.6074 101.192 12.6074C99.1397 12.6074 97.4761 14.2566 97.4761 16.2909V20.8997C97.4761 22.9341 99.1397 24.5832 101.192 24.5832C103.244 24.5832 104.908 22.9341 104.908 20.8997V16.2909Z" fill="white"/>
<path d="M104.908 27.2791C104.908 25.2447 103.244 23.5956 101.192 23.5956C99.1397 23.5956 97.4761 25.2447 97.4761 27.2791V41.2657C97.4761 43.3 99.1397 44.9491 101.192 44.9491C103.244 44.9491 104.908 43.3 104.908 41.2657V27.2791Z" fill="white"/>
<path d="M74.0036 60.5107V50.3677C74.0036 49.4602 74.5877 49.1399 75.4594 49.1399C76.1154 49.1399 76.6636 49.3534 76.7984 49.4068V57.9215H82.1004V60.5107H73.9946H74.0036Z" fill="white"/>
<path d="M91.3833 60.4661C91.1137 60.5462 89.4242 60.7508 87.4202 60.7508C84.0234 60.7508 83.0708 59.4785 83.0708 57.9659C83.0708 55.9284 84.3289 55.1277 87.1866 55.1277C87.9055 55.1277 88.3548 55.1455 88.6783 55.19C88.6783 54.407 88.0942 53.9443 86.6204 53.9443C85.2275 53.9443 84.5446 54.3091 84.3648 54.4426C84.284 54.3625 83.7628 53.8821 83.7628 53.2681C83.7628 52.3072 84.7513 51.8268 86.7463 51.8268C89.3613 51.8268 91.4012 52.672 91.4012 55.4569V60.4661H91.3833ZM88.6873 56.9961C88.4896 56.9427 88.1481 56.916 87.3663 56.916C86.0273 56.916 85.7398 57.3965 85.7398 57.9303C85.7398 58.3307 85.9105 58.8557 87.3933 58.8557C87.9774 58.8557 88.5346 58.8201 88.6783 58.7756V57.005L88.6873 56.9961Z" fill="white"/>
<path d="M92.9829 49.736C92.9829 48.8729 93.5311 48.5615 94.3848 48.5615C94.9869 48.5615 95.5261 48.7573 95.6609 48.8106V53.0013C96.0653 52.6009 96.8651 52.0938 98.1232 52.0938C100.397 52.0938 102.257 53.8643 102.257 56.5513C102.257 59.2383 100.262 61.0089 97.6379 61.0089C96.0293 61.0089 94.6724 60.4305 93.8187 59.3184C93.2795 58.6066 92.9829 57.5745 92.9829 56.1687V49.736ZM99.4891 56.5602C99.4891 55.368 98.6893 54.5227 97.566 54.5227C96.4427 54.5227 95.6429 55.4214 95.6429 56.5602C95.6429 57.8058 96.4427 58.5532 97.566 58.5532C98.6893 58.5532 99.4891 57.7613 99.4891 56.5602Z" fill="white"/>
<path d="M104.054 60.5107V50.3677C104.054 49.4602 104.638 49.1399 105.51 49.1399C106.166 49.1399 106.714 49.3534 106.849 49.4068V53.3038H111.297V50.3677C111.297 49.4602 111.881 49.1399 112.753 49.1399C113.409 49.1399 113.957 49.3534 114.092 49.4068V60.5107H111.297V55.9196H106.849V60.5107H104.054Z" fill="white"/>
<path d="M118.891 56.5691C118.891 57.7168 119.412 58.2951 120.463 58.2951C121.515 58.2951 122.036 57.7168 122.036 56.5691V53.2415C122.036 52.3784 122.584 52.067 123.438 52.067C124.04 52.067 124.597 52.2628 124.723 52.3161V57.0762C124.723 59.5319 122.881 60.7597 120.454 60.7597C118.028 60.7597 116.186 59.5319 116.186 57.0762V53.2504C116.186 52.3873 116.734 52.0759 117.588 52.0759C118.19 52.0759 118.747 52.2717 118.873 52.325V56.5869L118.891 56.5691Z" fill="white"/>
<path d="M126.332 49.736C126.332 48.8729 126.88 48.5615 127.734 48.5615C128.336 48.5615 128.875 48.7573 129.01 48.8106V53.0013C129.414 52.6009 130.214 52.0938 131.472 52.0938C133.745 52.0938 135.606 53.8643 135.606 56.5513C135.606 59.2383 133.611 61.0089 130.987 61.0089C129.378 61.0089 128.021 60.4305 127.167 59.3184C126.628 58.6066 126.332 57.5745 126.332 56.1687V49.736ZM132.847 56.5602C132.847 55.368 132.047 54.5227 130.924 54.5227C129.8 54.5227 129.001 55.4214 129.001 56.5602C129.001 57.8058 129.8 58.5532 130.924 58.5532C132.047 58.5532 132.847 57.7613 132.847 56.5602Z" fill="white"/>
<path d="M30.3448 46L0.332056 31.8453L0 15.4611L29.5189 14L60 28.408V44.5389L30.3363 46H30.3448ZM3.4653 29.8522L30.9919 42.8329L56.8497 41.5577V30.3927L28.8889 17.184L3.45679 18.4508L3.47382 29.8438L3.4653 29.8522Z" fill="url(#paint0_linear_1943_42844)"/>
<path d="M18.6558 6.05907L28.7745 0L31.758 41.2035L20.3722 35.7583L18.6558 6.05907Z" fill="white"/>
<path d="M29.4937 25.7221C29.4937 25.7221 37.6984 22.9284 38.2825 5.89001L49.0483 11.0416C49.0483 11.0416 46.9814 27.8753 29.4937 25.7221Z" fill="url(#paint1_linear_1943_42844)"/>
<path d="M29.4934 25.7222C29.4934 25.7222 51.3934 26.4962 55.2935 54.6562L40.1334 47.4939C40.1334 47.4939 41.6341 31.8969 29.4844 25.7222H29.4934Z" fill="white"/>
</g>
<defs>
<linearGradient id="paint0_linear_1943_42844" x1="0.00851426" y1="30.0042" x2="60.0085" y2="30.0042" gradientUnits="userSpaceOnUse">
<stop stop-color="white"/>
<stop offset="0.18" stop-color="#CFF1F9"/>
<stop offset="0.37" stop-color="#A2E4F4"/>
<stop offset="0.55" stop-color="#7EDAF0"/>
<stop offset="0.72" stop-color="#64D2ED"/>
<stop offset="0.88" stop-color="#55CEEB"/>
<stop offset="1" stop-color="#50CDEB"/>
</linearGradient>
<linearGradient id="paint1_linear_1943_42844" x1="33.4298" y1="31.1406" x2="47.4415" y2="0.782742" gradientUnits="userSpaceOnUse">
<stop stop-color="#FF284E"/>
<stop offset="0.15" stop-color="#FF304D"/>
<stop offset="0.4" stop-color="#FF494A"/>
<stop offset="0.72" stop-color="#FF7046"/>
<stop offset="1" stop-color="#FF9A43"/>
</linearGradient>
</defs>
</svg>
