<svg width="140" height="61" viewBox="0 0 140 61" fill="none" xmlns="http://www.w3.org/2000/svg">
<mask id="mask0_2128_663" style="mask-type:luminance" maskUnits="userSpaceOnUse" x="0" y="0" width="140" height="61">
<path d="M140 0H0V61H140V0Z" fill="white"/>
</mask>
<g mask="url(#mask0_2128_663)">
<path d="M121.946 12.972L112.349 18.4528C110.605 19.4493 109.527 21.291 109.527 23.2929V34.2633C109.527 36.2563 110.605 38.1069 112.349 39.1034L121.946 44.5842C123.69 45.5807 125.846 45.5807 127.59 44.5842L137.187 39.1034C138.931 38.1069 140.009 36.2652 140.009 34.2633V23.2929C140.009 21.2999 138.931 19.4493 137.187 18.4528L127.59 12.972C125.846 11.9755 123.69 11.9755 121.946 12.972ZM126.188 36.977C120.437 37.9112 115.539 33.0622 116.482 27.3679C117.058 23.9246 119.861 21.1398 123.339 20.5792C129.09 19.645 133.988 24.4941 133.045 30.1883C132.469 33.6316 129.666 36.4165 126.188 36.977Z" fill="#2391A8"/>
<path d="M86.3958 27.9993C89.7208 27.0829 91.6349 23.7998 91.6349 20.5701C91.6349 15.988 86.7373 13.123 82.1093 13.123H71.4244C70.4179 13.123 69.6001 13.9327 69.6001 14.9292V42.6265C69.6001 43.6319 70.4269 44.4505 71.4423 44.4505H74.4258H84.8411C89.2086 44.4505 93.7197 41.3008 93.7467 35.8112C93.7647 31.1579 90.5026 28.293 86.3958 28.0082V27.9993ZM77.0499 18.6394H81.0129C82.7383 18.6394 84.1312 20.0274 84.1312 21.7267C84.1312 23.435 82.7293 24.8141 81.0129 24.8141H77.0499V18.6305V18.6394ZM82.954 38.6227H77.0409V32.7149H82.954C84.5985 32.7149 85.9375 34.0406 85.9375 35.6688C85.9375 37.297 84.5985 38.6227 82.954 38.6227Z" fill="#2391A8"/>
<path d="M104.908 16.2909C104.908 14.2566 103.244 12.6074 101.192 12.6074C99.1397 12.6074 97.4761 14.2566 97.4761 16.2909V20.8997C97.4761 22.9341 99.1397 24.5832 101.192 24.5832C103.244 24.5832 104.908 22.9341 104.908 20.8997V16.2909Z" fill="#2391A8"/>
<path d="M104.908 27.2792C104.908 25.2448 103.244 23.5957 101.192 23.5957C99.1397 23.5957 97.4761 25.2448 97.4761 27.2792V41.2658C97.4761 43.3001 99.1397 44.9492 101.192 44.9492C103.244 44.9492 104.908 43.3001 104.908 41.2658V27.2792Z" fill="#2391A8"/>
<path d="M74.0036 60.5104V50.3674C74.0036 49.4599 74.5877 49.1396 75.4594 49.1396C76.1154 49.1396 76.6636 49.3531 76.7984 49.4065V57.9212H82.1004V60.5104H73.9946H74.0036Z" fill="#2391A8"/>
<path d="M91.3833 60.4664C91.1137 60.5465 89.4242 60.7511 87.4202 60.7511C84.0234 60.7511 83.0708 59.4788 83.0708 57.9662C83.0708 55.9287 84.3289 55.128 87.1866 55.128C87.9055 55.128 88.3548 55.1458 88.6783 55.1903C88.6783 54.4073 88.0942 53.9446 86.6204 53.9446C85.2275 53.9446 84.5446 54.3094 84.3648 54.4429C84.284 54.3628 83.7628 53.8824 83.7628 53.2684C83.7628 52.3075 84.7513 51.8271 86.7463 51.8271C89.3613 51.8271 91.4012 52.6723 91.4012 55.4572V60.4664H91.3833ZM88.6873 56.9964C88.4896 56.943 88.1481 56.9163 87.3663 56.9163C86.0273 56.9163 85.7398 57.3968 85.7398 57.9306C85.7398 58.331 85.9105 58.856 87.3933 58.856C87.9774 58.856 88.5346 58.8204 88.6783 58.7759V57.0053L88.6873 56.9964Z" fill="#2391A8"/>
<path d="M92.9829 49.736C92.9829 48.8729 93.5311 48.5615 94.3848 48.5615C94.9869 48.5615 95.5261 48.7573 95.6609 48.8106V53.0013C96.0653 52.6009 96.8651 52.0938 98.1232 52.0938C100.397 52.0938 102.257 53.8643 102.257 56.5513C102.257 59.2383 100.262 61.0089 97.6379 61.0089C96.0293 61.0089 94.6724 60.4305 93.8187 59.3184C93.2795 58.6066 92.9829 57.5745 92.9829 56.1687V49.736ZM99.4891 56.5602C99.4891 55.368 98.6893 54.5227 97.566 54.5227C96.4427 54.5227 95.6429 55.4214 95.6429 56.5602C95.6429 57.8058 96.4427 58.5532 97.566 58.5532C98.6893 58.5532 99.4891 57.7613 99.4891 56.5602Z" fill="#2391A8"/>
<path d="M104.054 60.5104V50.3674C104.054 49.4599 104.638 49.1396 105.51 49.1396C106.166 49.1396 106.714 49.3531 106.849 49.4065V53.3035H111.297V50.3674C111.297 49.4599 111.881 49.1396 112.753 49.1396C113.409 49.1396 113.957 49.3531 114.092 49.4065V60.5104H111.297V55.9193H106.849V60.5104H104.054Z" fill="#2391A8"/>
<path d="M118.891 56.5695C118.891 57.7172 119.412 58.2955 120.463 58.2955C121.515 58.2955 122.036 57.7172 122.036 56.5695V53.2419C122.036 52.3788 122.584 52.0674 123.438 52.0674C124.04 52.0674 124.597 52.2632 124.723 52.3165V57.0766C124.723 59.5323 122.881 60.7601 120.454 60.7601C118.028 60.7601 116.186 59.5323 116.186 57.0766V53.2508C116.186 52.3877 116.734 52.0763 117.588 52.0763C118.19 52.0763 118.747 52.2721 118.873 52.3254V56.5873L118.891 56.5695Z" fill="#2391A8"/>
<path d="M126.332 49.736C126.332 48.8729 126.88 48.5615 127.734 48.5615C128.336 48.5615 128.875 48.7573 129.01 48.8106V53.0013C129.414 52.6009 130.214 52.0938 131.472 52.0938C133.745 52.0938 135.606 53.8643 135.606 56.5513C135.606 59.2383 133.611 61.0089 130.987 61.0089C129.378 61.0089 128.021 60.4305 127.167 59.3184C126.628 58.6066 126.332 57.5745 126.332 56.1687V49.736ZM132.847 56.5602C132.847 55.368 132.047 54.5227 130.924 54.5227C129.8 54.5227 129.001 55.4214 129.001 56.5602C129.001 57.8058 129.8 58.5532 130.924 58.5532C132.047 58.5532 132.847 57.7613 132.847 56.5602Z" fill="#2391A8"/>
<path d="M30.3448 46L0.332056 31.8453L0 15.4611L29.5189 14L60 28.408V44.5389L30.3363 46H30.3448ZM3.4653 29.8522L30.9919 42.8329L56.8497 41.5577V30.3927L28.8889 17.184L3.45679 18.4508L3.47382 29.8438L3.4653 29.8522Z" fill="url(#paint0_linear_2128_663)"/>
<path d="M18.6558 6.05907L28.7745 0L31.758 41.2035L20.3722 35.7583L18.6558 6.05907Z" fill="#2391A8"/>
<path d="M29.4937 25.7217C29.4937 25.7217 37.6984 22.928 38.2825 5.88965L49.0483 11.0412C49.0483 11.0412 46.9814 27.8749 29.4937 25.7217Z" fill="url(#paint1_linear_2128_663)"/>
<path d="M29.4934 25.7227C29.4934 25.7227 51.3934 26.4967 55.2935 54.6567L40.1334 47.4944C40.1334 47.4944 41.6341 31.8974 29.4844 25.7227H29.4934Z" fill="#2391A8"/>
</g>
<defs>
<linearGradient id="paint0_linear_2128_663" x1="0.00851426" y1="30.0042" x2="60.0085" y2="30.0042" gradientUnits="userSpaceOnUse">
<stop stop-color="white"/>
<stop offset="0.18" stop-color="#CFF1F9"/>
<stop offset="0.37" stop-color="#A2E4F4"/>
<stop offset="0.55" stop-color="#7EDAF0"/>
<stop offset="0.72" stop-color="#64D2ED"/>
<stop offset="0.88" stop-color="#55CEEB"/>
<stop offset="1" stop-color="#50CDEB"/>
</linearGradient>
<linearGradient id="paint1_linear_2128_663" x1="33.4298" y1="31.1402" x2="47.4415" y2="0.782376" gradientUnits="userSpaceOnUse">
<stop stop-color="#FF284E"/>
<stop offset="0.15" stop-color="#FF304D"/>
<stop offset="0.4" stop-color="#FF494A"/>
<stop offset="0.72" stop-color="#FF7046"/>
<stop offset="1" stop-color="#FF9A43"/>
</linearGradient>
</defs>
</svg>
