<svg width="78" height="34" viewBox="0 0 78 34" fill="none" xmlns="http://www.w3.org/2000/svg">
<path d="M67.8644 7.22939L62.5232 10.2838C61.5526 10.8392 60.9526 11.8655 60.9526 12.9812V19.0949C60.9526 20.2056 61.5526 21.2369 62.5232 21.7925L67.8644 24.8465C68.8351 25.4021 70.035 25.4021 71.0056 24.8465L76.3469 21.7925C77.3175 21.2369 77.9174 20.2106 77.9174 19.0949V12.9812C77.9174 11.8705 77.3175 10.8392 76.3469 10.2838L71.0056 7.22939C70.035 6.67405 68.8351 6.67405 67.8644 7.22939ZM70.2253 20.6073C67.0246 21.1277 64.2986 18.4256 64.8234 15.2522C65.144 13.3332 66.704 11.7813 68.6397 11.4688C71.8405 10.9482 74.5664 13.6506 74.0416 16.8239C73.721 18.7429 72.161 20.2949 70.2253 20.6073Z" fill="#04819B"/>
<path d="M48.0819 15.6042C49.9324 15.0935 50.9977 13.2638 50.9977 11.4639C50.9977 8.91035 48.272 7.3137 45.6962 7.3137H39.7495C39.1894 7.3137 38.7342 7.76494 38.7342 8.32029V23.7558C38.7342 24.3159 39.1944 24.7723 39.7595 24.7723H41.42H47.2166C49.6474 24.7723 52.158 23.0169 52.173 19.9577C52.1831 17.3645 50.3675 15.7679 48.0819 15.6091V15.6042ZM42.8804 10.388H45.086C46.0463 10.388 46.8215 11.1615 46.8215 12.1085C46.8215 13.0605 46.0413 13.8291 45.086 13.8291H42.8804V10.383V10.388ZM46.1663 21.5244H42.8754V18.2322H46.1663C47.0816 18.2322 47.8268 18.971 47.8268 19.8784C47.8268 20.786 47.0816 21.5244 46.1663 21.5244Z" fill="#04819B"/>
<path d="M58.3846 9.07891C58.3846 7.9452 57.4585 7.02611 56.3165 7.02611C55.1742 7.02611 54.2484 7.9452 54.2484 9.07891V11.6474C54.2484 12.7811 55.1742 13.7002 56.3165 13.7002C57.4585 13.7002 58.3846 12.7811 58.3846 11.6474V9.07891Z" fill="#04819B"/>
<path d="M58.3846 15.2025C58.3846 14.0687 57.4585 13.1497 56.3165 13.1497C55.1742 13.1497 54.2484 14.0687 54.2484 15.2025V22.9973C54.2484 24.1308 55.1742 25.0498 56.3165 25.0498C57.4585 25.0498 58.3846 24.1308 58.3846 22.9973V15.2025Z" fill="#04819B"/>
<path d="M41.1879 33.7224V28.0698C41.1879 27.5637 41.513 27.3854 41.9982 27.3854C42.3633 27.3854 42.6684 27.5041 42.7434 27.5342V32.2796H45.6942V33.7224H41.1829H41.1879Z" fill="#04819B"/>
<path d="M50.8589 33.6974C50.7089 33.742 49.7686 33.8562 48.6532 33.8562C46.7627 33.8562 46.2326 33.1468 46.2326 32.3042C46.2326 31.1684 46.9328 30.7226 48.5232 30.7226C48.9233 30.7226 49.1734 30.732 49.3534 30.7571C49.3534 30.3207 49.0284 30.0627 48.2081 30.0627C47.4329 30.0627 47.0528 30.2661 46.9528 30.3408C46.9078 30.2962 46.6177 30.0282 46.6177 29.686C46.6177 29.1504 47.1679 28.8829 48.2782 28.8829C49.7336 28.8829 50.8689 29.3538 50.8689 30.9059V33.6974H50.8589ZM49.3585 31.7636C49.2484 31.734 49.0584 31.719 48.6232 31.719C47.878 31.719 47.718 31.9871 47.718 32.2841C47.718 32.5076 47.813 32.8002 48.6383 32.8002C48.9634 32.8002 49.2735 32.7801 49.3534 32.7556V31.7686L49.3585 31.7636Z" fill="#04819B"/>
<path d="M51.7498 27.7176C51.7498 27.2366 52.0549 27.0633 52.5301 27.0633C52.8652 27.0633 53.1652 27.172 53.2403 27.2021V29.5372C53.4653 29.3142 53.9105 29.0317 54.6107 29.0317C55.8762 29.0317 56.9113 30.0181 56.9113 31.5156C56.9113 33.013 55.801 34 54.3406 34C53.4453 34 52.6901 33.6779 52.215 33.0576C51.9149 32.6614 51.7498 32.0862 51.7498 31.3027V27.7176ZM55.3709 31.5206C55.3709 30.8563 54.9257 30.3854 54.3006 30.3854C53.6754 30.3854 53.2303 30.8858 53.2303 31.5206C53.2303 32.215 53.6754 32.6313 54.3006 32.6313C54.9257 32.6313 55.3709 32.1899 55.3709 31.5206Z" fill="#04819B"/>
<path d="M57.9145 33.7224V28.0698C57.9145 27.5637 58.2396 27.3854 58.7249 27.3854C59.09 27.3854 59.395 27.5041 59.4701 27.5342V29.706H61.9456V28.0698C61.9456 27.5637 62.2707 27.3854 62.756 27.3854C63.1211 27.3854 63.4261 27.5041 63.5012 27.5342V33.7224H61.9456V31.1639H59.4701V33.7224H57.9145Z" fill="#04819B"/>
<path d="M66.1685 31.5256C66.1685 32.1654 66.4585 32.4875 67.0434 32.4875C67.6289 32.4875 67.9189 32.1654 67.9189 31.5256V29.671C67.9189 29.19 68.2239 29.0167 68.6992 29.0167C69.0342 29.0167 69.3442 29.1259 69.4144 29.1555V31.8082C69.4144 33.1769 68.3892 33.8613 67.0384 33.8613C65.6882 33.8613 64.6631 33.1769 64.6631 31.8082V29.676C64.6631 29.195 64.9681 29.0217 65.4434 29.0217C65.7784 29.0217 66.0884 29.1309 66.1585 29.1605V31.5357L66.1685 31.5256Z" fill="#04819B"/>
<path d="M70.3076 27.7176C70.3076 27.2366 70.6126 27.0633 71.0879 27.0633C71.4229 27.0633 71.7229 27.172 71.798 27.2021V29.5372C72.0229 29.3142 72.4681 29.0317 73.1683 29.0317C74.4333 29.0317 75.4691 30.0181 75.4691 31.5156C75.4691 33.013 74.3587 34 72.8984 34C72.0029 34 71.2476 33.6779 70.7723 33.0576C70.4723 32.6614 70.3076 32.0862 70.3076 31.3027V27.7176ZM73.9335 31.5206C73.9335 30.8563 73.4883 30.3854 72.8633 30.3854C72.2377 30.3854 71.793 30.8858 71.793 31.5206C71.793 32.215 72.2377 32.6313 72.8633 32.6313C73.4883 32.6313 73.9335 32.1899 73.9335 31.5206Z" fill="#04819B"/>
<path d="M17.0249 25.6452L0.185053 17.7067L0 8.51872L16.5647 7.70055L33.6696 15.7828V24.8271L17.0249 25.6452ZM1.94056 16.5811L17.385 23.8601L31.8941 23.1463V16.8835L16.1996 9.47565L1.80552 10.1897L1.93556 16.5811H1.94056Z" fill="url(#paint0_linear_1909_880)"/>
<path d="M10.3787 3.37672L16.0103 2.09808e-05L17.6708 22.9622L11.334 19.9279L10.3787 3.37672Z" fill="url(#paint1_linear_1909_880)"/>
<path d="M16.4106 14.3349C16.4106 14.3349 20.977 12.778 21.3021 3.28255L27.2938 6.15351C27.2938 6.15351 26.1435 15.5348 16.4106 14.3349Z" fill="url(#paint2_linear_1909_880)"/>
<path d="M16.4129 14.3348C16.4129 14.3348 28.6014 14.7661 30.772 30.4594L22.3346 26.4681C22.3346 26.4681 23.1698 17.7759 16.4079 14.3348H16.4129Z" fill="url(#paint3_linear_1909_880)"/>
<defs>
<linearGradient id="paint0_linear_1909_880" x1="11.2332" y1="28.5804" x2="21.2824" y2="6.84075" gradientUnits="userSpaceOnUse">
<stop stop-color="#04819B"/>
<stop offset="0.75" stop-color="#90D2CC"/>
<stop offset="1" stop-color="white"/>
</linearGradient>
<linearGradient id="paint1_linear_1909_880" x1="14.0248" y1="22.5309" x2="14.0248" y2="1.08591" gradientUnits="userSpaceOnUse">
<stop stop-color="#50CDEB"/>
<stop offset="0.09" stop-color="#42BFDD"/>
<stop offset="0.32" stop-color="#27A4C0"/>
<stop offset="0.55" stop-color="#1390AB"/>
<stop offset="0.78" stop-color="#07849F"/>
<stop offset="1" stop-color="#04819B"/>
</linearGradient>
<linearGradient id="paint2_linear_1909_880" x1="18.6013" y1="17.3546" x2="26.4167" y2="0.444204" gradientUnits="userSpaceOnUse">
<stop stop-color="#FF284E"/>
<stop offset="0.15" stop-color="#FF304D"/>
<stop offset="0.4" stop-color="#FF494A"/>
<stop offset="0.72" stop-color="#FF7046"/>
<stop offset="1" stop-color="#FF9A43"/>
</linearGradient>
<linearGradient id="paint3_linear_1909_880" x1="23.595" y1="29.9044" x2="23.595" y2="10.6903" gradientUnits="userSpaceOnUse">
<stop stop-color="#50CDEB"/>
<stop offset="0.09" stop-color="#42BFDD"/>
<stop offset="0.32" stop-color="#27A4C0"/>
<stop offset="0.55" stop-color="#1390AB"/>
<stop offset="0.78" stop-color="#07849F"/>
<stop offset="1" stop-color="#04819B"/>
</linearGradient>
</defs>
</svg>
