<svg width="140" height="51" viewBox="0 0 140 51" fill="none" xmlns="http://www.w3.org/2000/svg">
<path d="M9.29508 15.4344C9.43153 15.9359 9.43153 16.4658 9.29508 16.9673C9.19845 17.4071 8.94275 17.7935 8.57901 18.0495C8.21527 18.3054 7.77025 18.4121 7.33279 18.3481C7.07615 18.3804 6.8157 18.3556 6.56937 18.2754C6.32304 18.1952 6.09666 18.0616 5.90582 17.8836C5.71498 17.7057 5.56421 17.4877 5.46387 17.2447C5.36353 17.0017 5.31602 16.7394 5.32459 16.4759V14.4866H0V16.078C0 20.6651 3.51148 22.0459 7.27541 22.0459C11.0393 22.0459 13.8623 20.7821 14.3443 17.3652C14.5231 16.2492 14.5231 15.1111 14.3443 13.9951C13.4951 9.67724 5.89836 8.40176 5.32459 5.99123C5.25559 5.63189 5.25559 5.26232 5.32459 4.90298C5.3952 4.47803 5.62498 4.09769 5.96542 3.84225C6.30585 3.5868 6.73031 3.47623 7.14918 3.53389C7.39532 3.50937 7.64374 3.53997 7.87708 3.62354C8.11042 3.70711 8.32305 3.84164 8.5001 4.01772C8.67715 4.1938 8.81435 4.40719 8.90211 4.64296C8.98987 4.87874 9.02608 5.13121 9.00819 5.38274V6.65822H14V5.18382C14 0.713799 10.0869 0 7.25246 0C3.69508 0 0.791803 1.17016 0.252459 4.58703C0.0811223 5.51622 0.0928249 6.47089 0.286885 7.39542C1.14754 11.608 8.31967 12.825 9.29508 15.4812" fill="#23398C"/>
<path d="M74.3377 15.399C74.4799 15.8878 74.4799 16.4081 74.3377 16.8968C74.2487 17.3353 73.9977 17.7221 73.6366 17.977C73.2756 18.2319 72.8322 18.3353 72.3984 18.2659C72.1457 18.298 71.8893 18.2741 71.6466 18.1958C71.4038 18.1175 71.1806 17.9866 70.9921 17.8122C70.8035 17.6377 70.6542 17.4238 70.5543 17.185C70.4543 16.9462 70.4062 16.6883 70.4131 16.4288V14.4161H65.1459V15.9724C65.1459 20.5126 68.5885 21.8934 72.3525 21.8934C76.1164 21.8934 78.8705 20.6413 79.3525 17.2128C79.5359 16.109 79.5359 14.9816 79.3525 13.8778C78.5262 9.60672 71.0098 8.33124 70.4361 5.94411C70.3558 5.59387 70.3558 5.22949 70.4361 4.87926C70.504 4.45756 70.7298 4.0792 71.0658 3.82383C71.4019 3.56846 71.822 3.45602 72.2377 3.51017C72.4825 3.48722 72.7292 3.51909 72.9606 3.60355C73.192 3.68801 73.4025 3.82303 73.5774 3.99914C73.7523 4.17525 73.8874 4.3882 73.9731 4.6231C74.0588 4.858 74.0932 5.10917 74.0738 5.35903V6.6111H79.0082V5.25371C79.0082 0.818796 75.141 0.116699 72.3295 0.116699C68.8869 0.116699 65.9377 1.28686 65.4443 4.64523C65.2675 5.55194 65.2558 6.48409 65.4098 7.39511C66.2705 11.5609 73.3164 12.7545 74.3262 15.399" fill="#23398C"/>
<path d="M115.856 17.225L115.58 0.655518H120.526V21.0163H113.412L108.351 3.92027L108.638 21.0163H103.703V0.655518H111.139L115.856 17.225Z" fill="#23398C"/>
<path d="M25.9229 2.18843L23.1229 21.227H17.718L21.436 0.655518H30.3295L34.0131 21.227H28.6311L25.9229 2.18843Z" fill="#23398C"/>
<path d="M55.1164 2.18843L51.6623 21.227H46.5787L43.1475 2.18843L43.0098 21.227H38.0066L38.4541 0.655518H46.6131L49.1377 16.7452L51.6623 0.655518H59.8098L60.2459 21.227H55.2426L55.1164 2.18843Z" fill="#23398C"/>
<path d="M91.1377 18.1612C91.5815 18.1959 92.0224 18.064 92.3775 17.7902C92.7325 17.5165 92.9772 17.1199 93.0655 16.6751C93.0833 16.414 93.0833 16.1521 93.0655 15.891V0.678936H98.1262V15.423C98.1262 15.8091 98.1262 16.5931 98.1262 16.7804C97.7819 20.6185 94.8327 21.8589 91.1491 21.8589C87.4655 21.8589 84.5049 20.6068 84.1606 16.757C84.1606 16.558 84.0918 15.7857 84.1606 15.3996V0.667236H89.2327V15.8793C89.2092 16.1401 89.2092 16.4026 89.2327 16.6634C89.3162 17.1085 89.558 17.5064 89.9118 17.7807C90.2655 18.0551 90.7062 18.1864 91.1491 18.1495" fill="#23398C"/>
<path d="M132.874 17.927C133.337 17.9815 133.804 17.8584 134.184 17.5816C134.563 17.3048 134.828 16.8941 134.928 16.4292C134.946 16.1682 134.946 15.9062 134.928 15.6452V12.6847H132.862V9.7359H140V15.2591C140 15.6335 140 15.9144 139.931 16.6048C139.598 20.3493 136.489 21.6833 132.897 21.6833C129.305 21.6833 126.229 20.2674 125.851 16.5579C125.828 16.1097 125.828 15.6605 125.851 15.2123V6.54136C125.851 6.17861 125.851 5.53502 125.931 5.18397C126.379 1.33414 129.374 0.105469 132.954 0.105469C136.534 0.105469 139.598 1.27563 139.989 5.18397C139.989 5.85096 139.989 6.54136 139.989 6.54136V7.23176H134.951V6.06159C134.951 6.06159 134.951 5.57013 134.882 5.26588C134.748 4.8346 134.483 4.45803 134.125 4.19077C133.767 3.92351 133.335 3.77943 132.891 3.77943C132.447 3.77943 132.015 3.92351 131.657 4.19077C131.299 4.45803 131.034 4.8346 130.9 5.26588C130.838 5.58159 130.811 5.9035 130.82 6.22542V15.5867C130.796 15.8475 130.796 16.11 130.82 16.3707C130.907 16.8464 131.166 17.2711 131.547 17.5597C131.928 17.8483 132.402 17.9795 132.874 17.927Z" fill="#23398C"/>
<path d="M1.0672 50.3172V32.3318H7.04589C9.59343 32.3318 10.4885 33.186 11.1426 34.1806C11.5874 34.8801 11.841 35.6881 11.877 36.521C11.877 38.756 11.0967 40.2538 8.73277 40.7804V40.9091C9.26651 40.9106 9.79394 41.0268 10.2807 41.2501C10.7674 41.4734 11.2025 41.7989 11.5577 42.2052C11.9128 42.6115 12.18 43.0895 12.3418 43.6082C12.5036 44.1268 12.5564 44.6744 12.4967 45.2153C12.4967 49.8257 9.05408 50.2704 6.97703 50.2704L1.0672 50.3172ZM3.36228 39.9027H6.8049C7.16507 39.8974 7.52067 39.8197 7.8514 39.6742C8.18213 39.5287 8.48152 39.3181 8.73247 39.0546C8.98341 38.7911 9.18101 38.4798 9.31396 38.1385C9.44692 37.7971 9.51264 37.4324 9.50736 37.0651C9.50209 36.6978 9.42592 36.3352 9.28322 35.998C9.14052 35.6607 8.93407 35.3554 8.67567 35.0995C8.41726 34.8436 8.11196 34.6422 7.77719 34.5066C7.44242 34.371 7.08474 34.304 6.72458 34.3094H3.44261L3.36228 39.9027ZM3.44261 48.3513H6.72458C7.15 48.3991 7.58052 48.3547 7.98799 48.2212C8.39545 48.0876 8.77068 47.8678 9.08913 47.5762C9.40758 47.2847 9.66208 46.9278 9.83599 46.529C10.0099 46.1302 10.0993 45.6985 10.0983 45.2621C10.0983 42.3952 8.29671 41.9037 5.89835 41.9037H3.44261V48.3513Z" fill="#231F20"/>
<path d="M19.0262 32.3318H16.6852V50.3172H19.0262V32.3318Z" fill="#231F20"/>
<path d="M23.3754 43.7406V37.8196C23.3754 34.2272 25.2574 31.9688 29.1131 31.9688C32.9688 31.9688 34.8508 34.3091 34.8508 37.8196V43.6704C34.8508 48.6553 32.9574 50.6211 29.1131 50.6211C25.2688 50.6211 23.3754 48.6553 23.3754 43.6704M32.5557 43.7757V37.8196C32.5557 34.0633 29.9164 33.9346 29.1131 33.9346C28.3098 33.9346 25.7393 34.0633 25.7393 37.8196V43.9044C25.7393 47.8361 26.8869 48.8308 29.1131 48.8308C31.3393 48.8308 32.5557 47.8361 32.5557 43.9044" fill="#231F20"/>
<path d="M38.9934 50.3172V32.3318H41.3344V48.3279H48.0705V50.3172H38.9934Z" fill="#231F20"/>
<path d="M50.2164 43.7406V37.8196C50.2164 34.2272 52.0983 31.9688 55.9541 31.9688C59.8098 31.9688 61.6918 34.3091 61.6918 37.8196V43.6704C61.6918 48.6553 59.8098 50.6211 55.9541 50.6211C52.0983 50.6211 50.2164 48.6553 50.2164 43.6704M59.3967 43.7757V37.8196C59.3967 34.0633 56.7459 33.9346 55.9541 33.9346C55.1623 33.9346 52.5688 34.0633 52.5688 37.8196V43.9044C52.5688 47.8361 53.7164 48.8308 55.9541 48.8308C58.1918 48.8308 59.3967 47.8361 59.3967 43.9044" fill="#231F20"/>
<path d="M74.5902 37.1409C74.5902 35.0229 73.7066 33.8761 71.3426 33.8761C70.5967 33.8761 67.9 34.0048 67.9 37.761V43.8459C67.9 47.7776 69.0475 48.7723 71.3426 48.7723C72.4888 48.8338 73.6282 48.5576 74.6246 47.9766V42.5938H71.182V40.6045H76.9197V49.3457C75.2087 50.252 73.305 50.7142 71.377 50.6913C67.4869 50.6913 65.6393 48.7255 65.6393 43.7406V37.8196C65.6393 34.2272 67.5213 31.9688 71.377 31.9688C75.2328 31.9688 77.2295 33.3963 77.1147 37.1526L74.5902 37.1409Z" fill="#231F20"/>
<path d="M84.0114 32.3318H81.6704V50.3172H84.0114V32.3318Z" fill="#231F20"/>
<path d="M96.5312 37.293C96.6445 36.3823 96.4546 35.4592 95.9918 34.6718C95.4215 34.169 94.6916 33.8945 93.9377 33.8995C93.393 33.8395 92.8428 33.9386 92.3511 34.1851C91.8595 34.4316 91.4466 34.8155 91.1607 35.292C91.0803 35.4792 90.6557 35.9473 90.6557 38.9897V43.7991C90.6557 48.1989 92.1246 48.7255 93.9377 48.7255C94.6492 48.7255 96.8066 48.4797 96.8295 44.9692H99.2508C99.3311 50.6913 95.2459 50.6913 94.0984 50.6913C91.8033 50.6913 88.2918 50.5392 88.2918 43.565V38.4865C88.2918 33.408 90.5869 31.957 94.1902 31.957C97.7934 31.957 99.2279 33.8059 98.9984 37.293H96.5312Z" fill="#231F20"/>
<path d="M104.426 44.9575V45.4841C104.379 45.9114 104.425 46.3441 104.561 46.7509C104.698 47.1577 104.922 47.5285 105.216 47.8365C105.51 48.1444 105.868 48.3818 106.263 48.5315C106.659 48.6812 107.082 48.7395 107.502 48.7021C109.361 48.7021 110.784 47.9297 110.784 45.7883C110.784 41.7981 102.544 42.2779 102.544 36.8366C102.544 33.6538 104.839 31.957 107.926 31.957C111.288 31.957 113.17 33.5485 113.021 37.2111H110.52C110.52 35.2452 109.911 33.9463 107.697 33.9463C107.33 33.9012 106.958 33.9386 106.607 34.056C106.257 34.1733 105.935 34.3677 105.666 34.6255C105.397 34.8832 105.186 35.198 105.05 35.5477C104.913 35.8974 104.853 36.2735 104.874 36.6494C104.874 40.6162 113.113 40.0428 113.113 45.7415C113.113 49.5329 110.439 50.7498 107.375 50.7498C101.948 50.7498 101.948 46.7362 102.005 45.016L104.426 44.9575Z" fill="#231F20"/>
</svg>
