<svg width="140" height="52" viewBox="0 0 140 52" fill="none" xmlns="http://www.w3.org/2000/svg">
<path d="M9.29508 16.0594C9.43153 16.5609 9.43153 17.0908 9.29508 17.5923C9.19845 18.0321 8.94275 18.4185 8.57901 18.6745C8.21527 18.9304 7.77025 19.0371 7.33279 18.9731C7.07615 19.0054 6.8157 18.9806 6.56937 18.9004C6.32304 18.8202 6.09666 18.6866 5.90582 18.5086C5.71498 18.3307 5.56421 18.1127 5.46387 17.8697C5.36353 17.6267 5.31602 17.3644 5.32459 17.1009V15.1116H0V16.703C0 21.2901 3.51148 22.6709 7.27541 22.6709C11.0393 22.6709 13.8623 21.4071 14.3443 17.9902C14.5231 16.8742 14.5231 15.7361 14.3443 14.6201C13.4951 10.3022 5.89836 9.02676 5.32459 6.61623C5.25559 6.25689 5.25559 5.88732 5.32459 5.52798C5.3952 5.10303 5.62498 4.72269 5.96542 4.46725C6.30585 4.2118 6.73031 4.10123 7.14918 4.15889C7.39532 4.13437 7.64374 4.16497 7.87708 4.24854C8.11042 4.33211 8.32305 4.46664 8.5001 4.64272C8.67715 4.8188 8.81435 5.03219 8.90211 5.26796C8.98987 5.50374 9.02608 5.75621 9.0082 6.00774V7.28322H14V5.80882C14 1.3388 10.0869 0.625 7.25246 0.625C3.69508 0.625 0.791803 1.79516 0.252459 5.21203C0.0811223 6.14122 0.0928249 7.09589 0.286885 8.02042C1.14754 12.233 8.31967 13.45 9.29508 16.1062" fill="#23398C"/>
<path d="M74.3378 16.0245C74.48 16.5132 74.48 17.0336 74.3378 17.5223C74.2488 17.9608 73.9978 18.3476 73.6367 18.6025C73.2757 18.8573 72.8323 18.9608 72.3985 18.8914C72.1458 18.9235 71.8894 18.8996 71.6467 18.8213C71.4039 18.743 71.1807 18.6121 70.9921 18.4377C70.8036 18.2632 70.6543 18.0493 70.5544 17.8105C70.4544 17.5717 70.4063 17.3138 70.4132 17.0542V15.0416H65.146V16.5979C65.146 21.1381 68.5886 22.5189 72.3526 22.5189C76.1165 22.5189 78.8706 21.2668 79.3526 17.8383C79.536 16.7345 79.536 15.6071 79.3526 14.5033C78.5263 10.2322 71.0099 8.95672 70.4362 6.56959C70.3559 6.21936 70.3559 5.85498 70.4362 5.50475C70.5041 5.08305 70.7299 4.70468 71.0659 4.44932C71.402 4.19395 71.8221 4.08151 72.2378 4.13566C72.4826 4.11271 72.7293 4.14458 72.9607 4.22904C73.1921 4.3135 73.4026 4.44851 73.5775 4.62463C73.7524 4.80074 73.8875 5.01369 73.9732 5.24859C74.0589 5.48349 74.0933 5.73466 74.0739 5.98451V7.23659H79.0083V5.8792C79.0083 1.44428 75.1411 0.742188 72.3296 0.742188C68.887 0.742188 65.9378 1.91235 65.4444 5.27072C65.2676 6.17743 65.2559 7.10958 65.4099 8.0206C66.2706 12.1864 73.3165 13.3799 74.3263 16.0245" fill="#23398C"/>
<path d="M115.856 17.8498L115.58 1.28027H120.526V21.6411H113.411L108.351 4.54502L108.638 21.6411H103.703V1.28027H111.139L115.856 17.8498Z" fill="#23398C"/>
<path d="M25.9227 2.81318L23.1227 21.8517H17.7178L21.4358 1.28027H30.3292L34.0129 21.8517H28.6309L25.9227 2.81318Z" fill="#23398C"/>
<path d="M55.1162 2.81318L51.6621 21.8517H46.5785L43.1473 2.81318L43.0096 21.8517H38.0063L38.4539 1.28027H46.6129L49.1375 17.37L51.6621 1.28027H59.8096L60.2457 21.8517H55.2424L55.1162 2.81318Z" fill="#23398C"/>
<path d="M91.1375 18.7859C91.5813 18.8206 92.0223 18.6887 92.3774 18.415C92.7324 18.1413 92.9771 17.7447 93.0654 17.2998C93.0832 17.0388 93.0832 16.7768 93.0654 16.5158V1.30369H98.1261V16.0477C98.1261 16.4339 98.1261 17.2179 98.1261 17.4051C97.7818 21.2433 94.8326 22.4836 91.149 22.4836C87.4654 22.4836 84.5047 21.2316 84.1605 17.3817C84.1605 17.1828 84.0916 16.4105 84.1605 16.0243V1.29199H89.2326V16.5041C89.2091 16.7649 89.2091 17.0273 89.2326 17.2881C89.3161 17.7332 89.5579 18.1312 89.9116 18.4055C90.2654 18.6798 90.7061 18.8111 91.149 18.7742" fill="#23398C"/>
<path d="M132.874 18.552C133.337 18.6065 133.804 18.4834 134.184 18.2066C134.563 17.9298 134.829 17.5191 134.928 17.0542C134.946 16.7932 134.946 16.5312 134.928 16.2702V13.3097H132.862V10.3609H140V15.8841C140 16.2585 140 16.5394 139.931 17.2298C139.598 20.9743 136.489 22.3083 132.897 22.3083C129.305 22.3083 126.23 20.8924 125.851 17.1829C125.828 16.7347 125.828 16.2855 125.851 15.8373V7.16636C125.851 6.80361 125.851 6.16002 125.931 5.80897C126.379 1.95914 129.374 0.730469 132.954 0.730469C136.535 0.730469 139.598 1.90063 139.989 5.80897C139.989 6.47596 139.989 7.16636 139.989 7.16636V7.85676H134.951V6.68659C134.951 6.68659 134.951 6.19513 134.882 5.89088C134.748 5.4596 134.483 5.08303 134.125 4.81577C133.767 4.54851 133.335 4.40443 132.891 4.40443C132.447 4.40443 132.015 4.54851 131.657 4.81577C131.299 5.08303 131.034 5.4596 130.9 5.89088C130.838 6.20659 130.811 6.5285 130.82 6.85042V16.2117C130.796 16.4725 130.796 16.735 130.82 16.9957C130.907 17.4714 131.167 17.8961 131.548 18.1847C131.928 18.4733 132.402 18.6045 132.874 18.552Z" fill="#23398C"/>
<path d="M1.06738 50.9424V32.957H7.04607C9.59361 32.957 10.4887 33.8113 11.1428 34.8059C11.5876 35.5054 11.8412 36.3133 11.8772 37.1462C11.8772 39.3812 11.0969 40.879 8.73295 41.4056V41.5343C9.26669 41.5358 9.79412 41.6521 10.2809 41.8754C10.7676 42.0987 11.2027 42.4241 11.5579 42.8304C11.913 43.2367 12.1802 43.7148 12.342 44.2334C12.5038 44.7521 12.5566 45.2997 12.4969 45.8405C12.4969 50.451 9.05427 50.8956 6.97722 50.8956L1.06738 50.9424ZM3.36246 40.528H6.80509C7.16525 40.5226 7.52085 40.4449 7.85159 40.2994C8.18232 40.1539 8.4817 39.9434 8.73265 39.6799C8.9836 39.4164 9.18119 39.1051 9.31415 38.7637C9.4471 38.4223 9.51282 38.0576 9.50754 37.6903C9.50227 37.3231 9.42611 36.9605 9.2834 36.6232C9.1407 36.286 8.93425 35.9807 8.67585 35.7248C8.41744 35.4689 8.11214 35.2674 7.77737 35.1318C7.4426 34.9962 7.08493 34.9292 6.72476 34.9346H3.44279L3.36246 40.528ZM3.44279 48.9765H6.72476C7.15019 49.0243 7.58071 48.98 7.98817 48.8464C8.39563 48.7128 8.77086 48.4931 9.08931 48.2015C9.40776 47.9099 9.66226 47.553 9.83617 47.1543C10.0101 46.7555 10.0995 46.3238 10.0985 45.8873C10.0985 43.0204 8.29689 42.529 5.89853 42.529H3.44279V48.9765Z" fill="#231F20"/>
<path d="M19.026 32.957H16.6851V50.9424H19.026V32.957Z" fill="#231F20"/>
<path d="M23.3755 44.3656V38.4446C23.3755 34.8522 25.2575 32.5938 29.1132 32.5938C32.9689 32.5938 34.8509 34.9341 34.8509 38.4446V44.2954C34.8509 49.2803 32.9575 51.2461 29.1132 51.2461C25.2689 51.2461 23.3755 49.2803 23.3755 44.2954M32.5558 44.4007V38.4446C32.5558 34.6883 29.9165 34.5596 29.1132 34.5596C28.3099 34.5596 25.7394 34.6883 25.7394 38.4446V44.5294C25.7394 48.4611 26.887 49.4558 29.1132 49.4558C31.3394 49.4558 32.5558 48.4611 32.5558 44.5294" fill="#231F20"/>
<path d="M38.9937 50.9424V32.957H41.3346V48.9532H48.0707V50.9424H38.9937Z" fill="#231F20"/>
<path d="M50.2163 44.3656V38.4446C50.2163 34.8522 52.0983 32.5938 55.954 32.5938C59.8097 32.5938 61.6917 34.9341 61.6917 38.4446V44.2954C61.6917 49.2803 59.8097 51.2461 55.954 51.2461C52.0983 51.2461 50.2163 49.2803 50.2163 44.2954M59.3966 44.4007V38.4446C59.3966 34.6883 56.7458 34.5596 55.954 34.5596C55.1622 34.5596 52.5688 34.6883 52.5688 38.4446V44.5294C52.5688 48.4611 53.7163 49.4558 55.954 49.4558C58.1917 49.4558 59.3966 48.4611 59.3966 44.5294" fill="#231F20"/>
<path d="M74.59 37.7659C74.59 35.6479 73.7064 34.5011 71.3424 34.5011C70.5965 34.5011 67.8998 34.6298 67.8998 38.386V44.4709C67.8998 48.4026 69.0474 49.3973 71.3424 49.3973C72.4886 49.4588 73.628 49.1826 74.6244 48.6016V43.2188H71.1818V41.2295H76.9195V49.9707C75.2085 50.877 73.3048 51.3392 71.3769 51.3163C67.4867 51.3163 65.6392 49.3505 65.6392 44.3656V38.4446C65.6392 34.8522 67.5211 32.5938 71.3769 32.5938C75.2326 32.5938 77.2293 34.0213 77.1146 37.7776L74.59 37.7659Z" fill="#231F20"/>
<path d="M84.0114 32.957H81.6704V50.9424H84.0114V32.957Z" fill="#231F20"/>
<path d="M96.5313 37.918C96.6447 37.0073 96.4548 36.0842 95.992 35.2968C95.4217 34.794 94.6918 34.5195 93.9379 34.5245C93.3932 34.4645 92.843 34.5636 92.3513 34.8101C91.8597 35.0566 91.4468 35.4405 91.1608 35.917C91.0805 36.1042 90.6559 36.5723 90.6559 39.6147V44.4241C90.6559 48.8239 92.1248 49.3505 93.9379 49.3505C94.6494 49.3505 96.8067 49.1047 96.8297 45.5942H99.251C99.3313 51.3163 95.2461 51.3163 94.0985 51.3163C91.8035 51.3163 88.292 51.1642 88.292 44.19V39.1115C88.292 34.033 90.5871 32.582 94.1904 32.582C97.7936 32.582 99.228 34.4309 98.9985 37.918H96.5313Z" fill="#231F20"/>
<path d="M104.426 45.5825V46.1091C104.379 46.5364 104.425 46.9691 104.561 47.3759C104.698 47.7827 104.921 48.1535 105.216 48.4615C105.51 48.7694 105.868 49.0068 106.263 49.1565C106.658 49.3062 107.081 49.3645 107.502 49.3271C109.361 49.3271 110.784 48.5547 110.784 46.4133C110.784 42.4231 102.544 42.9029 102.544 37.4616C102.544 34.2788 104.839 32.582 107.926 32.582C111.288 32.582 113.17 34.1735 113.021 37.8361H110.52C110.52 35.8702 109.911 34.5713 107.697 34.5713C107.33 34.5262 106.958 34.5636 106.607 34.681C106.256 34.7983 105.935 34.9927 105.666 35.2505C105.397 35.5082 105.186 35.823 105.049 36.1727C104.913 36.5224 104.853 36.8985 104.874 37.2744C104.874 41.2412 113.113 40.6678 113.113 46.3665C113.113 50.1579 110.439 51.3748 107.375 51.3748C101.947 51.3748 101.947 47.3612 102.005 45.641L104.426 45.5825Z" fill="#231F20"/>
</svg>
