<svg width="187" height="64" viewBox="0 0 187 64" fill="none" xmlns="http://www.w3.org/2000/svg">
<g clip-path="url(#clip0_2128_965)">
<path d="M80.2365 30.8375C79.2816 30.7338 78.7552 30.682 78.7552 30.682C78.7552 30.682 77.7025 30.6301 77.3867 30.6301L72.8377 30.7931C72.8377 30.7931 70.612 30.8819 70.2962 30.0081L69.9728 27.4535C69.9728 27.4535 69.8601 26.5649 71.6647 27.0388C71.6647 27.0388 73.8828 27.298 75.8979 27.2462C75.8979 27.2462 77.5898 27.7127 78.8605 27.5053C78.8605 27.5053 80.9809 27.5646 81.1914 26.3576C81.1914 26.3576 81.6125 25.3135 81.0862 24.7507C81.0862 24.7507 80.9809 24.0177 78.8605 23.1291C78.8605 23.1291 77.3867 23.292 76.7476 23.0254C76.7476 23.0254 75.8979 23.0254 74.8453 23.1883L69.6646 23.3438C69.6646 23.3438 68.6044 23.8696 67.6569 23.4475L66.4915 23.4031C66.4915 23.4031 65.5441 23.6548 64.7997 23.2476L64.2658 22.8773C64.2658 22.8773 63.4237 21.9888 64.4763 21.3668L74.9505 21.1076C74.9505 21.1076 76.319 21.152 76.6423 21.3223L78.8605 21.4704L80.447 21.3223C80.447 21.3223 81.4997 21.1594 81.9283 19.908C81.9283 19.908 82.2516 19.0713 81.7178 17.9309C81.7178 17.9309 82.0411 16.9387 78.65 16.2574C78.65 16.2574 77.0634 16.0575 75.8979 15.8428C75.8979 15.8428 75.1536 16.1093 74.4167 16.213C74.4167 16.213 73.2512 16.7462 72.0933 16.7462L65.1155 16.8424C65.1155 16.8424 63.5289 16.8868 62.8973 16.5833C62.8973 16.5833 62.3635 16.4278 61.5213 16.3167C61.5213 16.3167 60.8897 16.213 60.3634 16.0575L58.8821 16.2574C58.8821 16.2574 58.461 16.1612 56.9873 17.0868C56.9873 17.0868 56.0323 17.3015 55.6037 18.1309C55.6037 18.1309 55.2879 18.39 55.6037 19.7451L56.5587 20.4263L57.4986 21.1076C57.4986 21.1076 57.4008 22.048 57.7166 24.5878C57.7166 24.5878 57.9196 26.4168 59.5137 26.7722L60.995 27.0388H66.1832L65.7621 27.5053C65.7621 27.5053 65.2283 27.7645 65.7621 28.3939L66.3937 29.2306C66.3937 29.2306 66.6043 29.749 66.1832 29.9489C66.1832 29.9489 66.2885 30.371 65.8674 30.5265L65.4463 30.8375L59.1979 30.5783L58.2505 30.2081L57.2955 30.3191L56.8745 30.9486L56.4459 31.1115C56.4459 31.1115 55.9195 31.578 56.0248 32C56.0248 32 56.2353 33.1922 56.5587 33.2514C56.5587 33.2514 56.7692 33.9845 57.8219 34.1919L65.4388 34.029C65.4388 34.029 66.4915 33.6661 67.1306 33.6661H69.9804L73.1535 33.9845C73.1535 33.9845 75.2663 34.4436 76.116 34.4955C76.116 34.4955 77.7025 34.8657 78.7552 34.8657C78.7552 34.8657 80.9809 34.9175 80.9809 34.762C80.9809 34.762 81.9283 34.7028 82.1388 33.6661C82.1388 33.6661 82.2516 32.511 81.9283 32.0519C81.9283 32.0519 81.2892 31.0004 80.229 30.8523L80.2365 30.8375Z" fill="#231815"/>
<path d="M74.74 38.7537C74.74 38.7537 74.4167 38.028 72.8377 37.4504C72.8377 37.4504 72.4091 36.9839 71.2511 36.7766C71.2511 36.7766 70.4015 36.6729 70.0857 36.0435L69.7698 35.5252C69.7698 35.5252 69.6646 35.2068 68.8224 34.5922C68.8224 34.5922 67.4464 34.2812 66.702 34.4811C66.702 34.4811 65.5441 34.5922 65.6418 35.5326C65.6418 35.5326 65.7471 36.5174 65.5366 36.784C65.5366 36.784 65.1155 37.3542 64.7922 37.5023C64.7922 37.5023 64.153 37.8133 63.6267 38.5982C63.6267 38.5982 62.8898 39.2276 62.777 39.9977C62.777 39.9977 62.0402 41.1454 62.5665 42.6634C62.5665 42.6634 62.6718 42.9152 63.0928 44.1666C63.0928 44.1666 63.4086 45.5216 64.8899 46.351L65.9426 47.0841L67.2058 47.8616C67.2058 47.8616 67.4239 48.1726 68.4766 48.2244L70.2812 48.1207C70.2812 48.1207 71.6572 47.8616 72.7098 46.8693C72.7098 46.8693 74.0858 45.9289 74.0858 45.6253C74.0858 45.6253 74.6122 45.1588 75.4619 44.0629C75.4619 44.0629 75.9882 43.5964 75.8829 42.9744C75.8829 42.9744 76.0935 40.6271 75.6724 40.2198C75.6724 40.2198 75.3566 39.4867 74.725 38.7537H74.74ZM71.2511 41.6712L70.8225 42.2487C70.1909 42.7226 69.9804 42.8115 69.9804 42.8115C69.2435 43.8111 68.2886 42.7152 68.2886 42.7152C67.4464 42.345 67.1306 41.4638 67.1306 41.4638C66.702 40.7307 67.1306 40.0495 67.1306 40.0495C67.4464 39.1683 68.6044 38.8573 68.6044 38.8573H69.6646L70.1909 39.3757C70.7248 39.4793 71.1459 40.3605 71.1459 40.3605C71.5744 40.7826 71.2586 41.6637 71.2586 41.6637L71.2511 41.6712Z" fill="#231815"/>
<path d="M118.051 25.1132C118.051 25.1132 118.351 24.543 116.344 24.5948C116.344 24.5948 115.058 24.6467 114.945 24.3801C114.945 24.3801 113.998 24.6541 113.892 22.9806C113.892 22.5067 113.998 20.226 113.998 20.226C113.998 20.226 114.321 19.6558 113.998 19.2856C113.998 19.2856 113.674 18.7673 113.674 17.8343C113.674 17.8343 113.674 16.4274 112.193 16.4274C112.193 16.4274 111.501 16.0645 110.125 16.1608C110.125 16.1608 109.388 16.4274 109.494 17.0494C109.494 17.0494 109.494 17.7306 108.855 18.4118C108.855 18.4118 108.539 19.3967 108.96 19.7077C108.96 19.7077 109.486 22.1513 109.381 23.4027C109.381 23.4027 109.486 23.7137 109.381 23.9728C109.381 23.9728 109.163 25.1724 109.486 27.4679L109.907 32.1996C109.907 32.1996 110.013 32.5624 109.907 33.1844L110.013 37.5088C110.013 37.5088 110.103 39.1156 108.825 38.4862C108.825 38.4862 107.982 38.1382 103.96 38.4492L100.373 38.3974C100.373 38.3974 98.5684 38.3455 98.8917 37.1978C98.8917 37.1978 98.6812 35.6354 99.2075 35.6872C99.2075 35.6872 100.373 35.0578 100.794 34.4358L101.426 33.762C101.426 33.762 102.065 32.7771 102.275 32.0441C102.275 32.0441 102.584 30.9482 102.275 29.9115C102.275 29.9115 102.057 29.3783 101.32 28.4453C101.32 28.4453 100.689 27.616 99.9444 27.1939C99.9444 27.1939 99.1023 26.3572 98.6737 26.2535C98.6737 26.2535 97.2977 25.1132 98.8842 24.854L99.8316 24.9577L100.884 24.9058C100.884 24.9058 101.629 24.9058 101.734 24.8614C101.734 24.8614 102.366 25.0095 103.005 24.6541C103.005 24.6541 103.636 24.4912 104.057 23.8692C104.057 23.8692 104.591 23.7137 104.591 23.1361C104.591 23.1361 104.591 22.0328 104.275 21.4626C104.275 21.4626 103.854 20.5814 102.689 20.4185C102.689 20.4185 102.163 20.1001 100.365 20.1001C100.365 20.1001 98.9895 20.4185 99.3128 18.7451C99.3128 18.7451 99.4106 17.8121 98.7789 17.3974C98.7789 17.3974 98.3579 17.0345 97.4029 16.8716C97.4029 16.8716 95.5006 16.4051 94.5532 16.8716C94.5532 16.8716 93.493 17.0864 93.493 18.1156L93.3877 18.9524C93.3877 18.9524 93.9216 19.8928 93.3877 20.2038C93.3877 20.2038 92.4403 20.2556 91.4854 20.3075C91.4854 20.3075 90.4327 20.3075 89.8011 20.5222C89.8011 20.5222 88.6356 20.9813 88.6356 21.4034C88.6356 21.4034 88.1017 21.8921 88.5303 23.0917C88.5303 23.0917 88.5303 24.1802 89.6958 24.2838C89.6958 24.2838 90.0116 24.5948 91.2823 24.6467L93.6133 24.7948C93.6133 24.7948 94.2449 25.165 93.508 25.6315C93.508 25.6315 92.7636 25.7352 91.9215 26.7274C91.9215 26.7274 91.6057 26.8755 90.7635 28.1862L90.1244 29.5931C90.1244 29.5931 89.7033 30.7927 90.1244 31.4739C90.1244 31.4739 90.2297 33.451 91.8162 34.7468C91.8162 34.7468 92.8764 35.7317 93.508 36.1019C93.508 36.1019 94.5682 37.8272 93.508 38.3455C93.508 38.3455 92.0267 38.5529 90.6507 38.5529C90.6507 38.5529 89.5905 38.7676 89.38 39.7006C89.38 39.7006 89.1695 40.3745 89.38 40.641C89.38 40.641 89.5905 42.2183 90.8613 42.433C91.0718 42.4774 92.3425 42.7884 92.3425 42.7884L93.3952 42.6848L94.5607 42.3664L101.005 42.159L104.283 42.3219L107.877 42.3664C107.877 42.3664 108.93 42.1294 109.456 42.6996C109.456 42.6996 109.907 42.7662 109.802 44.0176C109.802 44.0176 109.907 44.847 109.584 45.269C109.584 45.269 109.373 45.7281 109.584 46.0984C109.584 46.0984 110.005 47.5571 110.742 47.7126C110.742 47.7126 113.133 48.342 114.088 47.4534C114.088 47.4534 114.72 47.2461 114.509 46.0465L114.088 34.0211C114.088 34.0211 114.088 32.555 114.298 32.4587L114.411 30.0003C114.411 30.0003 114.193 28.9637 115.253 28.9637C115.253 28.9637 116.847 28.9118 117.276 28.549C117.276 28.549 118.351 28.4898 118.457 26.9866C118.457 26.9866 118.772 25.787 118.036 25.1132H118.051ZM97.418 31.2666C97.1022 32.1996 96.042 32.3551 96.042 32.3551C94.9893 32.2514 94.884 31.6812 94.884 31.6812C94.463 31.4221 94.4629 30.1188 94.4629 30.1188C94.884 29.0377 95.839 28.9785 95.839 28.9785C96.4706 28.9785 96.8916 29.2451 96.8916 29.2451C97.5308 29.6597 97.5308 30.4372 97.5308 30.4372L97.418 31.2814V31.2666Z" fill="#231815"/>
<path d="M126.622 31.0891C126.622 31.0891 127.698 32.2517 130.081 32.3701C130.081 32.3701 131.059 32.4738 131.713 32.4146L132.578 32.2517L133.014 32.0888C133.014 32.0888 132.908 32.1998 133.991 31.6075L134.202 31.289L134.525 31.0817L134.856 30.9114L135.179 30.7485L135.292 30.6448C135.292 30.6448 135.51 30.2154 136.051 30.1635C136.051 30.1635 138.217 28.2975 138.435 26.9054C138.435 26.9054 138.976 24.0175 138.112 22.9587C138.112 22.9587 137.781 20.8705 136.811 20.2855L135.833 18.9527C135.833 18.9527 135.405 18.575 134.645 18.1603L133.781 17.568C133.781 17.568 133.021 17.1385 132.149 16.8793C132.149 16.8793 130.638 16.709 128.359 17.1977C128.359 17.1977 126.848 17.6198 125.87 18.7453C125.87 18.7453 124.134 19.8634 123.592 22.2108C123.592 22.2108 122.945 24.4989 123.705 27.1794C123.705 27.1794 124.134 29.6822 126.63 31.0743L126.622 31.0891ZM128.239 22.9661C128.893 21.3666 130.841 21.5221 130.841 21.5221L132.457 21.8924C133.547 22.3811 133.863 23.3437 133.863 23.3437C134.63 24.5063 133.976 25.7873 133.976 25.7873C133.976 26.5426 133.217 27.1868 133.217 27.1868C132.57 27.6015 131.487 27.868 131.487 27.868C130.728 28.142 129.75 27.5422 129.75 27.5422C128.231 26.861 128.231 26.1723 128.231 26.1723C127.585 24.3433 128.231 22.9661 128.231 22.9661H128.239Z" fill="#231815"/>
<path d="M152.631 26.7572C152.631 26.7572 152.631 26.113 150.466 26.2241L148.3 26.3277C148.3 26.3277 147.21 26.3722 147.21 25.7872C147.21 25.7872 146.894 24.943 147.541 24.6691C147.541 24.6691 147.323 24.3506 149.706 24.6691C149.706 24.6691 152.526 25.2022 152.744 24.2988C152.744 24.2988 153.285 24.1877 153.285 22.7956C153.285 22.7956 153.722 21.5146 153.067 21.0925C153.067 21.0925 152.534 20.0263 151.015 20.0781L147.759 20.1299C147.759 20.1299 146.789 20.3447 146.789 18.7452C146.789 18.7452 146.894 17.405 146.135 17.0347C146.135 17.0347 144.729 15.9166 143.856 16.3905C143.856 16.3905 142.661 16.6126 142.556 18.2121L142.661 24.8838V26.1056C142.661 26.1056 142.879 27.0682 142.879 27.705C142.879 27.705 142.338 28.1345 142.879 29.4155L143.105 31.015C143.105 31.015 143.105 32.2442 144.616 32.3552C144.616 32.3552 146.894 32.6218 146.676 31.2815C146.676 31.2815 146.676 30.0005 147.548 30.2671L151.774 30.0597C151.774 30.0597 153.511 30.119 153.188 28.3492C153.188 28.3492 153.511 27.12 152.646 26.7498L152.631 26.7572Z" fill="#231815"/>
<path d="M149.488 38.8636C149.488 38.8636 149.706 37.427 147.969 36.6792C147.969 36.6792 147.105 36.2571 145.586 36.0942L140.601 36.3607C140.601 36.3607 140.059 36.5237 139.194 36.42L137.458 36.4792C137.458 36.4792 136.698 36.42 135.615 36.5311L131.066 36.3682C131.066 36.3682 129.765 36.5311 129.329 35.8942L128.675 35.5166L127.592 35.6277C127.592 35.6277 126.186 35.9979 125.645 37.4937C125.645 37.4937 124.885 38.2342 125.863 39.2486C125.863 39.2486 125.75 40.0557 128.028 40.3149L131.495 40.1076C131.495 40.1076 132.788 40.0557 135.397 39.7373L139.518 39.5744H141.901C141.901 39.5744 143.533 39.6263 143.533 41.2257L143.751 45.4983C143.751 45.4983 143.533 47.8456 146.029 47.7938C146.029 47.7938 146.894 47.8456 148.3 47.6308C148.3 47.6308 149.601 47.4753 149.601 45.8167C149.601 45.8167 149.924 44.6911 149.706 42.2994C149.706 42.2994 149.601 39.9447 149.488 38.871V38.8636Z" fill="#231815"/>
<path d="M175.489 26.4691C175.489 26.4691 176.858 26.358 177.888 26.4173C177.888 26.4173 179.136 26.1877 179.82 26.6468C179.82 26.6468 180.73 27.0985 181.986 27.0393L183.813 26.9208C183.813 26.9208 185.527 26.6987 185.527 25.9656C185.527 25.5731 185.414 25.5213 185.414 25.5731C185.527 25.1733 185.527 24.2254 184.73 23.7738C184.73 23.7738 184.046 22.937 181.768 23.1518H180.279C180.279 23.1518 179.256 23.1518 179.482 22.4187C179.482 22.4187 179.256 21.4635 180.392 21.5227H184.038C184.038 21.5227 185.527 21.5819 185.753 20.9673C185.753 20.9673 185.978 20.686 186.099 19.8418C186.099 19.8418 186.099 18.1535 184.843 18.0424C184.843 18.0424 184.956 17.65 182.557 17.2649C182.557 17.2649 181.534 17.4797 180.392 16.9836L178.346 16.8058C178.346 16.8058 177.888 17.2649 176.97 17.3168L171.263 17.5463L168.075 17.4353C168.075 17.4353 167.271 17.3168 167.165 16.9836L166.135 16.6429C166.135 16.6429 165.789 16.3542 164.767 16.5245L163.511 16.9243C163.511 16.9243 161.797 17.0872 159.518 17.4797C159.518 17.4797 158.368 17.7018 158.368 18.8348C158.368 18.8348 158.142 19.2865 158.601 20.1824C158.601 20.1824 158.601 21.3006 160.308 21.2487H163.511C163.511 21.2487 164.767 21.4116 163.737 23.485L161 23.6034C161 23.6034 159.97 23.3221 159.857 24.5513C159.857 24.5513 159.511 25.3954 160.082 26.1803C160.082 26.1803 160.195 26.9726 161.225 26.9134H163.278C163.278 26.9134 164.534 27.0319 164.992 27.0837H166.361C166.361 27.0837 167.045 26.9134 167.496 26.8542C167.496 26.8542 168.18 26.5728 168.519 26.4025C168.519 26.4025 174 25.8397 175.482 26.4543L175.489 26.4691ZM174.692 22.3743C174.692 23.1518 174.233 23.1518 174.233 23.1518L170.925 23.2702C168.767 23.2702 169.211 22.9963 169.098 22.8778C168.301 22.1447 169.098 21.2487 169.098 21.2487C170.008 21.0266 170.579 20.9673 170.579 20.9673C170.812 21.1302 172.286 21.071 172.286 21.071L174.572 21.1302C174.797 21.5227 174.685 22.3743 174.685 22.3743H174.692Z" fill="#231815"/>
<path d="M168.759 46.0256L173.887 45.8553C173.887 45.8553 176.857 45.9071 177.188 46.581C177.188 46.581 177.88 46.9734 179.128 47.1511L180.955 47.4844C180.955 47.4844 182.549 47.1511 182.783 46.7513C182.783 46.7513 184.031 46.1885 184.256 45.5665C184.256 45.5665 184.595 45.0111 184.595 44.6113L184.707 43.271L184.933 40.2351C184.933 40.2351 185.159 39.3391 185.046 37.8729C185.046 37.8729 185.046 36.7474 182.767 36.6437C182.767 36.6437 180.136 36.5327 178.993 36.4734L174.316 36.3105L173.173 36.2513C173.173 36.2513 171.917 35.6367 172.827 35.1257C172.827 35.1257 173.286 35.1776 173.173 34.1113C173.173 34.1113 172.947 32.7636 173.406 32.7636L173.978 32.7118L180.594 32.8821C180.594 32.8821 182.076 32.8821 182.414 33.045L182.873 33.2153L183.903 33.2745C183.903 33.2745 184.813 33.3338 184.925 32.3638C184.925 32.3638 185.038 31.6381 185.271 31.4085C185.271 31.4085 185.504 30.6755 185.159 30.631C185.159 30.631 185.046 29.7869 183.677 30.009L181.053 29.6092L173.414 29.3352C173.414 29.3352 172.158 29.7869 171.128 29.387H169.188C169.188 29.387 168.737 29.5573 167.474 29.6092C167.474 29.6092 166.105 29.7869 164.624 29.387L161.879 29.2686H160.398C160.398 29.2686 158.909 29.387 158.804 30.631C158.804 30.631 158.458 31.3567 159.029 32.0305C159.029 32.0305 159.029 32.8229 160.165 32.8229L163.932 32.66L168.383 32.7044C168.383 32.7044 168.947 32.2601 169.068 33.1561C169.068 33.1561 169.068 33.667 169.413 34.5556C169.526 34.7259 169.639 35.9107 169.639 35.9107L167.361 36.0217C167.361 36.0217 166.218 36.5253 165.188 36.0662C165.188 36.0662 164.97 35.2887 163.361 35.3923C163.361 35.3923 162.451 35.0591 161.879 35.5108C161.879 35.5108 160.518 36.0217 160.518 36.9695V38.7615C160.518 38.8726 161.654 39.4946 161.879 40.398C161.879 40.398 162.112 41.4494 161.992 42.5231L162.105 44.1004C162.105 44.1004 161.992 45.5073 162.556 45.6776C162.556 45.6776 162.782 46.8031 164.037 47.2474C164.037 47.2474 164.496 47.3585 165.406 47.588L165.864 47.5288L167.12 47.1437C167.12 47.1437 167.917 46.1737 168.722 46.0182L168.759 46.0256ZM175.489 39.7908C177.542 39.6205 178 40.0129 178 40.0129C178.572 40.1832 178.685 41.1903 178.685 41.1903C178.797 42.5972 177.542 42.3824 177.542 42.3824L174.917 42.1011L168.413 42.2047C167.158 42.3158 167.27 41.4272 167.27 41.4272C167.045 40.0203 167.383 40.0203 167.383 40.0203L175.481 39.7982L175.489 39.7908Z" fill="#231815"/>
<path d="M46.6407 23.973C46.5505 23.8101 46.4151 23.6991 46.2347 23.6324C46.2347 23.6324 42.0014 21.9812 41.9563 21.9663C41.9412 21.9145 41.0314 17.5235 41.0314 17.5235C40.9938 17.3383 40.9111 17.1902 40.7607 17.0718C40.6179 16.9533 40.46 16.8941 40.2645 16.8941C40.2645 16.8941 35.7078 16.7682 35.6627 16.7682C35.6327 16.7312 33.2491 12.9103 33.2491 12.9103C33.1513 12.7474 33.016 12.6363 32.8355 12.5771C32.6626 12.5104 32.4896 12.5104 32.3092 12.5771C32.3092 12.5771 27.9857 13.9914 27.9406 14.0136C27.903 13.9766 24.3314 11.1924 24.3314 11.1924C24.181 11.0739 24.0156 11.0146 23.8276 11.0146C23.6396 11.0146 23.4742 11.0739 23.3313 11.1924C23.3313 11.1924 19.7597 13.9766 19.7221 14.0136C19.6695 13.9914 15.3535 12.5771 15.3535 12.5771C15.173 12.5178 15.0001 12.5178 14.8196 12.5771C14.6467 12.6363 14.5113 12.7474 14.4136 12.9103C14.4136 12.9103 12.0225 16.7312 11.9999 16.7682C11.9473 16.7682 7.39821 16.8941 7.39821 16.8941C7.21023 16.8941 7.04481 16.9533 6.90195 17.0718C6.75908 17.1902 6.66885 17.3383 6.63126 17.5235C6.63126 17.5235 5.71392 21.9145 5.69888 21.9663C5.65377 21.9812 1.42048 23.6398 1.42048 23.6398C1.24002 23.7065 1.1122 23.8175 1.01445 23.973C0.939256 24.0989 0.90918 24.2174 0.90918 24.3507C0.90918 24.3951 0.90918 24.4395 0.924218 24.484L1.71373 29.7636L14.9926 34.5397C14.9926 34.5397 22.0305 36.9611 22.2786 37.0499C22.0305 37.1314 17.2408 38.7456 17.2408 38.7456C17.2258 38.7456 16.8122 38.8641 16.6618 39.1751C16.6242 39.2491 16.6017 39.3232 16.6017 39.412C16.6017 39.4861 16.6167 39.5749 16.6543 39.6564C17.2182 41.0337 18.1807 42.2111 19.4439 43.0626C20.7372 43.929 22.2561 44.3881 23.8351 44.3881C25.4141 44.3881 26.933 43.929 28.2263 43.0626C29.4895 42.2185 30.452 41.0411 31.0159 39.6564C31.0535 39.5749 31.0685 39.4861 31.0685 39.412C31.0685 39.3306 31.0535 39.2491 31.0159 39.1751C30.8655 38.8715 30.452 38.753 30.4294 38.7456C30.4294 38.7456 25.6397 37.1388 25.3916 37.0499C25.6397 36.9611 32.6776 34.5397 32.6776 34.5397L45.9565 29.7636L46.746 24.484C46.7535 24.4395 46.761 24.3951 46.761 24.3507C46.761 24.2174 46.7234 24.0915 46.6557 23.973H46.6407ZM32.2941 14.1691C32.3919 14.295 35.0687 17.5309 35.1063 17.5827C35.0762 17.6419 28.9932 28.179 28.9406 28.2678C28.8654 28.2086 27.5345 27.2237 27.4819 27.1867C27.5044 27.1201 32.234 14.3246 32.2941 14.1691ZM28.0609 28.912C28.0233 28.9787 24.8351 34.4804 24.5795 34.9099C24.6697 34.4212 25.8126 28.1864 25.8277 28.1123C25.8953 28.1123 26.8352 28.0827 26.8352 28.0827C26.9781 28.0827 27.1886 28.1567 27.2939 28.2456C27.2939 28.2456 28.0007 28.8528 28.0533 28.8972L28.0609 28.912ZM23.8802 12.6881C24.0156 12.7696 27.6548 14.917 27.7075 14.9466C27.6924 15.0058 25.6397 26.9646 25.6247 27.0682C25.5269 27.0386 23.9328 26.5573 23.8727 26.5425V12.6881H23.8802ZM23.587 27.6088C23.7223 27.557 23.9479 27.557 24.0832 27.6088C24.0832 27.6088 24.9554 27.942 25.0231 27.9642C25.0081 28.0383 23.9253 34.2805 23.8351 34.7766C23.7524 34.2805 22.6621 28.0383 22.6471 27.9642C22.7147 27.942 23.587 27.6014 23.587 27.6014V27.6088ZM23.0832 34.9099C22.835 34.473 19.6394 28.9713 19.6018 28.912C19.6544 28.8676 20.3537 28.2604 20.3537 28.2604C20.459 28.1716 20.677 28.0901 20.8199 28.0975C20.8199 28.0975 21.7598 28.1197 21.8275 28.1271C21.8425 28.1938 22.9854 34.4286 23.0757 34.9247L23.0832 34.9099ZM19.8349 14.9688C19.8424 15.028 22.0756 26.9572 22.0906 27.0608C21.9929 27.0608 20.3312 27.1497 20.2635 27.1497C20.2409 27.0905 15.5114 14.2876 15.4512 14.1395C15.6091 14.1691 19.7747 14.9614 19.8349 14.9688ZM12.4436 17.6419C12.4812 17.6938 18.707 28.1567 18.7597 28.2382C18.6694 28.2752 17.1355 28.9194 17.0829 28.9417C17.0378 28.8898 8.14261 18.4565 8.03734 18.3306C8.19524 18.301 12.3834 17.6419 12.436 17.6345L12.4436 17.6419ZM14.7068 31.7036C14.6467 31.6666 2.66866 24.8616 2.5258 24.7802C2.66866 24.6987 6.36809 22.6772 6.42824 22.6476C6.47336 22.692 15.9625 30.4152 16.0452 30.4819C15.9701 30.5485 14.752 31.6666 14.7068 31.7111V31.7036ZM15.346 33.466C15.3535 33.3993 15.4963 32.4886 15.4963 32.4886C15.5189 32.3479 15.6317 32.1553 15.7445 32.0665C15.7445 32.0665 16.4738 31.4889 16.5265 31.4445C16.5866 31.4889 21.5342 35.5393 21.9252 35.8577C21.4515 35.68 15.4136 33.4882 15.346 33.466ZM17.0679 30.8225C17.1054 30.7632 17.5491 29.9487 17.5491 29.9487C17.6167 29.8228 17.7972 29.6821 17.925 29.6377C17.925 29.6377 18.8123 29.3415 18.88 29.3193C18.9176 29.3859 22.1583 34.8581 22.414 35.2876C22.023 34.9618 17.1205 30.8669 17.0603 30.8225H17.0679ZM18.4063 40.8708C18.2559 40.6709 18.1431 40.5154 17.9927 40.2562C17.8423 40.0044 17.7671 39.8341 17.6619 39.6046C17.7446 39.5675 21.5342 38.1532 22.0155 37.9681C21.6169 38.2939 18.4739 40.8041 18.4063 40.8634V40.8708ZM19.5041 42.0259C19.2785 41.8334 19.1431 41.7001 18.9702 41.5224C19.0379 41.4632 22.1057 38.8567 22.4892 38.5161C22.226 38.9529 20.1507 42.3814 20.1056 42.4554C19.8875 42.3147 19.7372 42.2111 19.5041 42.0185V42.0259ZM21.5267 43.1737C21.2485 43.0774 21.068 42.9886 20.85 42.8775C20.8951 42.8034 22.8651 39.3232 23.1208 38.8789C23.023 39.375 22.2636 43.2922 22.241 43.381C22.0004 43.3218 21.8124 43.2699 21.5267 43.1737ZM23.8276 43.5809C23.5268 43.5809 23.3388 43.5587 23.0907 43.5365C23.1057 43.4402 23.7524 39.5009 23.8276 39.0048C23.9103 39.5009 24.5569 43.4402 24.5645 43.5365C24.3163 43.5661 24.1283 43.5809 23.8276 43.5809ZM26.136 43.1737C25.8577 43.2699 25.6698 43.3218 25.4216 43.381C25.4066 43.2922 24.6472 39.375 24.5494 38.8789C24.7975 39.3232 26.7751 42.8034 26.8202 42.8775C26.5946 42.9886 26.4217 43.07 26.1435 43.1737H26.136ZM29.9858 39.6046C29.888 39.8341 29.8128 40.0044 29.6624 40.2562C29.5121 40.5154 29.3993 40.6634 29.2489 40.8708C29.1812 40.8115 26.0382 38.2939 25.6397 37.9755C26.1209 38.1532 29.9106 39.5749 29.9858 39.612V39.6046ZM28.6925 41.5224C28.5195 41.7075 28.3842 41.8334 28.1586 42.0259C27.9255 42.2185 27.7751 42.3221 27.5646 42.4628C27.5195 42.3888 25.4367 38.9603 25.1735 38.5235C25.5645 38.8567 28.6248 41.4632 28.7 41.5224H28.6925ZM25.2412 35.2876C25.4968 34.8507 28.7376 29.3785 28.7752 29.3193C28.8429 29.3415 29.7301 29.6377 29.7301 29.6377C29.8655 29.6821 30.0384 29.8228 30.1061 29.9487C30.1061 29.9487 30.5572 30.7558 30.5873 30.8225C30.5347 30.8743 25.6247 34.9618 25.2337 35.2876H25.2412ZM25.7299 35.8651C26.1209 35.5467 31.0685 31.4963 31.1212 31.4519C31.1738 31.4963 31.9107 32.0739 31.9107 32.0739C32.0235 32.1627 32.1362 32.3553 32.1588 32.496C32.1588 32.496 32.3017 33.4067 32.3092 33.4734C32.2415 33.4956 26.2036 35.6948 25.7299 35.8651ZM31.655 30.5115C31.6024 30.43 30.6926 29.0601 30.655 29.0083C30.7001 28.9491 39.5877 18.5231 39.7005 18.3972C39.7532 18.5453 41.1367 22.4921 41.1517 22.5513C41.1066 22.5957 31.7302 30.4522 31.6475 30.5189L31.655 30.5115ZM45.1068 29.2527C45.0466 29.2749 33.5122 33.503 33.4145 33.54C33.3919 33.4438 33.016 31.8443 33.0009 31.7851C33.0611 31.7555 45.0391 24.9431 45.182 24.8616C45.182 25.0171 45.1068 29.1934 45.1068 29.2527Z" fill="#E60012"/>
<path d="M5.73664 50.467C5.12759 50.2375 5.02232 50.0746 5.02232 49.8228C5.02232 49.5932 5.21782 49.3563 5.65393 49.3563C6.05244 49.3563 6.29306 49.497 6.33817 49.5192L6.47352 49.6081L6.6615 49.0453L6.69909 48.9564L6.60886 48.9046C6.50359 48.8454 6.19531 48.6973 5.66897 48.6973C4.83434 48.6973 4.25537 49.186 4.25537 49.8894C4.25537 50.4448 4.6238 50.8447 5.39076 51.1186C5.94718 51.326 6.05996 51.5259 6.05996 51.7851C6.05996 52.1331 5.79679 52.3404 5.34564 52.3404C5.03736 52.3404 4.72907 52.2516 4.49598 52.1035L4.36063 52.0146L4.18017 52.5848L4.14258 52.6736L4.22529 52.7255C4.47342 52.8884 4.93209 53.0069 5.31557 53.0069C6.43592 53.0069 6.82692 52.3256 6.82692 51.7406C6.82692 51.1557 6.50359 50.7706 5.73664 50.4744V50.467Z" fill="#E60012"/>
<path d="M9.58619 48.6904H8.8042V52.9926H9.58619V48.6904Z" fill="#E60012"/>
<path d="M14.3837 50.519C14.3837 50.9411 14.3912 51.2965 14.4137 51.6445C14.2709 51.378 14.113 51.1114 13.9175 50.8078L12.6016 48.7419L12.564 48.69H11.7896V52.9922H12.5339V51.1336C12.5339 50.6597 12.5339 50.3043 12.5189 49.9711C12.6618 50.245 12.8422 50.5412 13.0528 50.867L14.3611 52.9256L14.3987 52.9848H15.1281V48.6826H14.3837V50.5116V50.519Z" fill="#E60012"/>
<path d="M19.0452 49.3569C19.4287 49.3569 19.6768 49.4531 19.7896 49.5124L19.9174 49.5716L20.0904 49.031L20.128 48.9348L20.0302 48.8755C19.9174 48.8237 19.5866 48.6904 19.0226 48.6904C17.6993 48.6904 16.812 49.5716 16.812 50.8748C16.812 52.1781 17.6316 52.9926 18.9099 52.9926C19.4437 52.9926 19.8422 52.8815 20.0152 52.7927L20.0979 52.7483L19.94 52.0966L19.8046 52.1633C19.6091 52.2595 19.3084 52.3188 19.0151 52.3188C18.1354 52.3188 17.609 51.7708 17.609 50.86C17.609 49.9492 18.1579 49.3569 19.0452 49.3569Z" fill="#E60012"/>
<path d="M22.677 51.0822H24.2711V50.4083H22.677V49.3717H24.3688V48.6904H21.895V52.9926H24.4591V52.3114H22.677V51.0822Z" fill="#E60012"/>
<path d="M28.467 49.1495L28.3843 49.1865L28.5046 49.6679L28.5422 49.8234L29.1888 49.4827V52.9926H29.9332V48.6904H29.3693L28.467 49.1495Z" fill="#E60012"/>
<path d="M34.0612 50.6971C34.5349 50.4083 34.6026 50.0011 34.6026 49.7789C34.6026 49.2532 34.1966 48.6904 33.3093 48.6904C32.5198 48.6904 31.9559 49.1791 31.9559 49.8604C31.9559 50.2158 32.1514 50.5268 32.4897 50.7416C32.0536 50.9859 31.813 51.3636 31.813 51.8153C31.813 52.5039 32.4296 53 33.2717 53C34.1139 53 34.753 52.4669 34.753 51.7338C34.753 51.2969 34.5124 50.9341 34.0687 50.7045L34.0612 50.6971ZM33.2867 52.3632C33.0837 52.3632 32.8957 52.2892 32.7754 52.1633C32.6702 52.0522 32.61 51.9041 32.6175 51.7412C32.6175 51.4154 32.8356 51.1636 33.2116 51.0526C33.7379 51.2081 33.9635 51.4228 33.9635 51.7856C33.9635 52.1485 33.6928 52.3706 33.2867 52.3706V52.3632ZM33.3619 50.4157C32.9183 50.2973 32.7228 50.1121 32.7303 49.8234C32.7303 49.5864 32.8807 49.3124 33.3018 49.3124H33.3093C33.8131 49.3124 33.8507 49.7123 33.8507 49.8308C33.8507 50.0899 33.6777 50.2973 33.3619 50.4157Z" fill="#E60012"/>
<path d="M37.6402 48.6904C36.8055 48.6904 36.1514 49.3495 36.1514 50.1936C36.1514 50.9637 36.7003 51.5265 37.4522 51.5265C37.7304 51.5265 37.9785 51.4598 38.1891 51.3191C38.0988 51.5783 37.971 51.793 37.7981 51.9411C37.595 52.1411 37.3319 52.2595 37.0386 52.2892C36.8506 52.3114 36.7303 52.3188 36.6251 52.3114H36.4973V52.9852H36.6176C36.6176 52.9852 36.6401 52.9852 36.6552 52.9852C36.7755 52.9852 36.9484 52.9704 37.1289 52.9556C37.595 52.9038 38.0387 52.6964 38.3545 52.3928C38.6853 52.0818 39.0763 51.4894 39.0763 50.4602C39.0763 49.3643 38.5274 48.6904 37.6326 48.6904H37.6402ZM38.2643 50.5342C38.1214 50.749 37.8657 50.8822 37.58 50.8822C37.1965 50.8822 36.9334 50.5935 36.9334 50.1714C36.9334 49.6901 37.2116 49.342 37.595 49.342C37.768 49.342 37.9109 49.3939 38.0236 49.505C38.2041 49.6827 38.2943 50.0011 38.2943 50.4083C38.2943 50.4602 38.2868 50.4972 38.2643 50.5416V50.5342Z" fill="#E60012"/>
<path d="M40.5654 49.3865H42.5129L40.8136 52.8149L40.7308 52.9926H41.573L43.4002 49.2236L43.4152 49.194V48.6904H40.5654V49.3865Z" fill="#E60012"/>
</g>
<defs>
<clipPath id="clip0_2128_965">
<rect width="185.182" height="42" fill="white" transform="translate(0.90918 11)"/>
</clipPath>
</defs>
</svg>
