<svg width="25" height="24" viewBox="0 0 25 24" fill="none" xmlns="http://www.w3.org/2000/svg">
<mask id="mask0_2128_802" style="mask-type:alpha" maskUnits="userSpaceOnUse" x="0" y="0" width="25" height="24">
<rect x="0.5" width="24" height="24" rx="3" fill="white"/>
</mask>
<g mask="url(#mask0_2128_802)">
<path d="M7.5 17.3333C7.5 18.2538 8.24619 19 9.16667 19V19C10.0871 19 10.8333 18.2538 10.8333 17.3333V6.66667C10.8333 5.74619 10.0871 5 9.16667 5V5C8.24619 5 7.5 5.74619 7.5 6.66667V17.3333ZM14.1667 17.3333C14.1667 18.2538 14.9129 19 15.8333 19V19C16.7538 19 17.5 18.2538 17.5 17.3333V6.66667C17.5 5.74619 16.7538 5 15.8333 5V5C14.9129 5 14.1667 5.74619 14.1667 6.66667V17.3333Z" fill="#04359B"/>
</g>
</svg>
