<svg width="36" height="36" viewBox="0 0 36 36" fill="none" xmlns="http://www.w3.org/2000/svg">
<mask id="mask0_2128_186" style="mask-type:alpha" maskUnits="userSpaceOnUse" x="0" y="0" width="36" height="36">
<rect width="36" height="36" fill="#D9D9D9"/>
</mask>
<g mask="url(#mask0_2128_186)">
<path d="M16.5 28.5V23.85C15.275 23.575 14.1812 23.0563 13.2188 22.2938C12.2563 21.5313 11.55 20.575 11.1 19.425C9.225 19.2 7.65625 18.3813 6.39375 16.9688C5.13125 15.5562 4.5 13.9 4.5 12V10.5C4.5 9.675 4.79375 8.96875 5.38125 8.38125C5.96875 7.79375 6.675 7.5 7.5 7.5H10.5C10.5 6.675 10.7938 5.96875 11.3813 5.38125C11.9688 4.79375 12.675 4.5 13.5 4.5H22.5C23.325 4.5 24.0313 4.79375 24.6188 5.38125C25.2063 5.96875 25.5 6.675 25.5 7.5H28.5C29.325 7.5 30.0313 7.79375 30.6188 8.38125C31.2063 8.96875 31.5 9.675 31.5 10.5V12C31.5 13.9 30.8688 15.5562 29.6063 16.9688C28.3438 18.3813 26.775 19.2 24.9 19.425C24.45 20.575 23.7437 21.5313 22.7812 22.2938C21.8188 23.0563 20.725 23.575 19.5 23.85V28.5H24C24.425 28.5 24.7813 28.6438 25.0688 28.9313C25.3563 29.2188 25.5 29.575 25.5 30C25.5 30.425 25.3563 30.7812 25.0688 31.0687C24.7813 31.3562 24.425 31.5 24 31.5H12C11.575 31.5 11.2187 31.3562 10.9312 31.0687C10.6437 30.7812 10.5 30.425 10.5 30C10.5 29.575 10.6437 29.2188 10.9312 28.9313C11.2187 28.6438 11.575 28.5 12 28.5H16.5ZM10.5 16.2V10.5H7.5V12C7.5 12.95 7.775 13.8063 8.325 14.5688C8.875 15.3313 9.6 15.875 10.5 16.2ZM18 21C19.25 21 20.3125 20.5625 21.1875 19.6875C22.0625 18.8125 22.5 17.75 22.5 16.5V7.5H13.5V16.5C13.5 17.75 13.9375 18.8125 14.8125 19.6875C15.6875 20.5625 16.75 21 18 21ZM25.5 16.2C26.4 15.875 27.125 15.3313 27.675 14.5688C28.225 13.8063 28.5 12.95 28.5 12V10.5H25.5V16.2Z" fill="white"/>
</g>
</svg>
