<svg width="36" height="36" viewBox="0 0 36 36" fill="none" xmlns="http://www.w3.org/2000/svg">
<path d="M15.2998 29.0292V26.0292C13.2248 26.0292 11.4561 25.2979 9.99355 23.8354C8.53105 22.3729 7.7998 20.6042 7.7998 18.5292C7.7998 17.0042 8.21855 15.6167 9.05605 14.3667C9.89355 13.1167 11.0248 12.2042 12.4498 11.6292C12.6498 10.7792 13.0936 10.0917 13.7811 9.56668C14.4686 9.04168 15.2498 8.77918 16.1248 8.77918L15.7873 7.84168C15.6623 7.44168 15.6811 7.06043 15.8436 6.69793C16.0061 6.33543 16.2873 6.07918 16.6873 5.92918H16.7248C16.5748 5.55418 16.5873 5.18543 16.7623 4.82293C16.9373 4.46043 17.2373 4.20418 17.6623 4.05418C18.0373 3.92918 18.4061 3.94793 18.7686 4.11043C19.1311 4.27293 19.3748 4.55418 19.4998 4.95418C19.8998 4.80418 20.2873 4.81668 20.6623 4.99168C21.0373 5.16668 21.2998 5.45418 21.4498 5.85418L24.5248 14.2917C24.6748 14.6917 24.6686 15.0729 24.5061 15.4354C24.3436 15.7979 24.0623 16.0542 23.6623 16.2042H23.6248C23.7748 16.6042 23.7623 16.9917 23.5873 17.3667C23.4123 17.7417 23.1123 18.0042 22.6873 18.1542C22.3123 18.2792 21.9436 18.2604 21.5811 18.0979C21.2186 17.9354 20.9748 17.6542 20.8498 17.2542C20.4498 17.4042 20.0623 17.3917 19.6873 17.2167C19.3123 17.0417 19.0498 16.7542 18.8998 16.3542L18.5248 15.3042C18.1498 15.6542 17.7186 15.9167 17.2311 16.0917C16.7436 16.2667 16.2498 16.3292 15.7498 16.2792C15.1998 16.2292 14.6873 16.0604 14.2123 15.7729C13.7373 15.4854 13.3248 15.1292 12.9748 14.7042C12.2998 15.1042 11.7686 15.6417 11.3811 16.3167C10.9936 16.9917 10.7998 17.7292 10.7998 18.5292C10.7998 19.7792 11.2373 20.8417 12.1123 21.7167C12.9873 22.5917 14.0498 23.0292 15.2998 23.0292H25.7998C26.2248 23.0292 26.5811 23.1729 26.8686 23.4604C27.1561 23.7479 27.2998 24.1042 27.2998 24.5292C27.2998 24.9542 27.1561 25.3104 26.8686 25.5979C26.5811 25.8854 26.2248 26.0292 25.7998 26.0292H19.7998V29.0292H27.2998C27.7248 29.0292 28.0811 29.1729 28.3686 29.4604C28.6561 29.7479 28.7998 30.1042 28.7998 30.5292C28.7998 30.9542 28.6561 31.3104 28.3686 31.5979C28.0811 31.8854 27.7248 32.0292 27.2998 32.0292H9.2998C8.8748 32.0292 8.51855 31.8854 8.23105 31.5979C7.94355 31.3104 7.7998 30.9542 7.7998 30.5292C7.7998 30.1042 7.94355 29.7479 8.23105 29.4604C8.51855 29.1729 8.8748 29.0292 9.2998 29.0292H15.2998ZM20.7748 14.8542L22.1248 14.3292L19.5748 7.27918L18.1498 7.80418L20.7748 14.8542ZM16.0498 14.0292C16.4748 14.0292 16.8311 13.8854 17.1186 13.5979C17.4061 13.3104 17.5498 12.9542 17.5498 12.5292C17.5498 12.1042 17.4061 11.7479 17.1186 11.4604C16.8311 11.1729 16.4748 11.0292 16.0498 11.0292C15.6248 11.0292 15.2686 11.1729 14.9811 11.4604C14.6936 11.7479 14.5498 12.1042 14.5498 12.5292C14.5498 12.9542 14.6936 13.3104 14.9811 13.5979C15.2686 13.8854 15.6248 14.0292 16.0498 14.0292Z" fill="white"/>
</svg>
