<svg width="36" height="36" viewBox="0 0 36 36" fill="none" xmlns="http://www.w3.org/2000/svg">
<mask id="mask0_2128_179" style="mask-type:alpha" maskUnits="userSpaceOnUse" x="0" y="0" width="36" height="36">
<rect width="36" height="36" fill="#D9D9D9"/>
</mask>
<g mask="url(#mask0_2128_179)">
<path d="M10.5 19.6605V28.5394C10.5 28.9587 10.3562 29.3102 10.0687 29.5938C9.78125 29.8774 9.425 30.0193 9 30.0193C8.575 30.0193 8.21875 29.8774 7.93125 29.5938C7.64375 29.3102 7.5 28.9587 7.5 28.5394V6.34213C7.5 5.92284 7.64375 5.57139 7.93125 5.28775C8.21875 5.00412 8.575 4.8623 9 4.8623H19.7625C20.1125 4.8623 20.425 4.97329 20.7 5.19526C20.975 5.41724 21.15 5.70087 21.225 6.04616L21.6 7.82195H28.5C28.925 7.82195 29.2813 7.96376 29.5688 8.24739C29.8563 8.53103 30 8.88248 30 9.30177V21.1403C30 21.5596 29.8563 21.9111 29.5688 22.1947C29.2813 22.4783 28.925 22.6202 28.5 22.6202H20.7375C20.3875 22.6202 20.075 22.5092 19.8 22.2872C19.525 22.0652 19.35 21.7816 19.275 21.4363L18.9 19.6605H10.5ZM21.975 19.6605H27V10.7816H20.3625C20.0125 10.7816 19.7 10.6706 19.425 10.4486C19.15 10.2267 18.975 9.94302 18.9 9.59773L18.525 7.82195H10.5V16.7009H20.1375C20.4875 16.7009 20.8 16.8119 21.075 17.0338C21.35 17.2558 21.525 17.5394 21.6 17.8847L21.975 19.6605Z" fill="white"/>
</g>
</svg>
