<?xml version="1.0" ?><svg contentScriptType="text/ecmascript" contentStyleType="text/css" enable-background="new 0 0 2048 2048" height="15px" id="Layer_1" preserveAspectRatio="xMidYMid meet" version="1.1" viewBox="0.0 0 1664.0 2048" width="15px" xml:space="preserve" xmlns="http://www.w3.org/2000/svg" xmlns:xlink="http://www.w3.org/1999/xlink" zoomAndPan="magnify"><path d="M1664,736v704c0,61.333-22,114-66,158s-96.667,66-158,66H224c-61.333,0-114-22-158-66s-66-96.667-66-158V480  c0-61.333,22-114,66-158s96.667-66,158-66h320c61.333,0,114,22,158,66s66,96.667,66,158v32h672c61.333,0,114,22,158,66  S1664,674.667,1664,736z"/></svg>