<?xml version="1.0" ?><svg contentScriptType="text/ecmascript" contentStyleType="text/css" enable-background="new 0 0 2048 2048" height="15px" id="Layer_1" preserveAspectRatio="xMidYMid meet" version="1.1" viewBox="0.0 0 1879.0 2048" width="15px" xml:space="preserve" xmlns="http://www.w3.org/2000/svg" xmlns:xlink="http://www.w3.org/1999/xlink" zoomAndPan="magnify"><path d="M1879,1080c0,20.667-10.333,42.667-31,66l-336,396c-28.667,34-68.833,62.833-120.5,86.5S1292,1664,1248,1664H160  c-22.667,0-42.833-4.333-60.5-13S73,1628,73,1608c0-20.667,10.333-42.667,31-66l336-396c28.667-34,68.833-62.833,120.5-86.5  S660,1024,704,1024h1088c22.667,0,42.833,4.333,60.5,13S1879,1060,1879,1080z M1536,736v160H704c-62.667,0-128.333,15.833-197,47.5  S383.667,1015,343,1063L6,1459l-5,6c0-2.667-0.167-6.833-0.5-12.5S0,1442.667,0,1440V480c0-61.333,22-114,66-158s96.667-66,158-66  h320c61.333,0,114,22,158,66s66,96.667,66,158v32h544c61.333,0,114,22,158,66S1536,674.667,1536,736z"/></svg>