<?xml version="1.0" ?><svg contentScriptType="text/ecmascript" contentStyleType="text/css" enable-background="new 0 0 2048 2048" height="15px" id="Layer_1" preserveAspectRatio="xMidYMid meet" version="1.1" viewBox="0.0 0 1664.0 2048" width="15px" xml:space="preserve" xmlns="http://www.w3.org/2000/svg" xmlns:xlink="http://www.w3.org/1999/xlink" zoomAndPan="magnify"><path d="M1536,1440V736c0-26.667-9.333-49.333-28-68s-41.333-28-68-28H736c-26.667,0-49.333-9.333-68-28s-28-41.333-28-68v-64  c0-26.667-9.333-49.333-28-68s-41.333-28-68-28H224c-26.667,0-49.333,9.333-68,28s-28,41.333-28,68v960c0,26.667,9.333,49.333,28,68  s41.333,28,68,28h1216c26.667,0,49.333-9.333,68-28S1536,1466.667,1536,1440z M1664,736v704c0,61.333-22,114-66,158  s-96.667,66-158,66H224c-61.333,0-114-22-158-66s-66-96.667-66-158V480c0-61.333,22-114,66-158s96.667-66,158-66h320  c61.333,0,114,22,158,66s66,96.667,66,158v32h672c61.333,0,114,22,158,66S1664,674.667,1664,736z"/></svg>