<?xml version="1.0" ?><svg contentScriptType="text/ecmascript" contentStyleType="text/css" enable-background="new 0 0 2048 2048" height="15px" id="Layer_1" preserveAspectRatio="xMidYMid meet" version="1.1" viewBox="0.0 0 1536.0 2048" width="15px" xml:space="preserve" xmlns="http://www.w3.org/2000/svg" xmlns:xlink="http://www.w3.org/1999/xlink" zoomAndPan="magnify"><path d="M685,1427l614-614c12.667-12.667,19-27.667,19-45s-6.333-32.333-19-45l-102-102c-12.667-12.667-27.667-19-45-19  s-32.333,6.333-45,19l-467,467L429,877c-12.667-12.667-27.667-19-45-19s-32.333,6.333-45,19L237,979c-12.667,12.667-19,27.667-19,45  c0,17.333,6.333,32.333,19,45l358,358c12.667,12.667,27.667,19,45,19S672.333,1439.667,685,1427z M1536,544v960  c0,79.333-28.167,147.167-84.5,203.5S1327.333,1792,1248,1792H288c-79.333,0-147.167-28.167-203.5-84.5S0,1583.333,0,1504V544  c0-79.333,28.167-147.167,84.5-203.5S208.667,256,288,256h960c79.333,0,147.167,28.167,203.5,84.5S1536,464.667,1536,544z"/></svg>