<?xml version="1.0" ?><svg contentScriptType="text/ecmascript" contentStyleType="text/css" enable-background="new 0 0 2048 2048" height="15px" id="Layer_1" preserveAspectRatio="xMidYMid meet" version="1.1" viewBox="0.0 0 1280.0 2048" width="15px" xml:space="preserve" xmlns="http://www.w3.org/2000/svg" xmlns:xlink="http://www.w3.org/1999/xlink" zoomAndPan="magnify"><path d="M1280,896v800c0,26.667-9.333,49.333-28,68s-41.333,28-68,28H96c-26.667,0-49.333-9.333-68-28s-28-41.333-28-68V352  c0-26.667,9.333-49.333,28-68s41.333-28,68-28h544v544c0,26.667,9.333,49.333,28,68s41.333,28,68,28H1280z M1277,768H768V259  c54.667,10,98.667,31.667,132,65l312,312C1245.333,669.333,1267,713.333,1277,768z"/></svg>